<?xml version="1.0" encoding="UTF-8"?><svg xmlns="http://www.w3.org/2000/svg" xmlns:xlink="http://www.w3.org/1999/xlink" fill-opacity="1" color-rendering="auto" color-interpolation="auto" text-rendering="auto" stroke="black" stroke-linecap="square" width="1735" stroke-miterlimit="10" shape-rendering="auto" stroke-opacity="1" fill="black" stroke-dasharray="none" font-weight="normal" stroke-width="1" height="917" font-family="'Dialog'" font-style="normal" stroke-linejoin="miter" font-size="12px" stroke-dashoffset="0" image-rendering="auto">
  <!--Generated by ySVG 2.6-->
  <defs id="genericDefs"/>
  <g>
    <defs id="defs1">
      <linearGradient x1="125" gradientUnits="userSpaceOnUse" x2="265" y1="762.6094" y2="802.6094" id="linearGradient1" spreadMethod="reflect">
        <stop stop-opacity="1" stop-color="rgb(232,238,247)" offset="0%"/>
        <stop stop-opacity="1" stop-color="rgb(183,201,227)" offset="100%"/>
      </linearGradient>
      <linearGradient x1="295" gradientUnits="userSpaceOnUse" x2="435" y1="762.6094" y2="802.6094" id="linearGradient2" spreadMethod="reflect">
        <stop stop-opacity="1" stop-color="rgb(232,238,247)" offset="0%"/>
        <stop stop-opacity="1" stop-color="rgb(183,201,227)" offset="100%"/>
      </linearGradient>
      <linearGradient x1="264.6647" gradientUnits="userSpaceOnUse" x2="404.6647" y1="559.1812" y2="599.1812" id="linearGradient3" spreadMethod="reflect">
        <stop stop-opacity="1" stop-color="rgb(232,238,247)" offset="0%"/>
        <stop stop-opacity="1" stop-color="rgb(183,201,227)" offset="100%"/>
      </linearGradient>
      <linearGradient x1="125" gradientUnits="userSpaceOnUse" x2="265" y1="813.932" y2="853.932" id="linearGradient4" spreadMethod="reflect">
        <stop stop-opacity="1" stop-color="rgb(232,238,247)" offset="0%"/>
        <stop stop-opacity="1" stop-color="rgb(183,201,227)" offset="100%"/>
      </linearGradient>
      <linearGradient x1="0" gradientUnits="userSpaceOnUse" x2="80" y1="559.1812" y2="599.1812" id="linearGradient5" spreadMethod="reflect">
        <stop stop-opacity="1" stop-color="rgb(232,238,247)" offset="0%"/>
        <stop stop-opacity="1" stop-color="rgb(183,201,227)" offset="100%"/>
      </linearGradient>
      <linearGradient x1="850" gradientUnits="userSpaceOnUse" x2="990" y1="762.6094" y2="802.6094" id="linearGradient6" spreadMethod="reflect">
        <stop stop-opacity="1" stop-color="rgb(232,238,247)" offset="0%"/>
        <stop stop-opacity="1" stop-color="rgb(183,201,227)" offset="100%"/>
      </linearGradient>
      <linearGradient x1="680" gradientUnits="userSpaceOnUse" x2="820" y1="762.6094" y2="802.6094" id="linearGradient7" spreadMethod="reflect">
        <stop stop-opacity="1" stop-color="rgb(232,238,247)" offset="0%"/>
        <stop stop-opacity="1" stop-color="rgb(183,201,227)" offset="100%"/>
      </linearGradient>
      <linearGradient x1="510" gradientUnits="userSpaceOnUse" x2="650" y1="762.6094" y2="802.6094" id="linearGradient8" spreadMethod="reflect">
        <stop stop-opacity="1" stop-color="rgb(232,238,247)" offset="0%"/>
        <stop stop-opacity="1" stop-color="rgb(183,201,227)" offset="100%"/>
      </linearGradient>
      <linearGradient x1="1517" gradientUnits="userSpaceOnUse" x2="1657" y1="559.1812" y2="599.1812" id="linearGradient9" spreadMethod="reflect">
        <stop stop-opacity="1" stop-color="rgb(232,238,247)" offset="0%"/>
        <stop stop-opacity="1" stop-color="rgb(183,201,227)" offset="100%"/>
      </linearGradient>
      <linearGradient x1="1097" gradientUnits="userSpaceOnUse" x2="1237" y1="762.6094" y2="802.6094" id="linearGradient10" spreadMethod="reflect">
        <stop stop-opacity="1" stop-color="rgb(232,238,247)" offset="0%"/>
        <stop stop-opacity="1" stop-color="rgb(183,201,227)" offset="100%"/>
      </linearGradient>
      <linearGradient x1="1347" gradientUnits="userSpaceOnUse" x2="1487" y1="559.1812" y2="599.1812" id="linearGradient11" spreadMethod="reflect">
        <stop stop-opacity="1" stop-color="rgb(232,238,247)" offset="0%"/>
        <stop stop-opacity="1" stop-color="rgb(183,201,227)" offset="100%"/>
      </linearGradient>
      <linearGradient x1="663.1494" gradientUnits="userSpaceOnUse" x2="743.1494" y1="566.8435" y2="606.8435" id="linearGradient12" spreadMethod="reflect">
        <stop stop-opacity="1" stop-color="rgb(232,238,247)" offset="0%"/>
        <stop stop-opacity="1" stop-color="rgb(183,201,227)" offset="100%"/>
      </linearGradient>
      <clipPath clipPathUnits="userSpaceOnUse" id="clipPath1">
        <path d="M0 0 L1735 0 L1735 917 L0 917 L0 0 Z"/>
      </clipPath>
      <clipPath clipPathUnits="userSpaceOnUse" id="clipPath2">
        <path d="M-15 -33 L1720 -33 L1720 884 L-15 884 L-15 -33 Z"/>
      </clipPath>
    </defs>
    <g fill="white" text-rendering="geometricPrecision" shape-rendering="geometricPrecision" transform="translate(15,33)" stroke="white">
      <rect x="-15" width="1735" height="917" y="-33" clip-path="url(#clipPath2)" stroke="none"/>
    </g>
    <g fill="rgb(255,204,0)" text-rendering="geometricPrecision" shape-rendering="geometricPrecision" transform="matrix(1,0,0,1,15,33)" stroke="rgb(255,204,0)">
      <path d="M290.6647 80 L378.6647 0 L466.6647 80 L378.6647 160 Z" fill-rule="evenodd" clip-path="url(#clipPath2)" stroke="none"/>
    </g>
    <g text-rendering="geometricPrecision" stroke-miterlimit="1.45" shape-rendering="geometricPrecision" transform="matrix(1,0,0,1,15,33)" stroke-linecap="butt">
      <path fill="none" d="M290.6647 80 L378.6647 0 L466.6647 80 L378.6647 160 Z" fill-rule="evenodd" clip-path="url(#clipPath2)"/>
      <text x="366.6559" xml:space="preserve" y="70.0127" clip-path="url(#clipPath2)" font-family="sans-serif" stroke="none">Sign</text>
      <text x="373.3297" xml:space="preserve" y="84.7139" clip-path="url(#clipPath2)" font-family="sans-serif" stroke="none">or</text>
      <text x="335.3024" xml:space="preserve" y="99.415" clip-path="url(#clipPath2)" font-family="sans-serif" stroke="none">exchange keys?</text>
    </g>
    <g fill="rgb(245,245,245)" text-rendering="geometricPrecision" shape-rendering="geometricPrecision" transform="matrix(1,0,0,1,15,33)" stroke="rgb(245,245,245)">
      <rect x="110" y="521.8047" clip-path="url(#clipPath2)" width="340" rx="4" ry="4" height="347.1273" stroke="none"/>
      <rect x="110" y="521.8047" clip-path="url(#clipPath2)" fill="rgb(235,235,235)" width="340" height="22.3765" stroke="none"/>
    </g>
    <g font-size="15px" stroke-linecap="butt" transform="matrix(1,0,0,1,15,33)" text-rendering="geometricPrecision" font-family="sans-serif" shape-rendering="geometricPrecision" stroke-miterlimit="1.45">
      <text x="407.9951" xml:space="preserve" y="538.8853" clip-path="url(#clipPath2)" stroke="none">KEMs</text>
      <rect x="110" y="521.8047" clip-path="url(#clipPath2)" fill="none" width="340" stroke-dasharray="6,2" rx="4" ry="4" height="347.1273"/>
    </g>
    <g fill="url(#linearGradient1)" text-rendering="geometricPrecision" shape-rendering="geometricPrecision" transform="matrix(1,0,0,1,15,33)" stroke="url(#linearGradient1)">
      <rect x="125" y="762.6094" clip-path="url(#clipPath2)" width="140" rx="20" ry="20" height="40" stroke="none"/>
    </g>
    <g text-rendering="geometricPrecision" stroke-miterlimit="1.45" shape-rendering="geometricPrecision" transform="matrix(1,0,0,1,15,33)" stroke-linecap="butt">
      <rect x="125" y="762.6094" clip-path="url(#clipPath2)" fill="none" width="140" rx="20" ry="20" height="40"/>
      <text x="149.6572" xml:space="preserve" y="787.3232" clip-path="url(#clipPath2)" font-family="sans-serif" stroke="none">Classic McEliece</text>
    </g>
    <g fill="url(#linearGradient2)" text-rendering="geometricPrecision" shape-rendering="geometricPrecision" transform="matrix(1,0,0,1,15,33)" stroke="url(#linearGradient2)">
      <rect x="295" y="762.6094" clip-path="url(#clipPath2)" width="140" rx="20" ry="20" height="40" stroke="none"/>
    </g>
    <g text-rendering="geometricPrecision" stroke-miterlimit="1.45" shape-rendering="geometricPrecision" transform="matrix(1,0,0,1,15,33)" stroke-linecap="butt">
      <rect x="295" y="762.6094" clip-path="url(#clipPath2)" fill="none" width="140" rx="20" ry="20" height="40"/>
      <text x="336.3242" xml:space="preserve" y="787.3232" clip-path="url(#clipPath2)" font-family="sans-serif" stroke="none">FrodoKEM</text>
    </g>
    <g fill="url(#linearGradient3)" text-rendering="geometricPrecision" shape-rendering="geometricPrecision" transform="matrix(1,0,0,1,15,33)" stroke="url(#linearGradient3)">
      <rect x="264.6647" y="559.1812" clip-path="url(#clipPath2)" width="140" rx="20" ry="20" height="40" stroke="none"/>
    </g>
    <g text-rendering="geometricPrecision" stroke-miterlimit="1.45" shape-rendering="geometricPrecision" transform="matrix(1,0,0,1,15,33)" stroke-linecap="butt">
      <rect x="264.6647" y="559.1812" clip-path="url(#clipPath2)" fill="none" width="140" rx="20" ry="20" height="40"/>
      <text x="285.317" xml:space="preserve" y="583.895" clip-path="url(#clipPath2)" font-family="sans-serif" stroke="none">CRYSTALS-Kyber</text>
    </g>
    <g fill="url(#linearGradient4)" text-rendering="geometricPrecision" shape-rendering="geometricPrecision" transform="matrix(1,0,0,1,15,33)" stroke="url(#linearGradient4)">
      <rect x="125" y="813.932" clip-path="url(#clipPath2)" width="140" rx="20" ry="20" height="40" stroke="none"/>
    </g>
    <g text-rendering="geometricPrecision" stroke-miterlimit="1.45" shape-rendering="geometricPrecision" transform="matrix(1,0,0,1,15,33)" stroke-linecap="butt">
      <rect x="125" y="813.932" clip-path="url(#clipPath2)" fill="none" width="140" rx="20" ry="20" height="40"/>
      <text x="177.6621" xml:space="preserve" y="838.6459" clip-path="url(#clipPath2)" font-family="sans-serif" stroke="none">Hybrid</text>
    </g>
    <g fill="rgb(255,204,0)" text-rendering="geometricPrecision" shape-rendering="geometricPrecision" transform="matrix(1,0,0,1,15,33)" stroke="rgb(255,204,0)">
      <path d="M662 62.0518 L750 -17.9482 L838 62.0518 L750 142.0518 Z" fill-rule="evenodd" clip-path="url(#clipPath2)" stroke="none"/>
    </g>
    <g text-rendering="geometricPrecision" stroke-miterlimit="1.45" shape-rendering="geometricPrecision" transform="matrix(1,0,0,1,15,33)" stroke-linecap="butt">
      <path fill="none" d="M662 62.0518 L750 -17.9482 L838 62.0518 L750 142.0518 Z" fill-rule="evenodd" clip-path="url(#clipPath2)"/>
      <text x="708.9785" xml:space="preserve" y="59.415" clip-path="url(#clipPath2)" font-family="sans-serif" stroke="none">How long is the</text>
      <text x="712.6377" xml:space="preserve" y="74.1162" clip-path="url(#clipPath2)" font-family="sans-serif" stroke="none">EE deployed?</text>
    </g>
    <g fill="rgb(255,204,0)" text-rendering="geometricPrecision" shape-rendering="geometricPrecision" transform="matrix(1,0,0,1,15,33)" stroke="rgb(255,204,0)">
      <path d="M246.6647 331.0776 L334.6647 251.0776 L422.6647 331.0776 L334.6647 411.0776 Z" fill-rule="evenodd" clip-path="url(#clipPath2)" stroke="none"/>
    </g>
    <g text-rendering="geometricPrecision" stroke-miterlimit="1.45" shape-rendering="geometricPrecision" transform="matrix(1,0,0,1,15,33)" stroke-linecap="butt">
      <path fill="none" d="M246.6647 331.0776 L334.6647 251.0776 L422.6647 331.0776 L334.6647 411.0776 Z" fill-rule="evenodd" clip-path="url(#clipPath2)"/>
      <text x="294.3053" xml:space="preserve" y="313.7397" clip-path="url(#clipPath2)" font-family="sans-serif" stroke="none">Do you have to</text>
      <text x="303.3229" xml:space="preserve" y="328.4409" clip-path="url(#clipPath2)" font-family="sans-serif" stroke="none">comply with</text>
      <text x="313.316" xml:space="preserve" y="343.1421" clip-path="url(#clipPath2)" font-family="sans-serif" stroke="none">regional</text>
      <text x="301.9752" xml:space="preserve" y="357.8433" clip-path="url(#clipPath2)" font-family="sans-serif" stroke="none">regulations?</text>
    </g>
    <g fill="url(#linearGradient5)" text-rendering="geometricPrecision" shape-rendering="geometricPrecision" transform="matrix(1,0,0,1,15,33)" stroke="url(#linearGradient5)">
      <path d="M20 559.1812 L60 559.1812 L60 579.1812 L40 599.1812 L20 579.1812 Z" stroke="none" clip-path="url(#clipPath2)"/>
    </g>
    <g text-rendering="geometricPrecision" stroke-miterlimit="1.45" shape-rendering="geometricPrecision" transform="matrix(1,0,0,1,15,33)" stroke-linecap="butt">
      <path fill="none" d="M20 559.1812 L60 559.1812 L60 579.1812 L40 599.1812 L20 579.1812 Z" clip-path="url(#clipPath2)"/>
    </g>
    <g text-rendering="geometricPrecision" stroke-miterlimit="1.45" shape-rendering="geometricPrecision" transform="matrix(1,0,0,1,15,33)" stroke-linecap="butt">
      <path fill="none" d="M334.6647 120.0312 L334.6647 243.0776" clip-path="url(#clipPath2)"/>
      <path d="M334.6647 251.0776 L339.6647 239.0776 L334.6647 242.0776 L329.6647 239.0776 Z" clip-path="url(#clipPath2)" stroke="none"/>
      <text x="301.6412" xml:space="preserve" y="198.1723" clip-path="url(#clipPath2)" font-family="sans-serif" stroke="none">Encapsulate</text>
      <text x="322.3278" xml:space="preserve" y="212.8735" clip-path="url(#clipPath2)" font-family="sans-serif" stroke="none">keys</text>
      <path fill="none" d="M393.3314 357.7648 L393.3314 421.0776 L424.1726 421.0776 L424.1726 513.8242" clip-path="url(#clipPath2)"/>
      <path d="M424.1726 521.8242 L429.1726 509.8242 L424.1726 512.8242 L419.1726 509.8242 Z" clip-path="url(#clipPath2)" stroke="none"/>
      <text x="385.3455" xml:space="preserve" y="469.8433" clip-path="url(#clipPath2)" font-family="sans-serif" stroke="none">Doesn't matter</text>
      <path fill="none" d="M334.6647 411.0776 L334.6647 551.145" clip-path="url(#clipPath2)"/>
      <path d="M334.6647 559.145 L339.6647 547.145 L334.6647 550.145 L329.6647 547.145 Z" clip-path="url(#clipPath2)" stroke="none"/>
      <text x="320.6608" xml:space="preserve" y="455.1421" clip-path="url(#clipPath2)" font-family="sans-serif" stroke="none">USA,</text>
      <text x="307.984" xml:space="preserve" y="469.8433" clip-path="url(#clipPath2)" font-family="sans-serif" stroke="none">FIPS 203,</text>
      <text x="322.3278" xml:space="preserve" y="484.5444" clip-path="url(#clipPath2)" font-family="sans-serif" stroke="none">NSS</text>
      <path fill="none" d="M275.998 357.7648 L275.998 421.0776 L40 421.0776 L40 551.1475" clip-path="url(#clipPath2)"/>
      <path d="M40 559.1475 L45 547.1475 L40 550.1475 L35 547.1475 Z" clip-path="url(#clipPath2)" stroke="none"/>
      <text x="13.6592" xml:space="preserve" y="462.4927" clip-path="url(#clipPath2)" font-family="sans-serif" stroke="none">Germany,</text>
      <text x="30.3291" xml:space="preserve" y="477.1938" clip-path="url(#clipPath2)" font-family="sans-serif" stroke="none">BSI</text>
      <path fill="none" d="M20 579.2124 L20 711.3823 L195 711.3823 L195 754.5844" clip-path="url(#clipPath2)"/>
      <path d="M195 762.5844 L200 750.5844 L195 753.5844 L190 750.5844 Z" clip-path="url(#clipPath2)" stroke="none"/>
      <path fill="none" d="M50 589.1812 L60 599.1812 L60 701.3823 L365 701.3823 L365 754.5795" clip-path="url(#clipPath2)"/>
      <path d="M365 762.5795 L370 750.5795 L365 753.5795 L360 750.5795 Z" clip-path="url(#clipPath2)" stroke="none"/>
      <path fill="none" d="M40 599.1769 L40 833.932 L117.0305 833.932" clip-path="url(#clipPath2)"/>
      <path d="M125.0305 833.932 L113.0305 828.932 L116.0305 833.932 L113.0305 838.932 Z" clip-path="url(#clipPath2)" stroke="none"/>
    </g>
    <g fill="rgb(245,245,245)" text-rendering="geometricPrecision" shape-rendering="geometricPrecision" transform="matrix(1,0,0,1,15,33)" stroke="rgb(245,245,245)">
      <rect x="480" y="176.3247" clip-path="url(#clipPath2)" width="1225" rx="4" ry="4" height="656.2847" stroke="none"/>
      <rect x="480" y="176.3247" clip-path="url(#clipPath2)" fill="rgb(235,235,235)" width="1225" height="22.3765" stroke="none"/>
    </g>
    <g font-size="15px" stroke-linecap="butt" transform="matrix(1,0,0,1,15,33)" text-rendering="geometricPrecision" font-family="sans-serif" shape-rendering="geometricPrecision" stroke-miterlimit="1.45">
      <text x="1587.9438" xml:space="preserve" y="193.4053" clip-path="url(#clipPath2)" stroke="none">Digital signatures</text>
      <rect x="480" y="176.3247" clip-path="url(#clipPath2)" fill="none" width="1225" stroke-dasharray="6,2" rx="4" ry="4" height="656.2847"/>
      <path fill="none" d="M422.6647 120.0176 L422.6647 170 L500.5 170 L502.397 176.3265" clip-path="url(#clipPath2)"/>
      <path d="M502.397 176.3265 L503.7398 163.396 L499.8121 167.7057 L494.1611 166.2682 Z" stroke="none" clip-path="url(#clipPath2)"/>
      <text x="476.0947" xml:space="preserve" font-size="12px" y="177.8762" clip-path="url(#clipPath2)" stroke="none">Sign data</text>
    </g>
    <g fill="rgb(225,225,225)" text-rendering="geometricPrecision" shape-rendering="geometricPrecision" transform="matrix(1,0,0,1,15,33)" stroke="rgb(225,225,225)">
      <rect x="495" y="725.2329" clip-path="url(#clipPath2)" width="510" rx="4" ry="4" height="92.3765" stroke="none"/>
      <rect x="495" y="725.2329" clip-path="url(#clipPath2)" fill="rgb(235,235,235)" width="510" height="22.3765" stroke="none"/>
    </g>
    <g font-size="15px" stroke-linecap="butt" transform="matrix(1,0,0,1,15,33)" text-rendering="geometricPrecision" font-family="sans-serif" shape-rendering="geometricPrecision" stroke-miterlimit="1.45">
      <text x="796.2007" xml:space="preserve" y="742.3135" clip-path="url(#clipPath2)" stroke="none">Stateful hash-based signatures</text>
      <rect x="495" y="725.2329" clip-path="url(#clipPath2)" fill="none" width="510" stroke-dasharray="6,2" rx="4" ry="4" height="92.3765"/>
    </g>
    <g fill="url(#linearGradient6)" text-rendering="geometricPrecision" shape-rendering="geometricPrecision" transform="matrix(1,0,0,1,15,33)" stroke="url(#linearGradient6)">
      <rect x="850" y="762.6094" clip-path="url(#clipPath2)" width="140" rx="20" ry="20" height="40" stroke="none"/>
    </g>
    <g text-rendering="geometricPrecision" stroke-miterlimit="1.45" shape-rendering="geometricPrecision" transform="matrix(1,0,0,1,15,33)" stroke-linecap="butt">
      <rect x="850" y="762.6094" clip-path="url(#clipPath2)" fill="none" width="140" rx="20" ry="20" height="40"/>
      <text x="907.6631" xml:space="preserve" y="787.3232" clip-path="url(#clipPath2)" font-family="sans-serif" stroke="none">LMS</text>
    </g>
    <g fill="url(#linearGradient7)" text-rendering="geometricPrecision" shape-rendering="geometricPrecision" transform="matrix(1,0,0,1,15,33)" stroke="url(#linearGradient7)">
      <rect x="680" y="762.6094" clip-path="url(#clipPath2)" width="140" rx="20" ry="20" height="40" stroke="none"/>
    </g>
    <g text-rendering="geometricPrecision" stroke-miterlimit="1.45" shape-rendering="geometricPrecision" transform="matrix(1,0,0,1,15,33)" stroke-linecap="butt">
      <rect x="680" y="762.6094" clip-path="url(#clipPath2)" fill="none" width="140" rx="20" ry="20" height="40"/>
      <text x="732.9961" xml:space="preserve" y="787.3232" clip-path="url(#clipPath2)" font-family="sans-serif" stroke="none">XMSS</text>
    </g>
    <g fill="url(#linearGradient8)" text-rendering="geometricPrecision" shape-rendering="geometricPrecision" transform="matrix(1,0,0,1,15,33)" stroke="url(#linearGradient8)">
      <rect x="510" y="762.6094" clip-path="url(#clipPath2)" width="140" rx="20" ry="20" height="40" stroke="none"/>
    </g>
    <g text-rendering="geometricPrecision" stroke-miterlimit="1.45" shape-rendering="geometricPrecision" transform="matrix(1,0,0,1,15,33)" stroke-linecap="butt">
      <rect x="510" y="762.6094" clip-path="url(#clipPath2)" fill="none" width="140" rx="20" ry="20" height="40"/>
      <text x="567.6631" xml:space="preserve" y="787.3232" clip-path="url(#clipPath2)" font-family="sans-serif" stroke="none">HSS</text>
    </g>
    <g fill="rgb(225,225,225)" text-rendering="geometricPrecision" shape-rendering="geometricPrecision" transform="matrix(1,0,0,1,15,33)" stroke="rgb(225,225,225)">
      <rect x="1035" y="520.1035" clip-path="url(#clipPath2)" width="637" rx="4" ry="4" height="297.5059" stroke="none"/>
      <rect x="1035" y="520.1035" clip-path="url(#clipPath2)" fill="rgb(235,235,235)" width="637" height="22.3765" stroke="none"/>
    </g>
    <g font-size="15px" stroke-linecap="butt" transform="matrix(1,0,0,1,15,33)" text-rendering="geometricPrecision" font-family="sans-serif" shape-rendering="geometricPrecision" stroke-miterlimit="1.45">
      <text x="1491.5674" xml:space="preserve" y="537.1841" clip-path="url(#clipPath2)" stroke="none">Stateless digital signatures</text>
      <rect x="1035" y="520.1035" clip-path="url(#clipPath2)" fill="none" width="637" stroke-dasharray="6,2" rx="4" ry="4" height="297.5059"/>
    </g>
    <g fill="url(#linearGradient9)" text-rendering="geometricPrecision" shape-rendering="geometricPrecision" transform="matrix(1,0,0,1,15,33)" stroke="url(#linearGradient9)">
      <rect x="1517" y="559.1812" clip-path="url(#clipPath2)" width="140" rx="20" ry="20" height="40" stroke="none"/>
    </g>
    <g text-rendering="geometricPrecision" stroke-miterlimit="1.45" shape-rendering="geometricPrecision" transform="matrix(1,0,0,1,15,33)" stroke-linecap="butt">
      <rect x="1517" y="559.1812" clip-path="url(#clipPath2)" fill="none" width="140" rx="20" ry="20" height="40"/>
      <text x="1563.9961" xml:space="preserve" y="583.895" clip-path="url(#clipPath2)" font-family="sans-serif" stroke="none">Dilithium</text>
    </g>
    <g fill="url(#linearGradient10)" text-rendering="geometricPrecision" shape-rendering="geometricPrecision" transform="matrix(1,0,0,1,15,33)" stroke="url(#linearGradient10)">
      <rect x="1097" y="762.6094" clip-path="url(#clipPath2)" width="140" rx="20" ry="20" height="40" stroke="none"/>
    </g>
    <g text-rendering="geometricPrecision" stroke-miterlimit="1.45" shape-rendering="geometricPrecision" transform="matrix(1,0,0,1,15,33)" stroke-linecap="butt">
      <rect x="1097" y="762.6094" clip-path="url(#clipPath2)" fill="none" width="140" rx="20" ry="20" height="40"/>
      <text x="1148.9912" xml:space="preserve" y="787.3232" clip-path="url(#clipPath2)" font-family="sans-serif" stroke="none">Falcon</text>
    </g>
    <g fill="url(#linearGradient11)" text-rendering="geometricPrecision" shape-rendering="geometricPrecision" transform="matrix(1,0,0,1,15,33)" stroke="url(#linearGradient11)">
      <rect x="1347" y="559.1812" clip-path="url(#clipPath2)" width="140" rx="20" ry="20" height="40" stroke="none"/>
    </g>
    <g text-rendering="geometricPrecision" stroke-miterlimit="1.45" shape-rendering="geometricPrecision" transform="matrix(1,0,0,1,15,33)" stroke-linecap="butt">
      <rect x="1347" y="559.1812" clip-path="url(#clipPath2)" fill="none" width="140" rx="20" ry="20" height="40"/>
      <text x="1392.1504" xml:space="preserve" y="583.895" clip-path="url(#clipPath2)" font-family="sans-serif" stroke="none">Sphincs+</text>
    </g>
    <g fill="rgb(255,204,0)" text-rendering="geometricPrecision" shape-rendering="geometricPrecision" transform="matrix(1,0,0,1,15,33)" stroke="rgb(255,204,0)">
      <path d="M829 579.1812 L917 499.1812 L1005 579.1812 L917 659.1812 Z" fill-rule="evenodd" clip-path="url(#clipPath2)" stroke="none"/>
    </g>
    <g text-rendering="geometricPrecision" stroke-miterlimit="1.45" shape-rendering="geometricPrecision" transform="matrix(1,0,0,1,15,33)" stroke-linecap="butt">
      <path fill="none" d="M829 579.1812 L917 499.1812 L1005 579.1812 L917 659.1812 Z" fill-rule="evenodd" clip-path="url(#clipPath2)"/>
      <text x="882.3125" xml:space="preserve" y="569.1938" clip-path="url(#clipPath2)" font-family="sans-serif" stroke="none">Does signing</text>
      <text x="900.6523" xml:space="preserve" y="583.895" clip-path="url(#clipPath2)" font-family="sans-serif" stroke="none">speed</text>
      <text x="896.6592" xml:space="preserve" y="598.5962" clip-path="url(#clipPath2)" font-family="sans-serif" stroke="none">matter?</text>
    </g>
    <g fill="rgb(255,204,0)" text-rendering="geometricPrecision" shape-rendering="geometricPrecision" transform="matrix(1,0,0,1,15,33)" stroke="rgb(255,204,0)">
      <path d="M559.8323 331.0776 L647.8323 251.0776 L735.8323 331.0776 L647.8323 411.0776 Z" fill-rule="evenodd" clip-path="url(#clipPath2)" stroke="none"/>
    </g>
    <g text-rendering="geometricPrecision" stroke-miterlimit="1.45" shape-rendering="geometricPrecision" transform="matrix(1,0,0,1,15,33)" stroke-linecap="butt">
      <path fill="none" d="M559.8323 331.0776 L647.8323 251.0776 L735.8323 331.0776 L647.8323 411.0776 Z" fill-rule="evenodd" clip-path="url(#clipPath2)"/>
      <text x="597.8079" xml:space="preserve" y="328.4409" clip-path="url(#clipPath2)" font-family="sans-serif" stroke="none">Must deploy ASAP</text>
      <text x="606.1429" xml:space="preserve" y="343.1421" clip-path="url(#clipPath2)" font-family="sans-serif" stroke="none">long-lived EEs?</text>
    </g>
    <g fill="url(#linearGradient12)" text-rendering="geometricPrecision" shape-rendering="geometricPrecision" transform="matrix(1,0,0,1,15,33)" stroke="url(#linearGradient12)">
      <path d="M683.1494 566.8435 L723.1494 566.8435 L723.1494 586.8435 L703.1494 606.8435 L683.1494 586.8435 Z" stroke="none" clip-path="url(#clipPath2)"/>
    </g>
    <g text-rendering="geometricPrecision" stroke-miterlimit="1.45" shape-rendering="geometricPrecision" transform="matrix(1,0,0,1,15,33)" stroke-linecap="butt">
      <path fill="none" d="M683.1494 566.8435 L723.1494 566.8435 L723.1494 586.8435 L703.1494 606.8435 L683.1494 586.8435 Z" clip-path="url(#clipPath2)"/>
    </g>
    <g text-rendering="geometricPrecision" stroke-miterlimit="1.45" shape-rendering="geometricPrecision" transform="matrix(1,0,0,1,15,33)" stroke-linecap="butt">
      <path fill="none" d="M873 619.2124 L873 717.207" clip-path="url(#clipPath2)"/>
      <path d="M873 725.207 L878 713.207 L873 716.207 L868 713.207 Z" clip-path="url(#clipPath2)" stroke="none"/>
      <text x="863.6631" xml:space="preserve" y="693.2456" clip-path="url(#clipPath2)" font-family="sans-serif" stroke="none">No,</text>
      <text x="851.1562" xml:space="preserve" y="707.9468" clip-path="url(#clipPath2)" font-family="sans-serif" stroke="none">slow=ok</text>
      <path fill="none" d="M961 619.1968 L961 715.2329 L1120.3334 715.2329 L1120.3334 754.5631" clip-path="url(#clipPath2)"/>
      <path d="M1120.3334 762.5631 L1125.3334 750.5631 L1120.3334 753.5631 L1115.3334 750.5631 Z" clip-path="url(#clipPath2)" stroke="none"/>
      <text x="919.9814" xml:space="preserve" y="700.5962" clip-path="url(#clipPath2)" font-family="sans-serif" stroke="none">Fast signatures</text>
      <path fill="none" d="M662.2896 397.9227 L697.1389 559.0529" clip-path="url(#clipPath2)"/>
      <path d="M698.83 566.8721 L701.1803 554.0864 L696.9275 558.0755 L691.4062 556.2003 Z" clip-path="url(#clipPath2)" stroke="none"/>
      <text x="663.3025" xml:space="preserve" y="486.3239" clip-path="url(#clipPath2)" font-family="sans-serif" stroke="none">Deploy</text>
      <text x="665.9714" xml:space="preserve" y="501.025" clip-path="url(#clipPath2)" font-family="sans-serif" stroke="none">ASAP</text>
      <path fill="none" d="M707.004 602.9502 L743.3619 754.8718" clip-path="url(#clipPath2)"/>
      <path d="M745.2238 762.6522 L747.2936 749.818 L743.1292 753.8993 L737.5682 752.1454 Z" clip-path="url(#clipPath2)" stroke="none"/>
      <path fill="none" d="M713.6584 596.3307 L891.9214 757.2609" clip-path="url(#clipPath2)"/>
      <path d="M897.8596 762.6217 L892.3028 750.8691 L891.1791 756.5908 L885.6018 758.2919 Z" clip-path="url(#clipPath2)" stroke="none"/>
    </g>
    <g fill="rgb(225,225,225)" text-rendering="geometricPrecision" shape-rendering="geometricPrecision" transform="matrix(1,0,0,1,15,33)" stroke="rgb(225,225,225)">
      <rect x="858" y="213.7012" clip-path="url(#clipPath2)" width="832" rx="4" ry="4" height="212.3765" stroke="none"/>
      <rect x="858" y="213.7012" clip-path="url(#clipPath2)" fill="rgb(235,235,235)" width="832" height="22.3765" stroke="none"/>
    </g>
    <g font-size="15px" stroke-linecap="butt" transform="matrix(1,0,0,1,15,33)" text-rendering="geometricPrecision" font-family="sans-serif" shape-rendering="geometricPrecision" stroke-miterlimit="1.45">
      <text x="1633.8008" xml:space="preserve" y="230.7817" clip-path="url(#clipPath2)" stroke="none">Group 5</text>
      <rect x="858" y="213.7012" clip-path="url(#clipPath2)" fill="none" width="832" stroke-dasharray="6,2" rx="4" ry="4" height="212.3765"/>
    </g>
    <g fill="rgb(255,204,0)" text-rendering="geometricPrecision" shape-rendering="geometricPrecision" transform="matrix(1,0,0,1,15,33)" stroke="rgb(255,204,0)">
      <path d="M1079 331.0776 L1167 251.0776 L1255 331.0776 L1167 411.0776 Z" fill-rule="evenodd" clip-path="url(#clipPath2)" stroke="none"/>
    </g>
    <g text-rendering="geometricPrecision" stroke-miterlimit="1.45" shape-rendering="geometricPrecision" transform="matrix(1,0,0,1,15,33)" stroke-linecap="butt">
      <path fill="none" d="M1079 331.0776 L1167 251.0776 L1255 331.0776 L1167 411.0776 Z" fill-rule="evenodd" clip-path="url(#clipPath2)"/>
      <text x="1111.9658" xml:space="preserve" y="328.4409" clip-path="url(#clipPath2)" font-family="sans-serif" stroke="none">Does key generation</text>
      <text x="1128.6445" xml:space="preserve" y="343.1421" clip-path="url(#clipPath2)" font-family="sans-serif" stroke="none">speed matter?</text>
    </g>
    <g fill="rgb(255,204,0)" text-rendering="geometricPrecision" shape-rendering="geometricPrecision" transform="matrix(1,0,0,1,15,33)" stroke="rgb(255,204,0)">
      <path d="M873 331.0776 L961 251.0776 L1049 331.0776 L961 411.0776 Z" fill-rule="evenodd" clip-path="url(#clipPath2)" stroke="none"/>
    </g>
    <g text-rendering="geometricPrecision" stroke-miterlimit="1.45" shape-rendering="geometricPrecision" transform="matrix(1,0,0,1,15,33)" stroke-linecap="butt">
      <path fill="none" d="M873 331.0776 L961 251.0776 L1049 331.0776 L961 411.0776 Z" fill-rule="evenodd" clip-path="url(#clipPath2)"/>
      <text x="917.6436" xml:space="preserve" y="321.0903" clip-path="url(#clipPath2)" font-family="sans-serif" stroke="none">Is the number of</text>
      <text x="914.3125" xml:space="preserve" y="335.7915" clip-path="url(#clipPath2)" font-family="sans-serif" stroke="none">signatures limited</text>
      <text x="897.9531" xml:space="preserve" y="350.4927" clip-path="url(#clipPath2)" font-family="sans-serif" stroke="none">and known in advance?</text>
    </g>
    <g fill="rgb(255,204,0)" text-rendering="geometricPrecision" shape-rendering="geometricPrecision" transform="matrix(1,0,0,1,15,33)" stroke="rgb(255,204,0)">
      <path d="M1285 331.0776 L1373 251.0776 L1461 331.0776 L1373 411.0776 Z" fill-rule="evenodd" clip-path="url(#clipPath2)" stroke="none"/>
    </g>
    <g text-rendering="geometricPrecision" stroke-miterlimit="1.45" shape-rendering="geometricPrecision" transform="matrix(1,0,0,1,15,33)" stroke-linecap="butt">
      <path fill="none" d="M1285 331.0776 L1373 251.0776 L1461 331.0776 L1373 411.0776 Z" fill-rule="evenodd" clip-path="url(#clipPath2)"/>
      <text x="1321.3115" xml:space="preserve" y="328.4409" clip-path="url(#clipPath2)" font-family="sans-serif" stroke="none">Is a small signature</text>
      <text x="1332.3154" xml:space="preserve" y="343.1421" clip-path="url(#clipPath2)" font-family="sans-serif" stroke="none">size important?</text>
    </g>
    <g fill="rgb(255,204,0)" text-rendering="geometricPrecision" shape-rendering="geometricPrecision" transform="matrix(1,0,0,1,15,33)" stroke="rgb(255,204,0)">
      <path d="M1499 331.0776 L1587 251.0776 L1675 331.0776 L1587 411.0776 Z" fill-rule="evenodd" clip-path="url(#clipPath2)" stroke="none"/>
    </g>
    <g text-rendering="geometricPrecision" stroke-miterlimit="1.45" shape-rendering="geometricPrecision" transform="matrix(1,0,0,1,15,33)" stroke-linecap="butt">
      <path fill="none" d="M1499 331.0776 L1587 251.0776 L1675 331.0776 L1587 411.0776 Z" fill-rule="evenodd" clip-path="url(#clipPath2)"/>
      <text x="1546.6406" xml:space="preserve" y="313.7397" clip-path="url(#clipPath2)" font-family="sans-serif" stroke="none">Do you have to</text>
      <text x="1555.6582" xml:space="preserve" y="328.4409" clip-path="url(#clipPath2)" font-family="sans-serif" stroke="none">comply with</text>
      <text x="1565.6514" xml:space="preserve" y="343.1421" clip-path="url(#clipPath2)" font-family="sans-serif" stroke="none">regional</text>
      <text x="1554.3105" xml:space="preserve" y="357.8433" clip-path="url(#clipPath2)" font-family="sans-serif" stroke="none">regulations?</text>
      <path fill="none" d="M734.1674 329.535 L850.0231 327.4649" clip-path="url(#clipPath2)"/>
      <path d="M858.0218 327.322 L845.9344 322.5372 L849.0233 327.4828 L846.113 332.5356 Z" clip-path="url(#clipPath2)" stroke="none"/>
      <text x="738.6923" xml:space="preserve" y="322.9966" clip-path="url(#clipPath2)" font-family="sans-serif" stroke="none">No rush</text>
      <path fill="none" d="M1167 411.0776 L1167 754.5665" clip-path="url(#clipPath2)"/>
      <path d="M1167 762.5665 L1172 750.5665 L1167 753.5665 L1162 750.5665 Z" clip-path="url(#clipPath2)" stroke="none"/>
      <text x="1123.9717" xml:space="preserve" y="588.895" clip-path="url(#clipPath2)" font-family="sans-serif" stroke="none">Slow generation</text>
      <path fill="none" d="M917 371.1089 L917 491.1812" clip-path="url(#clipPath2)"/>
      <path d="M917 499.1812 L922 487.1812 L917 490.1812 L912 487.1812 Z" clip-path="url(#clipPath2)" stroke="none"/>
      <text x="905.9961" xml:space="preserve" y="455.1421" clip-path="url(#clipPath2)" font-family="sans-serif" stroke="none">yes,</text>
      <text x="899.6621" xml:space="preserve" y="469.8433" clip-path="url(#clipPath2)" font-family="sans-serif" stroke="none">limited</text>
      <text x="893.3193" xml:space="preserve" y="484.5444" clip-path="url(#clipPath2)" font-family="sans-serif" stroke="none">sigCount</text>
      <path fill="none" d="M1005 371.0952 L1005 421.0776 L1055.5 421.0776 L1055.5 512.0552" clip-path="url(#clipPath2)"/>
      <path d="M1055.5 520.0552 L1060.5 508.0552 L1055.5 511.0552 L1050.5 508.0552 Z" clip-path="url(#clipPath2)" stroke="none"/>
      <text x="1046.1631" xml:space="preserve" y="455.1421" clip-path="url(#clipPath2)" font-family="sans-serif" stroke="none">No,</text>
      <text x="1031.4883" xml:space="preserve" y="469.8433" clip-path="url(#clipPath2)" font-family="sans-serif" stroke="none">unlimited</text>
      <text x="1031.8193" xml:space="preserve" y="484.5444" clip-path="url(#clipPath2)" font-family="sans-serif" stroke="none">sigCount</text>
      <path fill="none" d="M1329 371.1089 L1329 421.0776 L1315.6592 421.0776 L1315.6592 700.8823 L1213.6666 700.8823 L1213.6666 754.5792" clip-path="url(#clipPath2)"/>
      <path d="M1213.6666 762.5792 L1218.6666 750.5792 L1213.6666 753.5792 L1208.6666 750.5792 Z" clip-path="url(#clipPath2)" stroke="none"/>
      <text x="1301.3184" xml:space="preserve" y="581.5444" clip-path="url(#clipPath2)" font-family="sans-serif" stroke="none">Short</text>
      <text x="1304.9893" xml:space="preserve" y="596.2456" clip-path="url(#clipPath2)" font-family="sans-serif" stroke="none">sigs</text>
      <path fill="none" d="M1417 371.0923 L1417 551.1353" clip-path="url(#clipPath2)"/>
      <path d="M1417 559.1353 L1422 547.1353 L1417 550.1353 L1412 547.1353 Z" clip-path="url(#clipPath2)" stroke="none"/>
      <text x="1403.6523" xml:space="preserve" y="462.4927" clip-path="url(#clipPath2)" font-family="sans-serif" stroke="none">Long</text>
      <text x="1406.3301" xml:space="preserve" y="477.1938" clip-path="url(#clipPath2)" font-family="sans-serif" stroke="none">sigs</text>
      <path fill="none" d="M1587 411.0776 L1587 551.145" clip-path="url(#clipPath2)"/>
      <path d="M1587 559.145 L1592 547.145 L1587 550.145 L1582 547.145 Z" clip-path="url(#clipPath2)" stroke="none"/>
      <text x="1572.9961" xml:space="preserve" y="462.4927" clip-path="url(#clipPath2)" font-family="sans-serif" stroke="none">USA,</text>
      <text x="1561.9863" xml:space="preserve" y="477.1938" clip-path="url(#clipPath2)" font-family="sans-serif" stroke="none">FIPS 204</text>
    </g>
  </g>
</svg>
