<?xml version="1.0" encoding="UTF-8"?><svg xmlns="http://www.w3.org/2000/svg" xmlns:xlink="http://www.w3.org/1999/xlink" fill-opacity="1" color-rendering="auto" color-interpolation="auto" text-rendering="auto" stroke="black" stroke-linecap="square" width="1105" stroke-miterlimit="10" shape-rendering="auto" stroke-opacity="1" fill="black" stroke-dasharray="none" font-weight="normal" stroke-width="1" height="918" font-family="'Dialog'" font-style="normal" stroke-linejoin="miter" font-size="12px" stroke-dashoffset="0" image-rendering="auto">
  <!--Generated by ySVG 2.6-->
  <defs id="genericDefs"/>
  <g>
    <defs id="defs1">
      <linearGradient x1="828.7909" gradientUnits="userSpaceOnUse" x2="946.7909" y1="828.2296" y2="887.2296" id="linearGradient1" spreadMethod="reflect">
        <stop stop-opacity="1" stop-color="rgb(232,238,247)" offset="0%"/>
        <stop stop-opacity="1" stop-color="rgb(183,201,227)" offset="100%"/>
      </linearGradient>
      <linearGradient x1="422.7909" gradientUnits="userSpaceOnUse" x2="540.7909" y1="828.2296" y2="887.2296" id="linearGradient2" spreadMethod="reflect">
        <stop stop-opacity="1" stop-color="rgb(232,238,247)" offset="0%"/>
        <stop stop-opacity="1" stop-color="rgb(183,201,227)" offset="100%"/>
      </linearGradient>
      <linearGradient x1="718.7909" gradientUnits="userSpaceOnUse" x2="821.2909" y1="671.7296" y2="749.2296" id="linearGradient3" spreadMethod="reflect">
        <stop stop-opacity="1" stop-color="rgb(232,238,247)" offset="0%"/>
        <stop stop-opacity="1" stop-color="rgb(183,201,227)" offset="100%"/>
      </linearGradient>
      <linearGradient x1="983.7909" gradientUnits="userSpaceOnUse" x2="1086.2909" y1="671.7296" y2="749.2296" id="linearGradient4" spreadMethod="reflect">
        <stop stop-opacity="1" stop-color="rgb(232,238,247)" offset="0%"/>
        <stop stop-opacity="1" stop-color="rgb(183,201,227)" offset="100%"/>
      </linearGradient>
      <linearGradient x1="851.2909" gradientUnits="userSpaceOnUse" x2="953.7909" y1="671.7296" y2="749.2296" id="linearGradient5" spreadMethod="reflect">
        <stop stop-opacity="1" stop-color="rgb(232,238,247)" offset="0%"/>
        <stop stop-opacity="1" stop-color="rgb(183,201,227)" offset="100%"/>
      </linearGradient>
      <linearGradient x1="139.1659" gradientUnits="userSpaceOnUse" x2="257.1659" y1="828.2296" y2="887.2296" id="linearGradient6" spreadMethod="reflect">
        <stop stop-opacity="1" stop-color="rgb(232,238,247)" offset="0%"/>
        <stop stop-opacity="1" stop-color="rgb(183,201,227)" offset="100%"/>
      </linearGradient>
      <linearGradient x1="976.7909" gradientUnits="userSpaceOnUse" x2="1094.7909" y1="828.2296" y2="887.2296" id="linearGradient7" spreadMethod="reflect">
        <stop stop-opacity="1" stop-color="rgb(232,238,247)" offset="0%"/>
        <stop stop-opacity="1" stop-color="rgb(183,201,227)" offset="100%"/>
      </linearGradient>
      <linearGradient x1="570.7909" gradientUnits="userSpaceOnUse" x2="688.7909" y1="828.2296" y2="887.2296" id="linearGradient8" spreadMethod="reflect">
        <stop stop-opacity="1" stop-color="rgb(232,238,247)" offset="0%"/>
        <stop stop-opacity="1" stop-color="rgb(183,201,227)" offset="100%"/>
      </linearGradient>
      <linearGradient x1="25.2909" gradientUnits="userSpaceOnUse" x2="127.7909" y1="671.7296" y2="749.2296" id="linearGradient9" spreadMethod="reflect">
        <stop stop-opacity="1" stop-color="rgb(232,238,247)" offset="0%"/>
        <stop stop-opacity="1" stop-color="rgb(183,201,227)" offset="100%"/>
      </linearGradient>
      <linearGradient x1="290.2909" gradientUnits="userSpaceOnUse" x2="392.7909" y1="671.7296" y2="749.2296" id="linearGradient10" spreadMethod="reflect">
        <stop stop-opacity="1" stop-color="rgb(232,238,247)" offset="0%"/>
        <stop stop-opacity="1" stop-color="rgb(183,201,227)" offset="100%"/>
      </linearGradient>
      <linearGradient x1="157.7909" gradientUnits="userSpaceOnUse" x2="260.2909" y1="671.7296" y2="749.2296" id="linearGradient11" spreadMethod="reflect">
        <stop stop-opacity="1" stop-color="rgb(232,238,247)" offset="0%"/>
        <stop stop-opacity="1" stop-color="rgb(183,201,227)" offset="100%"/>
      </linearGradient>
      <clipPath clipPathUnits="userSpaceOnUse" id="clipPath1">
        <path d="M0 0 L1105 0 L1105 918 L0 918 L0 0 Z"/>
      </clipPath>
      <clipPath clipPathUnits="userSpaceOnUse" id="clipPath2">
        <path d="M5 -15 L1110 -15 L1110 903 L5 903 L5 -15 Z"/>
      </clipPath>
    </defs>
    <g fill="white" text-rendering="geometricPrecision" shape-rendering="geometricPrecision" transform="translate(-5,15)" stroke="white">
      <rect x="5" width="1105" height="918" y="-15" clip-path="url(#clipPath2)" stroke="none"/>
    </g>
    <g fill="rgb(255,204,0)" text-rendering="geometricPrecision" shape-rendering="geometricPrecision" transform="matrix(1,0,0,1,-5,15)" stroke="rgb(255,204,0)">
      <path d="M488.1238 67.1216 L555.2452 0 L622.3669 67.1216 L555.2452 134.2432 Z" fill-rule="evenodd" clip-path="url(#clipPath2)" stroke="none"/>
    </g>
    <g text-rendering="geometricPrecision" stroke-miterlimit="1.45" shape-rendering="geometricPrecision" transform="matrix(1,0,0,1,-5,15)" stroke-linecap="butt">
      <path fill="none" d="M488.1238 67.1216 L555.2452 0 L622.3669 67.1216 L555.2452 134.2432 Z" fill-rule="evenodd" clip-path="url(#clipPath2)"/>
      <text x="509.5626" xml:space="preserve" y="71.8355" clip-path="url(#clipPath2)" font-family="sans-serif" stroke="none">Use case lifetime</text>
    </g>
    <g fill="rgb(255,204,0)" text-rendering="geometricPrecision" shape-rendering="geometricPrecision" transform="matrix(1,0,0,1,-5,15)" stroke="rgb(255,204,0)">
      <path d="M792.0038 232.3647 L859.1255 165.2432 L926.2471 232.3647 L859.1255 299.4864 Z" fill-rule="evenodd" clip-path="url(#clipPath2)" stroke="none"/>
    </g>
    <g text-rendering="geometricPrecision" stroke-miterlimit="1.45" shape-rendering="geometricPrecision" transform="matrix(1,0,0,1,-5,15)" stroke-linecap="butt">
      <path fill="none" d="M792.0038 232.3647 L859.1255 165.2432 L926.2471 232.3647 L859.1255 299.4864 Z" fill-rule="evenodd" clip-path="url(#clipPath2)"/>
      <text x="839.1157" xml:space="preserve" y="229.7281" clip-path="url(#clipPath2)" font-family="sans-serif" stroke="none">Type of</text>
      <text x="816.7651" xml:space="preserve" y="244.4293" clip-path="url(#clipPath2)" font-family="sans-serif" stroke="none">protocol in use?</text>
    </g>
    <g fill="rgb(255,204,0)" text-rendering="geometricPrecision" shape-rendering="geometricPrecision" transform="matrix(1,0,0,1,-5,15)" stroke="rgb(255,204,0)">
      <path d="M792.0039 397.6078 L859.1255 330.4862 L926.2471 397.6078 L859.1255 464.7294 Z" fill-rule="evenodd" clip-path="url(#clipPath2)" stroke="none"/>
    </g>
    <g text-rendering="geometricPrecision" stroke-miterlimit="1.45" shape-rendering="geometricPrecision" transform="matrix(1,0,0,1,-5,15)" stroke-linecap="butt">
      <path fill="none" d="M792.0039 397.6078 L859.1255 330.4862 L926.2471 397.6078 L859.1255 464.7294 Z" fill-rule="evenodd" clip-path="url(#clipPath2)"/>
      <text x="835.1137" xml:space="preserve" y="387.6207" clip-path="url(#clipPath2)" font-family="sans-serif" stroke="none">Requires</text>
      <text x="833.4467" xml:space="preserve" y="402.3219" clip-path="url(#clipPath2)" font-family="sans-serif" stroke="none">backward</text>
      <text x="822.7768" xml:space="preserve" y="417.023" clip-path="url(#clipPath2)" font-family="sans-serif" stroke="none">compatibility?</text>
    </g>
    <g fill="rgb(255,204,0)" text-rendering="geometricPrecision" shape-rendering="geometricPrecision" transform="matrix(1,0,0,1,-5,15)" stroke="rgb(255,204,0)">
      <path d="M627.7605 397.6081 L694.8821 330.4865 L762.0037 397.6081 L694.8821 464.7298 Z" fill-rule="evenodd" clip-path="url(#clipPath2)" stroke="none"/>
    </g>
    <g text-rendering="geometricPrecision" stroke-miterlimit="1.45" shape-rendering="geometricPrecision" transform="matrix(1,0,0,1,-5,15)" stroke-linecap="butt">
      <path fill="none" d="M627.7605 397.6081 L694.8821 330.4865 L762.0037 397.6081 L694.8821 464.7298 Z" fill-rule="evenodd" clip-path="url(#clipPath2)"/>
      <text x="670.8704" xml:space="preserve" y="387.6207" clip-path="url(#clipPath2)" font-family="sans-serif" stroke="none">Requires</text>
      <text x="669.2034" xml:space="preserve" y="402.3219" clip-path="url(#clipPath2)" font-family="sans-serif" stroke="none">backward</text>
      <text x="658.5335" xml:space="preserve" y="417.023" clip-path="url(#clipPath2)" font-family="sans-serif" stroke="none">compatibility?</text>
    </g>
    <g fill="rgb(255,204,0)" text-rendering="geometricPrecision" shape-rendering="geometricPrecision" transform="matrix(1,0,0,1,-5,15)" stroke="rgb(255,204,0)">
      <path d="M956.2471 397.6081 L1023.3687 330.4864 L1090.4901 397.6081 L1023.3687 464.7297 Z" fill-rule="evenodd" clip-path="url(#clipPath2)" stroke="none"/>
    </g>
    <g text-rendering="geometricPrecision" stroke-miterlimit="1.45" shape-rendering="geometricPrecision" transform="matrix(1,0,0,1,-5,15)" stroke-linecap="butt">
      <path fill="none" d="M956.2471 397.6081 L1023.3687 330.4864 L1090.4901 397.6081 L1023.3687 464.7297 Z" fill-rule="evenodd" clip-path="url(#clipPath2)"/>
      <text x="999.3569" xml:space="preserve" y="387.6207" clip-path="url(#clipPath2)" font-family="sans-serif" stroke="none">Requires</text>
      <text x="997.6899" xml:space="preserve" y="402.3219" clip-path="url(#clipPath2)" font-family="sans-serif" stroke="none">backward</text>
      <text x="987.02" xml:space="preserve" y="417.023" clip-path="url(#clipPath2)" font-family="sans-serif" stroke="none">compatibility?</text>
    </g>
    <g fill="rgb(255,204,0)" text-rendering="geometricPrecision" shape-rendering="geometricPrecision" transform="matrix(1,0,0,1,-5,15)" stroke="rgb(255,204,0)">
      <path d="M184.2437 232.3647 L251.3654 165.2431 L318.487 232.3647 L251.3654 299.4863 Z" fill-rule="evenodd" clip-path="url(#clipPath2)" stroke="none"/>
    </g>
    <g text-rendering="geometricPrecision" stroke-miterlimit="1.45" shape-rendering="geometricPrecision" transform="matrix(1,0,0,1,-5,15)" stroke-linecap="butt">
      <path fill="none" d="M184.2437 232.3647 L251.3654 165.2431 L318.487 232.3647 L251.3654 299.4863 Z" fill-rule="evenodd" clip-path="url(#clipPath2)"/>
      <text x="231.3553" xml:space="preserve" y="229.7281" clip-path="url(#clipPath2)" font-family="sans-serif" stroke="none">Type of</text>
      <text x="209.0047" xml:space="preserve" y="244.4293" clip-path="url(#clipPath2)" font-family="sans-serif" stroke="none">protocol in use?</text>
    </g>
    <g fill="rgb(255,204,0)" text-rendering="geometricPrecision" shape-rendering="geometricPrecision" transform="matrix(1,0,0,1,-5,15)" stroke="rgb(255,204,0)">
      <path d="M348.4867 397.608 L415.6081 330.4863 L482.7299 397.608 L415.6081 464.7295 Z" fill-rule="evenodd" clip-path="url(#clipPath2)" stroke="none"/>
    </g>
    <g text-rendering="geometricPrecision" stroke-miterlimit="1.45" shape-rendering="geometricPrecision" transform="matrix(1,0,0,1,-5,15)" stroke-linecap="butt">
      <path fill="none" d="M348.4867 397.608 L415.6081 330.4863 L482.7299 397.608 L415.6081 464.7295 Z" fill-rule="evenodd" clip-path="url(#clipPath2)"/>
      <text x="391.5966" xml:space="preserve" y="387.6207" clip-path="url(#clipPath2)" font-family="sans-serif" stroke="none">Requires</text>
      <text x="389.9296" xml:space="preserve" y="402.3219" clip-path="url(#clipPath2)" font-family="sans-serif" stroke="none">backward</text>
      <text x="379.2597" xml:space="preserve" y="417.023" clip-path="url(#clipPath2)" font-family="sans-serif" stroke="none">compatibility?</text>
    </g>
    <g fill="rgb(255,204,0)" text-rendering="geometricPrecision" shape-rendering="geometricPrecision" transform="matrix(1,0,0,1,-5,15)" stroke="rgb(255,204,0)">
      <path d="M184.2433 397.6081 L251.3649 330.4866 L318.4865 397.6081 L251.3649 464.7297 Z" fill-rule="evenodd" clip-path="url(#clipPath2)" stroke="none"/>
    </g>
    <g text-rendering="geometricPrecision" stroke-miterlimit="1.45" shape-rendering="geometricPrecision" transform="matrix(1,0,0,1,-5,15)" stroke-linecap="butt">
      <path fill="none" d="M184.2433 397.6081 L251.3649 330.4866 L318.4865 397.6081 L251.3649 464.7297 Z" fill-rule="evenodd" clip-path="url(#clipPath2)"/>
      <text x="227.3534" xml:space="preserve" y="387.6207" clip-path="url(#clipPath2)" font-family="sans-serif" stroke="none">Requires</text>
      <text x="225.6864" xml:space="preserve" y="402.3219" clip-path="url(#clipPath2)" font-family="sans-serif" stroke="none">backward</text>
      <text x="215.0164" xml:space="preserve" y="417.023" clip-path="url(#clipPath2)" font-family="sans-serif" stroke="none">compatibility?</text>
    </g>
    <g fill="rgb(255,204,0)" text-rendering="geometricPrecision" shape-rendering="geometricPrecision" transform="matrix(1,0,0,1,-5,15)" stroke="rgb(255,204,0)">
      <path d="M20.0005 397.608 L87.122 330.4863 L154.2436 397.608 L87.122 464.7296 Z" fill-rule="evenodd" clip-path="url(#clipPath2)" stroke="none"/>
    </g>
    <g text-rendering="geometricPrecision" stroke-miterlimit="1.45" shape-rendering="geometricPrecision" transform="matrix(1,0,0,1,-5,15)" stroke-linecap="butt">
      <path fill="none" d="M20.0005 397.608 L87.122 330.4863 L154.2436 397.608 L87.122 464.7296 Z" fill-rule="evenodd" clip-path="url(#clipPath2)"/>
      <text x="63.1101" xml:space="preserve" y="387.6207" clip-path="url(#clipPath2)" font-family="sans-serif" stroke="none">Requires</text>
      <text x="61.4431" xml:space="preserve" y="402.3219" clip-path="url(#clipPath2)" font-family="sans-serif" stroke="none">backward</text>
      <text x="50.7732" xml:space="preserve" y="417.023" clip-path="url(#clipPath2)" font-family="sans-serif" stroke="none">compatibility?</text>
    </g>
    <g fill="url(#linearGradient1)" text-rendering="geometricPrecision" shape-rendering="geometricPrecision" transform="matrix(1,0,0,1,-5,15)" stroke="url(#linearGradient1)">
      <rect x="828.7909" y="828.2296" clip-path="url(#clipPath2)" width="118" rx="29.5" ry="29.5" height="59" stroke="none"/>
    </g>
    <g text-rendering="geometricPrecision" stroke-miterlimit="1.45" shape-rendering="geometricPrecision" transform="matrix(1,0,0,1,-5,15)" stroke-linecap="butt">
      <rect x="828.7909" y="828.2296" clip-path="url(#clipPath2)" fill="none" width="118" rx="29.5" ry="29.5" height="59"/>
      <text x="859.1122" xml:space="preserve" y="855.0929" clip-path="url(#clipPath2)" font-family="sans-serif" stroke="none">Composite</text>
      <text x="860.1083" xml:space="preserve" y="869.7941" clip-path="url(#clipPath2)" font-family="sans-serif" stroke="none">signatures</text>
    </g>
    <g fill="url(#linearGradient2)" text-rendering="geometricPrecision" shape-rendering="geometricPrecision" transform="matrix(1,0,0,1,-5,15)" stroke="url(#linearGradient2)">
      <rect x="422.7909" y="828.2296" clip-path="url(#clipPath2)" width="118" rx="29.5" ry="29.5" height="59" stroke="none"/>
    </g>
    <g text-rendering="geometricPrecision" stroke-miterlimit="1.45" shape-rendering="geometricPrecision" transform="matrix(1,0,0,1,-5,15)" stroke-linecap="butt">
      <rect x="422.7909" y="828.2296" clip-path="url(#clipPath2)" fill="none" width="118" rx="29.5" ry="29.5" height="59"/>
      <text x="461.4442" xml:space="preserve" y="855.0929" clip-path="url(#clipPath2)" font-family="sans-serif" stroke="none">Stateful</text>
      <text x="469.4539" xml:space="preserve" y="869.7941" clip-path="url(#clipPath2)" font-family="sans-serif" stroke="none">HBS</text>
    </g>
    <g fill="url(#linearGradient3)" text-rendering="geometricPrecision" shape-rendering="geometricPrecision" transform="matrix(1,0,0,1,-5,15)" stroke="url(#linearGradient3)">
      <path d="M731.2909 671.7296 L808.7909 671.7296 L808.7909 710.4796 L770.0409 749.2296 L731.2909 710.4796 Z" stroke="none" clip-path="url(#clipPath2)"/>
    </g>
    <g text-rendering="geometricPrecision" stroke-miterlimit="1.45" shape-rendering="geometricPrecision" transform="matrix(1,0,0,1,-5,15)" stroke-linecap="butt">
      <path fill="none" d="M731.2909 671.7296 L808.7909 671.7296 L808.7909 710.4796 L770.0409 749.2296 L731.2909 710.4796 Z" clip-path="url(#clipPath2)"/>
      <text x="741.6932" xml:space="preserve" y="715.1935" clip-path="url(#clipPath2)" font-family="sans-serif" stroke="none">Mandatory</text>
    </g>
    <g fill="url(#linearGradient4)" text-rendering="geometricPrecision" shape-rendering="geometricPrecision" transform="matrix(1,0,0,1,-5,15)" stroke="url(#linearGradient4)">
      <path d="M996.2909 671.7296 L1073.7909 671.7296 L1073.7909 710.4796 L1035.0409 749.2296 L996.2909 710.4796 Z" stroke="none" clip-path="url(#clipPath2)"/>
    </g>
    <g text-rendering="geometricPrecision" stroke-miterlimit="1.45" shape-rendering="geometricPrecision" transform="matrix(1,0,0,1,-5,15)" stroke-linecap="butt">
      <path fill="none" d="M996.2909 671.7296 L1073.7909 671.7296 L1073.7909 710.4796 L1035.0409 749.2296 L996.2909 710.4796 Z" clip-path="url(#clipPath2)"/>
      <text x="1012.6932" xml:space="preserve" y="715.1935" clip-path="url(#clipPath2)" font-family="sans-serif" stroke="none">Optional</text>
    </g>
    <g fill="url(#linearGradient5)" text-rendering="geometricPrecision" shape-rendering="geometricPrecision" transform="matrix(1,0,0,1,-5,15)" stroke="url(#linearGradient5)">
      <path d="M863.7909 671.7296 L941.2909 671.7296 L941.2909 710.4796 L902.5409 749.2296 L863.7909 710.4796 Z" stroke="none" clip-path="url(#clipPath2)"/>
    </g>
    <g text-rendering="geometricPrecision" stroke-miterlimit="1.45" shape-rendering="geometricPrecision" transform="matrix(1,0,0,1,-5,15)" stroke-linecap="butt">
      <path fill="none" d="M863.7909 671.7296 L941.2909 671.7296 L941.2909 710.4796 L902.5409 749.2296 L863.7909 710.4796 Z" clip-path="url(#clipPath2)"/>
      <text x="883.1991" xml:space="preserve" y="715.1935" clip-path="url(#clipPath2)" font-family="sans-serif" stroke="none">Limited</text>
    </g>
    <g fill="url(#linearGradient6)" text-rendering="geometricPrecision" shape-rendering="geometricPrecision" transform="matrix(1,0,0,1,-5,15)" stroke="url(#linearGradient6)">
      <rect x="139.1659" y="828.2296" clip-path="url(#clipPath2)" width="118" rx="29.5" ry="29.5" height="59" stroke="none"/>
    </g>
    <g text-rendering="geometricPrecision" stroke-miterlimit="1.45" shape-rendering="geometricPrecision" transform="matrix(1,0,0,1,-5,15)" stroke-linecap="butt">
      <rect x="139.1659" y="828.2296" clip-path="url(#clipPath2)" fill="none" width="118" rx="29.5" ry="29.5" height="59"/>
      <text x="177.4911" xml:space="preserve" y="855.0929" clip-path="url(#clipPath2)" font-family="sans-serif" stroke="none">Multiple</text>
      <text x="170.4833" xml:space="preserve" y="869.7941" clip-path="url(#clipPath2)" font-family="sans-serif" stroke="none">signatures</text>
    </g>
    <g fill="url(#linearGradient7)" text-rendering="geometricPrecision" shape-rendering="geometricPrecision" transform="matrix(1,0,0,1,-5,15)" stroke="url(#linearGradient7)">
      <rect x="976.7909" y="828.2296" clip-path="url(#clipPath2)" width="118" rx="29.5" ry="29.5" height="59" stroke="none"/>
    </g>
    <g text-rendering="geometricPrecision" stroke-miterlimit="1.45" shape-rendering="geometricPrecision" transform="matrix(1,0,0,1,-5,15)" stroke-linecap="butt">
      <rect x="976.7909" y="828.2296" clip-path="url(#clipPath2)" fill="none" width="118" rx="29.5" ry="29.5" height="59"/>
      <text x="1013.121" xml:space="preserve" y="862.4435" clip-path="url(#clipPath2)" font-family="sans-serif" stroke="none">ML-DSA</text>
    </g>
    <g fill="url(#linearGradient8)" text-rendering="geometricPrecision" shape-rendering="geometricPrecision" transform="matrix(1,0,0,1,-5,15)" stroke="url(#linearGradient8)">
      <rect x="570.7909" y="828.2296" clip-path="url(#clipPath2)" width="118" rx="29.5" ry="29.5" height="59" stroke="none"/>
    </g>
    <g text-rendering="geometricPrecision" stroke-miterlimit="1.45" shape-rendering="geometricPrecision" transform="matrix(1,0,0,1,-5,15)" stroke-linecap="butt">
      <rect x="570.7909" y="828.2296" clip-path="url(#clipPath2)" fill="none" width="118" rx="29.5" ry="29.5" height="59"/>
      <text x="605.1112" xml:space="preserve" y="855.0929" clip-path="url(#clipPath2)" font-family="sans-serif" stroke="none">Stateless</text>
      <text x="617.454" xml:space="preserve" y="869.7941" clip-path="url(#clipPath2)" font-family="sans-serif" stroke="none">HBS</text>
    </g>
    <g fill="url(#linearGradient9)" text-rendering="geometricPrecision" shape-rendering="geometricPrecision" transform="matrix(1,0,0,1,-5,15)" stroke="url(#linearGradient9)">
      <path d="M37.7909 671.7296 L115.2909 671.7296 L115.2909 710.4796 L76.5409 749.2296 L37.7909 710.4796 Z" stroke="none" clip-path="url(#clipPath2)"/>
    </g>
    <g text-rendering="geometricPrecision" stroke-miterlimit="1.45" shape-rendering="geometricPrecision" transform="matrix(1,0,0,1,-5,15)" stroke-linecap="butt">
      <path fill="none" d="M37.7909 671.7296 L115.2909 671.7296 L115.2909 710.4796 L76.5409 749.2296 L37.7909 710.4796 Z" clip-path="url(#clipPath2)"/>
      <text x="48.1932" xml:space="preserve" y="715.1935" clip-path="url(#clipPath2)" font-family="sans-serif" stroke="none">Mandatory</text>
    </g>
    <g fill="url(#linearGradient10)" text-rendering="geometricPrecision" shape-rendering="geometricPrecision" transform="matrix(1,0,0,1,-5,15)" stroke="url(#linearGradient10)">
      <path d="M302.7909 671.7296 L380.2909 671.7296 L380.2909 710.4796 L341.5409 749.2296 L302.7909 710.4796 Z" stroke="none" clip-path="url(#clipPath2)"/>
    </g>
    <g text-rendering="geometricPrecision" stroke-miterlimit="1.45" shape-rendering="geometricPrecision" transform="matrix(1,0,0,1,-5,15)" stroke-linecap="butt">
      <path fill="none" d="M302.7909 671.7296 L380.2909 671.7296 L380.2909 710.4796 L341.5409 749.2296 L302.7909 710.4796 Z" clip-path="url(#clipPath2)"/>
      <text x="319.1932" xml:space="preserve" y="715.1935" clip-path="url(#clipPath2)" font-family="sans-serif" stroke="none">Optional</text>
    </g>
    <g fill="url(#linearGradient11)" text-rendering="geometricPrecision" shape-rendering="geometricPrecision" transform="matrix(1,0,0,1,-5,15)" stroke="url(#linearGradient11)">
      <path d="M170.2909 671.7296 L247.7909 671.7296 L247.7909 710.4796 L209.0409 749.2296 L170.2909 710.4796 Z" stroke="none" clip-path="url(#clipPath2)"/>
    </g>
    <g text-rendering="geometricPrecision" stroke-miterlimit="1.45" shape-rendering="geometricPrecision" transform="matrix(1,0,0,1,-5,15)" stroke-linecap="butt">
      <path fill="none" d="M170.2909 671.7296 L247.7909 671.7296 L247.7909 710.4796 L209.0409 749.2296 L170.2909 710.4796 Z" clip-path="url(#clipPath2)"/>
      <text x="189.6991" xml:space="preserve" y="715.1935" clip-path="url(#clipPath2)" font-family="sans-serif" stroke="none">Limited</text>
    </g>
    <g text-rendering="geometricPrecision" stroke-miterlimit="1.45" shape-rendering="geometricPrecision" transform="matrix(1,0,0,1,-5,15)" stroke-linecap="butt">
      <path fill="none" d="M588.806 100.712 L588.806 149.7432 L859.1254 149.7432 L859.1254 157.2432" clip-path="url(#clipPath2)"/>
      <path d="M859.1254 165.2432 L864.1254 153.2432 L859.1254 156.2432 L854.1254 153.2432 Z" clip-path="url(#clipPath2)" stroke="none"/>
      <text x="709.6249" xml:space="preserve" y="147.1065" clip-path="url(#clipPath2)" font-family="sans-serif" stroke="none">Short</text>
      <text x="711.6259" xml:space="preserve" y="161.8076" clip-path="url(#clipPath2)" font-family="sans-serif" stroke="none">lived</text>
      <path fill="none" d="M859.1254 299.4864 L859.1254 322.4561" clip-path="url(#clipPath2)"/>
      <path d="M859.1254 330.4561 L864.1254 318.4561 L859.1254 321.4561 L854.1254 318.4561 Z" clip-path="url(#clipPath2)" stroke="none"/>
      <text x="838.1166" xml:space="preserve" y="312.7497" clip-path="url(#clipPath2)" font-family="sans-serif" stroke="none">Passive</text>
      <text x="829.767" xml:space="preserve" y="327.4509" clip-path="url(#clipPath2)" font-family="sans-serif" stroke="none">negotiation</text>
      <path fill="none" d="M814.3777 254.7677 L814.3777 314.9864 L694.8821 314.9864 L694.8821 322.4864" clip-path="url(#clipPath2)"/>
      <path d="M694.8821 330.4864 L699.8821 318.4864 L694.8821 321.4864 L689.8821 318.4864 Z" clip-path="url(#clipPath2)" stroke="none"/>
      <text x="727.9869" xml:space="preserve" y="311.7003" clip-path="url(#clipPath2)" font-family="sans-serif" stroke="none">Non-agile</text>
      <path fill="none" d="M903.8731 254.7677 L903.8731 314.9864 L1023.3687 314.9864 L1023.3687 322.4864" clip-path="url(#clipPath2)"/>
      <path d="M1023.3687 330.4864 L1028.3687 318.4864 L1023.3687 321.4864 L1018.3687 318.4864 Z" clip-path="url(#clipPath2)" stroke="none"/>
      <text x="947.282" xml:space="preserve" y="312.3497" clip-path="url(#clipPath2)" font-family="sans-serif" stroke="none">Active</text>
      <text x="934.2625" xml:space="preserve" y="327.0508" clip-path="url(#clipPath2)" font-family="sans-serif" stroke="none">negotiation</text>
      <path fill="none" d="M521.6844 100.712 L521.6844 149.7432 L251.3651 149.7432 L251.3651 157.2432" clip-path="url(#clipPath2)"/>
      <path d="M251.3651 165.2432 L256.3651 153.2432 L251.3651 156.2432 L246.3651 153.2432 Z" clip-path="url(#clipPath2)" stroke="none"/>
      <text x="373.1771" xml:space="preserve" y="147.1065" clip-path="url(#clipPath2)" font-family="sans-serif" stroke="none">Long</text>
      <text x="374.1849" xml:space="preserve" y="161.8076" clip-path="url(#clipPath2)" font-family="sans-serif" stroke="none">lived</text>
      <path fill="none" d="M296.1128 254.7677 L296.1128 314.9864 L415.6083 314.9864 L415.6083 322.4864" clip-path="url(#clipPath2)"/>
      <path d="M415.6083 330.4864 L420.6083 318.4864 L415.6083 321.4864 L410.6083 318.4864 Z" clip-path="url(#clipPath2)" stroke="none"/>
      <text x="314.9359" xml:space="preserve" y="312.3497" clip-path="url(#clipPath2)" font-family="sans-serif" stroke="none">Passive</text>
      <text x="306.5862" xml:space="preserve" y="327.0508" clip-path="url(#clipPath2)" font-family="sans-serif" stroke="none">negotiation</text>
      <path fill="none" d="M251.3651 299.4864 L251.3651 322.4864" clip-path="url(#clipPath2)"/>
      <path d="M251.3651 330.4864 L256.3651 318.4864 L251.3651 321.4864 L246.3651 318.4864 Z" clip-path="url(#clipPath2)" stroke="none"/>
      <text x="225.6834" xml:space="preserve" y="320.3008" clip-path="url(#clipPath2)" font-family="sans-serif" stroke="none">Non-agile</text>
      <path fill="none" d="M206.6173 254.7677 L206.6173 314.9864 L87.1218 314.9864 L87.1218 322.4864" clip-path="url(#clipPath2)"/>
      <path d="M87.1218 330.4864 L92.1218 318.4864 L87.1218 321.4864 L82.1218 318.4864 Z" clip-path="url(#clipPath2)" stroke="none"/>
      <text x="130.5307" xml:space="preserve" y="312.3497" clip-path="url(#clipPath2)" font-family="sans-serif" stroke="none">Active</text>
      <text x="117.5112" xml:space="preserve" y="327.0508" clip-path="url(#clipPath2)" font-family="sans-serif" stroke="none">negotiation</text>
      <path fill="none" d="M278.2137 437.8859 L278.2137 528.2296 L452.2909 528.2296 L452.2909 820.193" clip-path="url(#clipPath2)"/>
      <path d="M452.2909 828.193 L457.2909 816.193 L452.2909 819.193 L447.2909 816.193 Z" clip-path="url(#clipPath2)" stroke="none"/>
      <text x="268.53" xml:space="preserve" y="465.7435" clip-path="url(#clipPath2)" font-family="sans-serif" stroke="none">Optional/Limited</text>
      <path fill="none" d="M442.457 437.8859 L442.457 496.2296 L511.2909 496.2296 L511.2909 820.1891" clip-path="url(#clipPath2)"/>
      <path d="M511.2909 828.1891 L516.2909 816.1891 L511.2909 819.1891 L506.2909 816.1891 Z" clip-path="url(#clipPath2)" stroke="none"/>
      <text x="429.3217" xml:space="preserve" y="463.1835" clip-path="url(#clipPath2)" font-family="sans-serif" stroke="none">Optional/Limited</text>
      <path fill="none" d="M978.6209 420.0109 L978.6209 496.2296 L804.2075 496.2296 L804.2075 663.7296" clip-path="url(#clipPath2)"/>
      <path d="M804.2075 671.7296 L809.2075 659.7296 L804.2075 662.7296 L799.2075 659.7296 Z" clip-path="url(#clipPath2)" stroke="none"/>
      <path fill="none" d="M678.1017 447.9836 L678.1017 592.2296 L735.8742 592.2296 L735.8742 663.7296" clip-path="url(#clipPath2)"/>
      <path d="M735.8742 671.7296 L740.8742 659.7296 L735.8742 662.7296 L730.8742 659.7296 Z" clip-path="url(#clipPath2)" stroke="none"/>
      <path fill="none" d="M842.345 447.9799 L842.345 480.2296 L770.0409 480.2296 L770.0409 663.7296" clip-path="url(#clipPath2)"/>
      <path d="M770.0409 671.7296 L775.0409 659.7296 L770.0409 662.7296 L765.0409 659.7296 Z" clip-path="url(#clipPath2)" stroke="none"/>
      <path fill="none" d="M1068.1163 420.0109 L1068.1163 480.2296 L1069.2075 480.2296 L1069.2075 663.7296" clip-path="url(#clipPath2)"/>
      <path d="M1069.2075 671.7296 L1074.2075 659.7296 L1069.2075 662.7296 L1064.2075 659.7296 Z" clip-path="url(#clipPath2)" stroke="none"/>
      <path fill="none" d="M909.4666 414.4136 L909.4666 528.2296 L1035.0409 528.2296 L1035.0409 663.7296" clip-path="url(#clipPath2)"/>
      <path d="M1035.0409 671.7296 L1040.0409 659.7296 L1035.0409 662.7296 L1030.0409 659.7296 Z" clip-path="url(#clipPath2)" stroke="none"/>
      <path fill="none" d="M745.2233 414.4214 L745.2233 560.2296 L1000.8742 560.2296 L1000.8742 663.7296" clip-path="url(#clipPath2)"/>
      <path d="M1000.8742 671.7296 L1005.8742 659.7296 L1000.8742 662.7296 L995.8742 659.7296 Z" clip-path="url(#clipPath2)" stroke="none"/>
      <path fill="none" d="M1009.4159 723.6359 L1009.4159 764.7296 L932.0409 764.7296 L932.0409 824.1654" clip-path="url(#clipPath2)"/>
      <path d="M932.0409 832.1654 L937.0409 820.1654 L932.0409 823.1654 L927.0409 820.1654 Z" clip-path="url(#clipPath2)" stroke="none"/>
      <path fill="none" d="M1023.3687 464.776 L1023.3687 512.2296 L936.7075 512.2296 L936.7075 663.7296" clip-path="url(#clipPath2)"/>
      <path d="M936.7075 671.7296 L941.7075 659.7296 L936.7075 662.7296 L931.7075 659.7296 Z" clip-path="url(#clipPath2)" stroke="none"/>
      <path fill="none" d="M711.6625 447.9797 L711.6625 576.2296 L868.3742 576.2296 L868.3742 663.7296" clip-path="url(#clipPath2)"/>
      <path d="M868.3742 671.7296 L873.3742 659.7296 L868.3742 662.7296 L863.3742 659.7296 Z" clip-path="url(#clipPath2)" stroke="none"/>
      <path fill="none" d="M875.9058 447.9954 L875.9058 544.2296 L902.5409 544.2296 L902.5409 663.7296" clip-path="url(#clipPath2)"/>
      <path d="M902.5409 671.7296 L907.5409 659.7296 L902.5409 662.7296 L897.5409 659.7296 Z" clip-path="url(#clipPath2)" stroke="none"/>
      <path fill="none" d="M902.5409 749.2296 L902.5409 820.191" clip-path="url(#clipPath2)"/>
      <path d="M902.5409 828.191 L907.5409 816.191 L902.5409 819.191 L897.5409 816.191 Z" clip-path="url(#clipPath2)" stroke="none"/>
      <path fill="none" d="M770.0409 749.2296 L770.0409 780.7296 L212.9159 780.7296 L212.9159 820.1832" clip-path="url(#clipPath2)"/>
      <path d="M212.9159 828.1832 L217.9159 816.1832 L212.9159 819.1832 L207.9159 816.1832 Z" clip-path="url(#clipPath2)" stroke="none"/>
      <path fill="none" d="M868.3742 715.0734 L868.3742 812.7296 L242.4159 812.7296 L242.4159 824.1603" clip-path="url(#clipPath2)"/>
      <path d="M242.4159 832.1603 L247.4159 820.1603 L242.4159 823.1603 L237.4159 820.1603 Z" clip-path="url(#clipPath2)" stroke="none"/>
      <path fill="none" d="M936.7075 715.0734 L936.7075 780.7296 L1006.2909 780.7296 L1006.2909 820.1832" clip-path="url(#clipPath2)"/>
      <path d="M1006.2909 828.1832 L1011.2909 816.1832 L1006.2909 819.1832 L1001.2909 816.1832 Z" clip-path="url(#clipPath2)" stroke="none"/>
      <path fill="none" d="M1060.6659 723.6135 L1060.6659 764.7296 L1065.2909 764.7296 L1065.2909 820.1986" clip-path="url(#clipPath2)"/>
      <path d="M1065.2909 828.1986 L1070.2909 816.1986 L1065.2909 819.1986 L1060.2909 816.1986 Z" clip-path="url(#clipPath2)" stroke="none"/>
      <path fill="none" d="M469.3056 411.0446 L469.3056 480.2296 L615.0409 480.2296 L615.0409 820.1871" clip-path="url(#clipPath2)"/>
      <path d="M615.0409 828.1871 L620.0409 816.1871 L615.0409 819.1871 L610.0409 816.1871 Z" clip-path="url(#clipPath2)" stroke="none"/>
      <text x="457.7644" xml:space="preserve" y="436.3418" clip-path="url(#clipPath2)" font-family="sans-serif" stroke="none">Optional/Limited</text>
      <path fill="none" d="M644.541 414.4111 L644.5409 820.2043" clip-path="url(#clipPath2)"/>
      <path d="M644.5409 828.2043 L649.5409 816.2043 L644.5409 819.2043 L639.5409 816.2043 Z" clip-path="url(#clipPath2)" stroke="none"/>
      <text x="596.0645" xml:space="preserve" y="442.5342" clip-path="url(#clipPath2)" font-family="sans-serif" stroke="none">Optional/Limited</text>
      <path fill="none" d="M808.7842 414.4332 L808.7842 608.2296 L674.0409 608.2296 L674.0409 824.171" clip-path="url(#clipPath2)"/>
      <path d="M674.0409 832.171 L679.0409 820.171 L674.0409 823.171 L669.0409 820.171 Z" clip-path="url(#clipPath2)" stroke="none"/>
      <text x="749.7244" xml:space="preserve" y="451.3994" clip-path="url(#clipPath2)" font-family="sans-serif" stroke="none">Optional/Limited</text>
      <path fill="none" d="M305.0623 411.0603 L305.0623 512.2296 L585.5409 512.2296 L585.5409 824.1593" clip-path="url(#clipPath2)"/>
      <path d="M585.5409 832.1593 L590.5409 820.1593 L585.5409 823.1593 L580.5409 820.1593 Z" clip-path="url(#clipPath2)" stroke="none"/>
      <text x="296.0079" xml:space="preserve" y="438.8635" clip-path="url(#clipPath2)" font-family="sans-serif" stroke="none">Optional/Limited</text>
      <path fill="none" d="M42.3741 420.0109 L42.3742 663.7296" clip-path="url(#clipPath2)"/>
      <path d="M42.3742 671.7296 L47.3742 659.7296 L42.3742 662.7296 L37.3742 659.7296 Z" clip-path="url(#clipPath2)" stroke="none"/>
      <path fill="none" d="M361.911 411.0369 L361.911 624.2296 L110.7075 624.2296 L110.7075 663.7296" clip-path="url(#clipPath2)"/>
      <path d="M110.7075 671.7296 L115.7075 659.7296 L110.7075 662.7296 L105.7075 659.7296 Z" clip-path="url(#clipPath2)" stroke="none"/>
      <path fill="none" d="M197.6678 411.0551 L197.6678 592.2296 L76.5409 592.2296 L76.5409 663.7296" clip-path="url(#clipPath2)"/>
      <path d="M76.5409 671.7296 L81.5409 659.7296 L76.5409 662.7296 L71.5409 659.7296 Z" clip-path="url(#clipPath2)" stroke="none"/>
      <path fill="none" d="M76.5409 749.2599 L76.5409 764.7296 L153.9159 764.7296 L153.9159 824.1654" clip-path="url(#clipPath2)"/>
      <path d="M153.9159 832.1654 L158.9159 820.1654 L153.9159 823.1654 L148.9159 820.1654 Z" clip-path="url(#clipPath2)" stroke="none"/>
      <path fill="none" d="M131.8696 420.0109 L131.8696 560.2296 L307.3742 560.2296 L307.3742 663.7296" clip-path="url(#clipPath2)"/>
      <path d="M307.3742 671.7296 L312.3742 659.7296 L307.3742 662.7296 L302.3742 659.7296 Z" clip-path="url(#clipPath2)" stroke="none"/>
      <path fill="none" d="M251.3651 464.7296 L251.3651 544.2296 L341.5409 544.2296 L341.5409 663.7296" clip-path="url(#clipPath2)"/>
      <path d="M341.5409 671.7296 L346.5409 659.7296 L341.5409 662.7296 L336.5409 659.7296 Z" clip-path="url(#clipPath2)" stroke="none"/>
      <path fill="none" d="M415.6083 464.7296 L415.6083 656.2296 L375.7076 656.2296 L375.7076 663.7296" clip-path="url(#clipPath2)"/>
      <path d="M375.7076 671.7296 L380.7076 659.7296 L375.7076 662.7296 L370.7076 659.7296 Z" clip-path="url(#clipPath2)" stroke="none"/>
      <path fill="none" d="M341.5409 749.2599 L341.5409 764.7296 L873.0409 764.7296 L873.0409 820.1986" clip-path="url(#clipPath2)"/>
      <path d="M873.0409 828.1986 L878.0409 816.1986 L873.0409 819.1986 L868.0409 816.1986 Z" clip-path="url(#clipPath2)" stroke="none"/>
      <path fill="none" d="M87.1218 464.7296 L87.1218 576.2296 L174.8742 576.2296 L174.8742 663.7296" clip-path="url(#clipPath2)"/>
      <path d="M174.8742 671.7296 L179.8742 659.7296 L174.8742 662.7296 L169.8742 659.7296 Z" clip-path="url(#clipPath2)" stroke="none"/>
      <path fill="none" d="M388.7597 437.8859 L388.7597 640.2296 L243.2075 640.2296 L243.2075 663.7296" clip-path="url(#clipPath2)"/>
      <path d="M243.2075 671.7296 L248.2075 659.7296 L243.2075 662.7296 L238.2075 659.7296 Z" clip-path="url(#clipPath2)" stroke="none"/>
      <path fill="none" d="M224.5164 437.8859 L224.5164 608.2296 L209.0409 608.2296 L209.0409 663.7296" clip-path="url(#clipPath2)"/>
      <path d="M209.0409 671.7296 L214.0409 659.7296 L209.0409 662.7296 L204.0409 659.7296 Z" clip-path="url(#clipPath2)" stroke="none"/>
      <path fill="none" d="M183.4159 723.6359 L183.4159 820.204" clip-path="url(#clipPath2)"/>
      <path d="M183.4159 828.204 L188.4159 816.204 L183.4159 819.204 L178.4159 816.204 Z" clip-path="url(#clipPath2)" stroke="none"/>
      <path fill="none" d="M234.6659 723.6091 L234.6659 796.7296 L843.5409 796.7296 L843.5409 824.1637" clip-path="url(#clipPath2)"/>
      <path d="M843.5409 832.1637 L848.5409 820.1637 L843.5409 823.1637 L838.5409 820.1637 Z" clip-path="url(#clipPath2)" stroke="none"/>
    </g>
  </g>
</svg>
