<?xml version="1.0" encoding="UTF-8"?><svg xmlns="http://www.w3.org/2000/svg" xmlns:xlink="http://www.w3.org/1999/xlink" fill-opacity="1" color-rendering="auto" color-interpolation="auto" text-rendering="auto" stroke="black" stroke-linecap="square" width="1079" stroke-miterlimit="10" shape-rendering="auto" stroke-opacity="1" fill="black" stroke-dasharray="none" font-weight="normal" stroke-width="1" height="906" font-family="'Dialog'" font-style="normal" stroke-linejoin="miter" font-size="12px" stroke-dashoffset="0" image-rendering="auto">
  <!--Generated by ySVG 2.6-->
  <defs id="genericDefs"/>
  <g>
    <defs id="defs1">
      <linearGradient x1="27.1871" gradientUnits="userSpaceOnUse" x2="167.1871" y1="651.5343" y2="721.5343" id="linearGradient1" spreadMethod="reflect">
        <stop stop-opacity="1" stop-color="rgb(232,238,247)" offset="0%"/>
        <stop stop-opacity="1" stop-color="rgb(183,201,227)" offset="100%"/>
      </linearGradient>
      <linearGradient x1="190.6871" gradientUnits="userSpaceOnUse" x2="308.6871" y1="816.5343" y2="875.5343" id="linearGradient2" spreadMethod="reflect">
        <stop stop-opacity="1" stop-color="rgb(232,238,247)" offset="0%"/>
        <stop stop-opacity="1" stop-color="rgb(183,201,227)" offset="100%"/>
      </linearGradient>
      <linearGradient x1="338.6871" gradientUnits="userSpaceOnUse" x2="456.6871" y1="816.5343" y2="875.5343" id="linearGradient3" spreadMethod="reflect">
        <stop stop-opacity="1" stop-color="rgb(232,238,247)" offset="0%"/>
        <stop stop-opacity="1" stop-color="rgb(183,201,227)" offset="100%"/>
      </linearGradient>
      <linearGradient x1="42.6871" gradientUnits="userSpaceOnUse" x2="160.6871" y1="816.5343" y2="875.5343" id="linearGradient4" spreadMethod="reflect">
        <stop stop-opacity="1" stop-color="rgb(232,238,247)" offset="0%"/>
        <stop stop-opacity="1" stop-color="rgb(183,201,227)" offset="100%"/>
      </linearGradient>
      <linearGradient x1="197.1871" gradientUnits="userSpaceOnUse" x2="302.1871" y1="651.5343" y2="721.5343" id="linearGradient5" spreadMethod="reflect">
        <stop stop-opacity="1" stop-color="rgb(232,238,247)" offset="0%"/>
        <stop stop-opacity="1" stop-color="rgb(183,201,227)" offset="100%"/>
      </linearGradient>
      <linearGradient x1="332.1871" gradientUnits="userSpaceOnUse" x2="450.1871" y1="651.5343" y2="721.5343" id="linearGradient6" spreadMethod="reflect">
        <stop stop-opacity="1" stop-color="rgb(232,238,247)" offset="0%"/>
        <stop stop-opacity="1" stop-color="rgb(183,201,227)" offset="100%"/>
      </linearGradient>
      <linearGradient x1="488.8537" gradientUnits="userSpaceOnUse" x2="593.8538" y1="651.5343" y2="721.5343" id="linearGradient7" spreadMethod="reflect">
        <stop stop-opacity="1" stop-color="rgb(232,238,247)" offset="0%"/>
        <stop stop-opacity="1" stop-color="rgb(183,201,227)" offset="100%"/>
      </linearGradient>
      <linearGradient x1="634.6871" gradientUnits="userSpaceOnUse" x2="752.6871" y1="816.5343" y2="875.5343" id="linearGradient8" spreadMethod="reflect">
        <stop stop-opacity="1" stop-color="rgb(232,238,247)" offset="0%"/>
        <stop stop-opacity="1" stop-color="rgb(183,201,227)" offset="100%"/>
      </linearGradient>
      <linearGradient x1="930.6871" gradientUnits="userSpaceOnUse" x2="1048.6871" y1="816.5343" y2="875.5343" id="linearGradient9" spreadMethod="reflect">
        <stop stop-opacity="1" stop-color="rgb(232,238,247)" offset="0%"/>
        <stop stop-opacity="1" stop-color="rgb(183,201,227)" offset="100%"/>
      </linearGradient>
      <linearGradient x1="486.6871" gradientUnits="userSpaceOnUse" x2="604.6871" y1="816.5343" y2="875.5343" id="linearGradient10" spreadMethod="reflect">
        <stop stop-opacity="1" stop-color="rgb(232,238,247)" offset="0%"/>
        <stop stop-opacity="1" stop-color="rgb(183,201,227)" offset="100%"/>
      </linearGradient>
      <linearGradient x1="782.6871" gradientUnits="userSpaceOnUse" x2="900.6871" y1="816.5343" y2="875.5343" id="linearGradient11" spreadMethod="reflect">
        <stop stop-opacity="1" stop-color="rgb(232,238,247)" offset="0%"/>
        <stop stop-opacity="1" stop-color="rgb(183,201,227)" offset="100%"/>
      </linearGradient>
      <linearGradient x1="815.3954" gradientUnits="userSpaceOnUse" x2="920.3954" y1="651.5343" y2="721.5343" id="linearGradient12" spreadMethod="reflect">
        <stop stop-opacity="1" stop-color="rgb(232,238,247)" offset="0%"/>
        <stop stop-opacity="1" stop-color="rgb(183,201,227)" offset="100%"/>
      </linearGradient>
      <linearGradient x1="649.4371" gradientUnits="userSpaceOnUse" x2="767.4371" y1="651.5343" y2="721.5343" id="linearGradient13" spreadMethod="reflect">
        <stop stop-opacity="1" stop-color="rgb(232,238,247)" offset="0%"/>
        <stop stop-opacity="1" stop-color="rgb(183,201,227)" offset="100%"/>
      </linearGradient>
      <clipPath clipPathUnits="userSpaceOnUse" id="clipPath1">
        <path d="M0 0 L1079 0 L1079 906 L0 906 L0 0 Z"/>
      </clipPath>
      <clipPath clipPathUnits="userSpaceOnUse" id="clipPath2">
        <path d="M-15 -15 L1064 -15 L1064 891 L-15 891 L-15 -15 Z"/>
      </clipPath>
    </defs>
    <g fill="white" text-rendering="geometricPrecision" shape-rendering="geometricPrecision" transform="translate(15,15)" stroke="white">
      <rect x="-15" width="1079" height="906" y="-15" clip-path="url(#clipPath2)" stroke="none"/>
    </g>
    <g fill="rgb(255,204,0)" text-rendering="geometricPrecision" shape-rendering="geometricPrecision" transform="matrix(1,0,0,1,15,15)" stroke="rgb(255,204,0)">
      <path d="M410.6081 67.1216 L477.7297 0 L544.8513 67.1216 L477.7297 134.2432 Z" fill-rule="evenodd" clip-path="url(#clipPath2)" stroke="none"/>
    </g>
    <g text-rendering="geometricPrecision" stroke-miterlimit="1.45" shape-rendering="geometricPrecision" transform="matrix(1,0,0,1,15,15)" stroke-linecap="butt">
      <path fill="none" d="M410.6081 67.1216 L477.7297 0 L544.8513 67.1216 L477.7297 134.2432 Z" fill-rule="evenodd" clip-path="url(#clipPath2)"/>
      <text x="432.0471" xml:space="preserve" y="71.8355" clip-path="url(#clipPath2)" font-family="sans-serif" stroke="none">Use case lifetime</text>
    </g>
    <g fill="rgb(255,204,0)" text-rendering="geometricPrecision" shape-rendering="geometricPrecision" transform="matrix(1,0,0,1,15,15)" stroke="rgb(255,204,0)">
      <path d="M164.2433 274.7672 L231.3649 207.6455 L298.4865 274.7672 L231.3649 341.8887 Z" fill-rule="evenodd" clip-path="url(#clipPath2)" stroke="none"/>
    </g>
    <g text-rendering="geometricPrecision" stroke-miterlimit="1.45" shape-rendering="geometricPrecision" transform="matrix(1,0,0,1,15,15)" stroke-linecap="butt">
      <path fill="none" d="M164.2433 274.7672 L231.3649 207.6455 L298.4865 274.7672 L231.3649 341.8887 Z" fill-rule="evenodd" clip-path="url(#clipPath2)"/>
      <text x="211.3551" xml:space="preserve" y="272.1304" clip-path="url(#clipPath2)" font-family="sans-serif" stroke="none">Type of</text>
      <text x="189.0045" xml:space="preserve" y="286.8316" clip-path="url(#clipPath2)" font-family="sans-serif" stroke="none">protocol in use?</text>
    </g>
    <g fill="rgb(255,204,0)" text-rendering="geometricPrecision" shape-rendering="geometricPrecision" transform="matrix(1,0,0,1,15,15)" stroke="rgb(255,204,0)">
      <path d="M328.4865 482.4127 L395.6081 415.2911 L462.7297 482.4127 L395.6081 549.5343 Z" fill-rule="evenodd" clip-path="url(#clipPath2)" stroke="none"/>
    </g>
    <g text-rendering="geometricPrecision" stroke-miterlimit="1.45" shape-rendering="geometricPrecision" transform="matrix(1,0,0,1,15,15)" stroke-linecap="butt">
      <path fill="none" d="M328.4865 482.4127 L395.6081 415.2911 L462.7297 482.4127 L395.6081 549.5343 Z" fill-rule="evenodd" clip-path="url(#clipPath2)"/>
      <text x="371.5964" xml:space="preserve" y="472.4254" clip-path="url(#clipPath2)" font-family="sans-serif" stroke="none">Requires</text>
      <text x="369.9294" xml:space="preserve" y="487.1266" clip-path="url(#clipPath2)" font-family="sans-serif" stroke="none">backward</text>
      <text x="359.2595" xml:space="preserve" y="501.8277" clip-path="url(#clipPath2)" font-family="sans-serif" stroke="none">compatibility?</text>
    </g>
    <g fill="rgb(255,204,0)" text-rendering="geometricPrecision" shape-rendering="geometricPrecision" transform="matrix(1,0,0,1,15,15)" stroke="rgb(255,204,0)">
      <path d="M164.2433 482.4127 L231.3649 415.2911 L298.4865 482.4127 L231.3649 549.5343 Z" fill-rule="evenodd" clip-path="url(#clipPath2)" stroke="none"/>
    </g>
    <g text-rendering="geometricPrecision" stroke-miterlimit="1.45" shape-rendering="geometricPrecision" transform="matrix(1,0,0,1,15,15)" stroke-linecap="butt">
      <path fill="none" d="M164.2433 482.4127 L231.3649 415.2911 L298.4865 482.4127 L231.3649 549.5343 Z" fill-rule="evenodd" clip-path="url(#clipPath2)"/>
      <text x="207.3531" xml:space="preserve" y="472.4254" clip-path="url(#clipPath2)" font-family="sans-serif" stroke="none">Requires</text>
      <text x="205.6861" xml:space="preserve" y="487.1266" clip-path="url(#clipPath2)" font-family="sans-serif" stroke="none">backward</text>
      <text x="195.0162" xml:space="preserve" y="501.8277" clip-path="url(#clipPath2)" font-family="sans-serif" stroke="none">compatibility?</text>
    </g>
    <g fill="rgb(255,204,0)" text-rendering="geometricPrecision" shape-rendering="geometricPrecision" transform="matrix(1,0,0,1,15,15)" stroke="rgb(255,204,0)">
      <path d="M0 482.4127 L67.1216 415.2911 L134.2432 482.4127 L67.1216 549.5343 Z" fill-rule="evenodd" clip-path="url(#clipPath2)" stroke="none"/>
    </g>
    <g text-rendering="geometricPrecision" stroke-miterlimit="1.45" shape-rendering="geometricPrecision" transform="matrix(1,0,0,1,15,15)" stroke-linecap="butt">
      <path fill="none" d="M0 482.4127 L67.1216 415.2911 L134.2432 482.4127 L67.1216 549.5343 Z" fill-rule="evenodd" clip-path="url(#clipPath2)"/>
      <text x="43.1099" xml:space="preserve" y="472.4254" clip-path="url(#clipPath2)" font-family="sans-serif" stroke="none">Requires</text>
      <text x="41.4429" xml:space="preserve" y="487.1266" clip-path="url(#clipPath2)" font-family="sans-serif" stroke="none">backward</text>
      <text x="30.773" xml:space="preserve" y="501.8277" clip-path="url(#clipPath2)" font-family="sans-serif" stroke="none">compatibility?</text>
    </g>
    <g fill="rgb(255,204,0)" text-rendering="geometricPrecision" shape-rendering="geometricPrecision" transform="matrix(1,0,0,1,15,15)" stroke="rgb(255,204,0)">
      <path d="M656.973 274.7672 L724.0946 207.6455 L791.2162 274.7672 L724.0946 341.8887 Z" fill-rule="evenodd" clip-path="url(#clipPath2)" stroke="none"/>
    </g>
    <g text-rendering="geometricPrecision" stroke-miterlimit="1.45" shape-rendering="geometricPrecision" transform="matrix(1,0,0,1,15,15)" stroke-linecap="butt">
      <path fill="none" d="M656.973 274.7672 L724.0946 207.6455 L791.2162 274.7672 L724.0946 341.8887 Z" fill-rule="evenodd" clip-path="url(#clipPath2)"/>
      <text x="704.0848" xml:space="preserve" y="272.1304" clip-path="url(#clipPath2)" font-family="sans-serif" stroke="none">Type of</text>
      <text x="681.7343" xml:space="preserve" y="286.8316" clip-path="url(#clipPath2)" font-family="sans-serif" stroke="none">protocol in use?</text>
    </g>
    <g fill="rgb(255,204,0)" text-rendering="geometricPrecision" shape-rendering="geometricPrecision" transform="matrix(1,0,0,1,15,15)" stroke="rgb(255,204,0)">
      <path d="M656.973 482.4127 L724.0946 415.2911 L791.2162 482.4127 L724.0946 549.5343 Z" fill-rule="evenodd" clip-path="url(#clipPath2)" stroke="none"/>
    </g>
    <g text-rendering="geometricPrecision" stroke-miterlimit="1.45" shape-rendering="geometricPrecision" transform="matrix(1,0,0,1,15,15)" stroke-linecap="butt">
      <path fill="none" d="M656.973 482.4127 L724.0946 415.2911 L791.2162 482.4127 L724.0946 549.5343 Z" fill-rule="evenodd" clip-path="url(#clipPath2)"/>
      <text x="700.0829" xml:space="preserve" y="472.4254" clip-path="url(#clipPath2)" font-family="sans-serif" stroke="none">Requires</text>
      <text x="698.4159" xml:space="preserve" y="487.1266" clip-path="url(#clipPath2)" font-family="sans-serif" stroke="none">backward</text>
      <text x="687.746" xml:space="preserve" y="501.8277" clip-path="url(#clipPath2)" font-family="sans-serif" stroke="none">compatibility?</text>
    </g>
    <g fill="rgb(255,204,0)" text-rendering="geometricPrecision" shape-rendering="geometricPrecision" transform="matrix(1,0,0,1,15,15)" stroke="rgb(255,204,0)">
      <path d="M492.7298 482.4127 L559.8514 415.2911 L626.973 482.4127 L559.8514 549.5343 Z" fill-rule="evenodd" clip-path="url(#clipPath2)" stroke="none"/>
    </g>
    <g text-rendering="geometricPrecision" stroke-miterlimit="1.45" shape-rendering="geometricPrecision" transform="matrix(1,0,0,1,15,15)" stroke-linecap="butt">
      <path fill="none" d="M492.7298 482.4127 L559.8514 415.2911 L626.973 482.4127 L559.8514 549.5343 Z" fill-rule="evenodd" clip-path="url(#clipPath2)"/>
      <text x="535.8397" xml:space="preserve" y="472.4254" clip-path="url(#clipPath2)" font-family="sans-serif" stroke="none">Requires</text>
      <text x="534.1727" xml:space="preserve" y="487.1266" clip-path="url(#clipPath2)" font-family="sans-serif" stroke="none">backward</text>
      <text x="523.5027" xml:space="preserve" y="501.8277" clip-path="url(#clipPath2)" font-family="sans-serif" stroke="none">compatibility?</text>
    </g>
    <g fill="rgb(255,204,0)" text-rendering="geometricPrecision" shape-rendering="geometricPrecision" transform="matrix(1,0,0,1,15,15)" stroke="rgb(255,204,0)">
      <path d="M821.2162 482.4127 L888.3379 415.2911 L955.4595 482.4127 L888.3379 549.5343 Z" fill-rule="evenodd" clip-path="url(#clipPath2)" stroke="none"/>
    </g>
    <g text-rendering="geometricPrecision" stroke-miterlimit="1.45" shape-rendering="geometricPrecision" transform="matrix(1,0,0,1,15,15)" stroke-linecap="butt">
      <path fill="none" d="M821.2162 482.4127 L888.3379 415.2911 L955.4595 482.4127 L888.3379 549.5343 Z" fill-rule="evenodd" clip-path="url(#clipPath2)"/>
      <text x="864.3262" xml:space="preserve" y="472.4254" clip-path="url(#clipPath2)" font-family="sans-serif" stroke="none">Requires</text>
      <text x="862.6592" xml:space="preserve" y="487.1266" clip-path="url(#clipPath2)" font-family="sans-serif" stroke="none">backward</text>
      <text x="851.9893" xml:space="preserve" y="501.8277" clip-path="url(#clipPath2)" font-family="sans-serif" stroke="none">compatibility?</text>
    </g>
    <g fill="url(#linearGradient1)" text-rendering="geometricPrecision" shape-rendering="geometricPrecision" transform="matrix(1,0,0,1,15,15)" stroke="url(#linearGradient1)">
      <path d="M62.1871 651.5343 L132.1871 651.5343 L132.1871 686.5343 L97.1871 721.5343 L62.1871 686.5343 Z" stroke="none" clip-path="url(#clipPath2)"/>
    </g>
    <g text-rendering="geometricPrecision" stroke-miterlimit="1.45" shape-rendering="geometricPrecision" transform="matrix(1,0,0,1,15,15)" stroke-linecap="butt">
      <path fill="none" d="M62.1871 651.5343 L132.1871 651.5343 L132.1871 686.5343 L97.1871 721.5343 L62.1871 686.5343 Z" clip-path="url(#clipPath2)"/>
      <text x="68.8394" xml:space="preserve" y="691.2482" clip-path="url(#clipPath2)" font-family="sans-serif" stroke="none">Mandatory</text>
    </g>
    <g fill="url(#linearGradient2)" text-rendering="geometricPrecision" shape-rendering="geometricPrecision" transform="matrix(1,0,0,1,15,15)" stroke="url(#linearGradient2)">
      <rect x="190.6871" y="816.5343" clip-path="url(#clipPath2)" width="118" rx="29.5" ry="29.5" height="59" stroke="none"/>
    </g>
    <g text-rendering="geometricPrecision" stroke-miterlimit="1.45" shape-rendering="geometricPrecision" transform="matrix(1,0,0,1,15,15)" stroke-linecap="butt">
      <rect x="190.6871" y="816.5343" clip-path="url(#clipPath2)" fill="none" width="118" rx="29.5" ry="29.5" height="59"/>
      <text x="229.0123" xml:space="preserve" y="843.3976" clip-path="url(#clipPath2)" font-family="sans-serif" stroke="none">Multiple</text>
      <text x="222.0045" xml:space="preserve" y="858.0988" clip-path="url(#clipPath2)" font-family="sans-serif" stroke="none">signatures</text>
    </g>
    <g fill="url(#linearGradient3)" text-rendering="geometricPrecision" shape-rendering="geometricPrecision" transform="matrix(1,0,0,1,15,15)" stroke="url(#linearGradient3)">
      <rect x="338.6871" y="816.5343" clip-path="url(#clipPath2)" width="118" rx="29.5" ry="29.5" height="59" stroke="none"/>
    </g>
    <g text-rendering="geometricPrecision" stroke-miterlimit="1.45" shape-rendering="geometricPrecision" transform="matrix(1,0,0,1,15,15)" stroke-linecap="butt">
      <rect x="338.6871" y="816.5343" clip-path="url(#clipPath2)" fill="none" width="118" rx="29.5" ry="29.5" height="59"/>
      <text x="369.0084" xml:space="preserve" y="843.3976" clip-path="url(#clipPath2)" font-family="sans-serif" stroke="none">Composite</text>
      <text x="370.0045" xml:space="preserve" y="858.0988" clip-path="url(#clipPath2)" font-family="sans-serif" stroke="none">signatures</text>
    </g>
    <g fill="url(#linearGradient4)" text-rendering="geometricPrecision" shape-rendering="geometricPrecision" transform="matrix(1,0,0,1,15,15)" stroke="url(#linearGradient4)">
      <rect x="42.6871" y="816.5343" clip-path="url(#clipPath2)" width="118" rx="29.5" ry="29.5" height="59" stroke="none"/>
    </g>
    <g text-rendering="geometricPrecision" stroke-miterlimit="1.45" shape-rendering="geometricPrecision" transform="matrix(1,0,0,1,15,15)" stroke-linecap="butt">
      <rect x="42.6871" y="816.5343" clip-path="url(#clipPath2)" fill="none" width="118" rx="29.5" ry="29.5" height="59"/>
      <text x="79.0172" xml:space="preserve" y="850.7482" clip-path="url(#clipPath2)" font-family="sans-serif" stroke="none">ML-DSA</text>
    </g>
    <g fill="url(#linearGradient5)" text-rendering="geometricPrecision" shape-rendering="geometricPrecision" transform="matrix(1,0,0,1,15,15)" stroke="url(#linearGradient5)">
      <path d="M214.6871 651.5343 L284.6871 651.5343 L284.6871 686.5343 L249.6871 721.5343 L214.6871 686.5343 Z" stroke="none" clip-path="url(#clipPath2)"/>
    </g>
    <g text-rendering="geometricPrecision" stroke-miterlimit="1.45" shape-rendering="geometricPrecision" transform="matrix(1,0,0,1,15,15)" stroke-linecap="butt">
      <path fill="none" d="M214.6871 651.5343 L284.6871 651.5343 L284.6871 686.5343 L249.6871 721.5343 L214.6871 686.5343 Z" clip-path="url(#clipPath2)"/>
      <text x="230.3453" xml:space="preserve" y="691.2482" clip-path="url(#clipPath2)" font-family="sans-serif" stroke="none">Limited</text>
    </g>
    <g fill="url(#linearGradient6)" text-rendering="geometricPrecision" shape-rendering="geometricPrecision" transform="matrix(1,0,0,1,15,15)" stroke="url(#linearGradient6)">
      <path d="M356.1871 651.5343 L426.1871 651.5343 L426.1871 686.5343 L391.1871 721.5343 L356.1871 686.5343 Z" stroke="none" clip-path="url(#clipPath2)"/>
    </g>
    <g text-rendering="geometricPrecision" stroke-miterlimit="1.45" shape-rendering="geometricPrecision" transform="matrix(1,0,0,1,15,15)" stroke-linecap="butt">
      <path fill="none" d="M356.1871 651.5343 L426.1871 651.5343 L426.1871 686.5343 L391.1871 721.5343 L356.1871 686.5343 Z" clip-path="url(#clipPath2)"/>
      <text x="368.8394" xml:space="preserve" y="691.2482" clip-path="url(#clipPath2)" font-family="sans-serif" stroke="none">Optional</text>
    </g>
    <g fill="url(#linearGradient7)" text-rendering="geometricPrecision" shape-rendering="geometricPrecision" transform="matrix(1,0,0,1,15,15)" stroke="url(#linearGradient7)">
      <path d="M506.3537 651.5343 L576.3538 651.5343 L576.3538 686.5343 L541.3538 721.5343 L506.3537 686.5343 Z" stroke="none" clip-path="url(#clipPath2)"/>
    </g>
    <g text-rendering="geometricPrecision" stroke-miterlimit="1.45" shape-rendering="geometricPrecision" transform="matrix(1,0,0,1,15,15)" stroke-linecap="butt">
      <path fill="none" d="M506.3537 651.5343 L576.3538 651.5343 L576.3538 686.5343 L541.3538 721.5343 L506.3537 686.5343 Z" clip-path="url(#clipPath2)"/>
      <text x="513.0061" xml:space="preserve" y="691.2482" clip-path="url(#clipPath2)" font-family="sans-serif" stroke="none">Mandatory</text>
    </g>
    <g fill="url(#linearGradient8)" text-rendering="geometricPrecision" shape-rendering="geometricPrecision" transform="matrix(1,0,0,1,15,15)" stroke="url(#linearGradient8)">
      <rect x="634.6871" y="816.5343" clip-path="url(#clipPath2)" width="118" rx="29.5" ry="29.5" height="59" stroke="none"/>
    </g>
    <g text-rendering="geometricPrecision" stroke-miterlimit="1.45" shape-rendering="geometricPrecision" transform="matrix(1,0,0,1,15,15)" stroke-linecap="butt">
      <rect x="634.6871" y="816.5343" clip-path="url(#clipPath2)" fill="none" width="118" rx="29.5" ry="29.5" height="59"/>
      <text x="673.0123" xml:space="preserve" y="843.3976" clip-path="url(#clipPath2)" font-family="sans-serif" stroke="none">Multiple</text>
      <text x="666.0045" xml:space="preserve" y="858.0988" clip-path="url(#clipPath2)" font-family="sans-serif" stroke="none">signatures</text>
    </g>
    <g fill="url(#linearGradient9)" text-rendering="geometricPrecision" shape-rendering="geometricPrecision" transform="matrix(1,0,0,1,15,15)" stroke="url(#linearGradient9)">
      <rect x="930.6871" y="816.5343" clip-path="url(#clipPath2)" width="118" rx="29.5" ry="29.5" height="59" stroke="none"/>
    </g>
    <g text-rendering="geometricPrecision" stroke-miterlimit="1.45" shape-rendering="geometricPrecision" transform="matrix(1,0,0,1,15,15)" stroke-linecap="butt">
      <rect x="930.6871" y="816.5343" clip-path="url(#clipPath2)" fill="none" width="118" rx="29.5" ry="29.5" height="59"/>
      <text x="961.0084" xml:space="preserve" y="843.3976" clip-path="url(#clipPath2)" font-family="sans-serif" stroke="none">Composite</text>
      <text x="962.0045" xml:space="preserve" y="858.0988" clip-path="url(#clipPath2)" font-family="sans-serif" stroke="none">signatures</text>
    </g>
    <g fill="url(#linearGradient10)" text-rendering="geometricPrecision" shape-rendering="geometricPrecision" transform="matrix(1,0,0,1,15,15)" stroke="url(#linearGradient10)">
      <rect x="486.6871" y="816.5343" clip-path="url(#clipPath2)" width="118" rx="29.5" ry="29.5" height="59" stroke="none"/>
    </g>
    <g text-rendering="geometricPrecision" stroke-miterlimit="1.45" shape-rendering="geometricPrecision" transform="matrix(1,0,0,1,15,15)" stroke-linecap="butt">
      <rect x="486.6871" y="816.5343" clip-path="url(#clipPath2)" fill="none" width="118" rx="29.5" ry="29.5" height="59"/>
      <text x="525.3404" xml:space="preserve" y="843.3976" clip-path="url(#clipPath2)" font-family="sans-serif" stroke="none">Stateful</text>
      <text x="533.3502" xml:space="preserve" y="858.0988" clip-path="url(#clipPath2)" font-family="sans-serif" stroke="none">HBS</text>
    </g>
    <g fill="url(#linearGradient11)" text-rendering="geometricPrecision" shape-rendering="geometricPrecision" transform="matrix(1,0,0,1,15,15)" stroke="url(#linearGradient11)">
      <rect x="782.6871" y="816.5343" clip-path="url(#clipPath2)" width="118" rx="29.5" ry="29.5" height="59" stroke="none"/>
    </g>
    <g text-rendering="geometricPrecision" stroke-miterlimit="1.45" shape-rendering="geometricPrecision" transform="matrix(1,0,0,1,15,15)" stroke-linecap="butt">
      <rect x="782.6871" y="816.5343" clip-path="url(#clipPath2)" fill="none" width="118" rx="29.5" ry="29.5" height="59"/>
      <text x="817.0074" xml:space="preserve" y="843.3976" clip-path="url(#clipPath2)" font-family="sans-serif" stroke="none">Stateless</text>
      <text x="829.3502" xml:space="preserve" y="858.0988" clip-path="url(#clipPath2)" font-family="sans-serif" stroke="none">HBS</text>
    </g>
    <g fill="url(#linearGradient12)" text-rendering="geometricPrecision" shape-rendering="geometricPrecision" transform="matrix(1,0,0,1,15,15)" stroke="url(#linearGradient12)">
      <path d="M832.8954 651.5343 L902.8954 651.5343 L902.8954 686.5343 L867.8954 721.5343 L832.8954 686.5343 Z" stroke="none" clip-path="url(#clipPath2)"/>
    </g>
    <g text-rendering="geometricPrecision" stroke-miterlimit="1.45" shape-rendering="geometricPrecision" transform="matrix(1,0,0,1,15,15)" stroke-linecap="butt">
      <path fill="none" d="M832.8954 651.5343 L902.8954 651.5343 L902.8954 686.5343 L867.8954 721.5343 L832.8954 686.5343 Z" clip-path="url(#clipPath2)"/>
      <text x="848.5536" xml:space="preserve" y="691.2482" clip-path="url(#clipPath2)" font-family="sans-serif" stroke="none">Limited</text>
    </g>
    <g fill="url(#linearGradient13)" text-rendering="geometricPrecision" shape-rendering="geometricPrecision" transform="matrix(1,0,0,1,15,15)" stroke="url(#linearGradient13)">
      <path d="M673.4371 651.5343 L743.4371 651.5343 L743.4371 686.5343 L708.4371 721.5343 L673.4371 686.5343 Z" stroke="none" clip-path="url(#clipPath2)"/>
    </g>
    <g text-rendering="geometricPrecision" stroke-miterlimit="1.45" shape-rendering="geometricPrecision" transform="matrix(1,0,0,1,15,15)" stroke-linecap="butt">
      <path fill="none" d="M673.4371 651.5343 L743.4371 651.5343 L743.4371 686.5343 L708.4371 721.5343 L673.4371 686.5343 Z" clip-path="url(#clipPath2)"/>
      <text x="686.0894" xml:space="preserve" y="691.2482" clip-path="url(#clipPath2)" font-family="sans-serif" stroke="none">Optional</text>
    </g>
    <g text-rendering="geometricPrecision" stroke-miterlimit="1.45" shape-rendering="geometricPrecision" transform="matrix(1,0,0,1,15,15)" stroke-linecap="butt">
      <path fill="none" d="M441.3103 97.8172 L273.8995 238.9174" clip-path="url(#clipPath2)"/>
      <path d="M267.7824 244.0731 L280.1804 240.1627 L274.6641 238.2729 L273.7357 232.5163 Z" clip-path="url(#clipPath2)" stroke="none"/>
      <text x="340.2065" xml:space="preserve" y="168.3076" clip-path="url(#clipPath2)" font-family="sans-serif" stroke="none">Short</text>
      <text x="342.2075" xml:space="preserve" y="183.0088" clip-path="url(#clipPath2)" font-family="sans-serif" stroke="none">lived</text>
      <path fill="none" d="M261.0177 312.2559 L360.9899 438.6464" clip-path="url(#clipPath2)"/>
      <path d="M365.9529 444.9209 L362.43 432.4073 L360.3695 437.8621 L354.5869 438.611 Z" clip-path="url(#clipPath2)" stroke="none"/>
      <text x="292.4777" xml:space="preserve" y="375.9532" clip-path="url(#clipPath2)" font-family="sans-serif" stroke="none">Passive</text>
      <text x="284.1281" xml:space="preserve" y="390.6544" clip-path="url(#clipPath2)" font-family="sans-serif" stroke="none">negotiation</text>
      <path fill="none" d="M231.3649 341.9123 L231.3649 407.284" clip-path="url(#clipPath2)"/>
      <path d="M231.3649 415.284 L236.3649 403.284 L231.3649 406.284 L226.3649 403.284 Z" clip-path="url(#clipPath2)" stroke="none"/>
      <text x="205.6832" xml:space="preserve" y="393.3038" clip-path="url(#clipPath2)" font-family="sans-serif" stroke="none">Non-agile</text>
      <path fill="none" d="M201.7121 312.2559 L101.7398 438.6464" clip-path="url(#clipPath2)"/>
      <path d="M96.7768 444.9209 L108.1428 438.611 L102.3602 437.8621 L100.2998 432.4073 Z" clip-path="url(#clipPath2)" stroke="none"/>
      <text x="132.9044" xml:space="preserve" y="375.9532" clip-path="url(#clipPath2)" font-family="sans-serif" stroke="none">Active</text>
      <text x="119.8848" xml:space="preserve" y="390.6544" clip-path="url(#clipPath2)" font-family="sans-serif" stroke="none">negotiation</text>
      <path fill="none" d="M514.1492 97.8172 L681.56 238.9174" clip-path="url(#clipPath2)"/>
      <path d="M687.6771 244.0731 L681.7238 232.5163 L680.7953 238.2729 L675.2791 240.1627 Z" clip-path="url(#clipPath2)" stroke="none"/>
      <text x="587.5645" xml:space="preserve" y="168.3076" clip-path="url(#clipPath2)" font-family="sans-serif" stroke="none">Long</text>
      <text x="588.5723" xml:space="preserve" y="183.0088" clip-path="url(#clipPath2)" font-family="sans-serif" stroke="none">lived</text>
      <path fill="none" d="M724.0946 341.9123 L724.0946 407.284" clip-path="url(#clipPath2)"/>
      <path d="M724.0946 415.284 L729.0946 403.284 L724.0946 406.284 L719.0946 403.284 Z" clip-path="url(#clipPath2)" stroke="none"/>
      <text x="703.0858" xml:space="preserve" y="385.9532" clip-path="url(#clipPath2)" font-family="sans-serif" stroke="none">Passive</text>
      <text x="694.7362" xml:space="preserve" y="400.6544" clip-path="url(#clipPath2)" font-family="sans-serif" stroke="none">negotiation</text>
      <path fill="none" d="M694.4418 312.2559 L594.4696 438.6464" clip-path="url(#clipPath2)"/>
      <path d="M589.5066 444.9208 L600.8726 438.611 L595.09 437.8621 L593.0295 432.4073 Z" clip-path="url(#clipPath2)" stroke="none"/>
      <text x="606.7501" xml:space="preserve" y="382.3116" clip-path="url(#clipPath2)" font-family="sans-serif" stroke="none">Non-agile</text>
      <path fill="none" d="M753.7474 312.2559 L853.7197 438.6464" clip-path="url(#clipPath2)"/>
      <path d="M858.6826 444.9209 L855.1597 432.4073 L853.0993 437.8621 L847.3167 438.611 Z" clip-path="url(#clipPath2)" stroke="none"/>
      <text x="789.8774" xml:space="preserve" y="375.9532" clip-path="url(#clipPath2)" font-family="sans-serif" stroke="none">Active</text>
      <text x="776.8578" xml:space="preserve" y="390.6544" clip-path="url(#clipPath2)" font-family="sans-serif" stroke="none">negotiation</text>
      <path fill="none" d="M204.7488 522.9031 L124.6116 644.814" clip-path="url(#clipPath2)"/>
      <path d="M120.2173 651.499 L130.9869 644.218 L125.1609 643.9783 L122.6306 638.725 Z" clip-path="url(#clipPath2)" stroke="none"/>
      <path fill="none" d="M355.7191 509.697 L138.7892 658.0782" clip-path="url(#clipPath2)"/>
      <path d="M132.1861 662.5948 L144.9136 659.9469 L139.6146 657.5137 L139.2679 651.6931 Z" clip-path="url(#clipPath2)" stroke="none"/>
      <path fill="none" d="M75.7353 540.8933 L90.8626 643.5961" clip-path="url(#clipPath2)"/>
      <path d="M92.0284 651.5107 L95.2264 638.9102 L90.7169 642.6068 L85.3331 640.3674 Z" clip-path="url(#clipPath2)" stroke="none"/>
      <path fill="none" d="M114.2949 704.4274 L215.9628 810.7621" clip-path="url(#clipPath2)"/>
      <path d="M221.4914 816.5444 L216.8125 804.4156 L215.2718 810.0393 L209.5846 811.3263 Z" clip-path="url(#clipPath2)" stroke="none"/>
      <path fill="none" d="M98.1484 720.6072 L100.6295 808.5486" clip-path="url(#clipPath2)"/>
      <path d="M100.8551 816.5455 L105.5147 804.4092 L100.6013 807.5491 L95.5187 804.6913 Z" clip-path="url(#clipPath2)" stroke="none"/>
      <path fill="none" d="M236.8915 543.983 L245.8323 643.5898" clip-path="url(#clipPath2)"/>
      <path d="M246.5475 651.5577 L250.4547 639.1588 L245.7429 642.5938 L240.4947 640.0528 Z" clip-path="url(#clipPath2)" stroke="none"/>
      <path fill="none" d="M367.6245 521.5576 L279.3609 645.0251" clip-path="url(#clipPath2)"/>
      <path d="M274.7085 651.5331 L285.7547 644.6788 L279.9424 644.2115 L277.6196 638.8633 Z" clip-path="url(#clipPath2)" stroke="none"/>
      <path fill="none" d="M98.7898 517.82 L213.0581 645.5804" clip-path="url(#clipPath2)"/>
      <path d="M218.3913 651.5434 L214.1183 639.2657 L212.3915 644.8351 L206.6647 645.9323 Z" clip-path="url(#clipPath2)" stroke="none"/>
      <path fill="none" d="M249.6871 721.5417 L249.6871 808.522" clip-path="url(#clipPath2)"/>
      <path d="M249.6871 816.522 L254.6871 804.522 L249.6871 807.522 L244.6871 804.522 Z" clip-path="url(#clipPath2)" stroke="none"/>
      <path fill="none" d="M266.543 704.7 L364.8705 810.6678" clip-path="url(#clipPath2)"/>
      <path d="M370.3121 816.5321 L365.815 804.3347 L364.1904 809.9348 L358.4846 811.1367 Z" clip-path="url(#clipPath2)" stroke="none"/>
      <path fill="none" d="M232.8311 704.7 L134.5036 810.6678" clip-path="url(#clipPath2)"/>
      <path d="M129.0621 816.5322 L140.8895 811.1367 L135.1838 809.9348 L133.5592 804.3348 Z" clip-path="url(#clipPath2)" stroke="none"/>
      <path fill="none" d="M260.8438 520.0626 L358.8405 645.2219" clip-path="url(#clipPath2)"/>
      <path d="M363.7724 651.5208 L360.3113 638.9899 L358.224 644.4344 L352.4377 645.1548 Z" clip-path="url(#clipPath2)" stroke="none"/>
      <path fill="none" d="M394.1844 548.1442 L392.1177 643.567" clip-path="url(#clipPath2)"/>
      <path d="M391.9445 651.5651 L397.2032 639.6762 L392.1394 642.5673 L387.2055 639.4597 Z" clip-path="url(#clipPath2)" stroke="none"/>
      <path fill="none" d="M108.3023 508.3515 L349.4372 660.237" clip-path="url(#clipPath2)"/>
      <path d="M356.2064 664.5007 L348.7175 653.8745 L348.5911 659.704 L343.3879 662.3359 Z" clip-path="url(#clipPath2)" stroke="none"/>
      <path fill="none" d="M374.726 705.0894 L281.1579 810.5602" clip-path="url(#clipPath2)"/>
      <path d="M275.8488 816.5446 L287.5527 810.8861 L281.8215 809.8121 L280.0721 804.2498 Z" clip-path="url(#clipPath2)" stroke="none"/>
      <path fill="none" d="M392.5566 720.1399 L396.1601 808.5652" clip-path="url(#clipPath2)"/>
      <path d="M396.4859 816.5585 L400.9931 804.3649 L396.1194 807.566 L391.0014 804.7721 Z" clip-path="url(#clipPath2)" stroke="none"/>
      <path fill="none" d="M369.0086 699.3262 L284.4384 748.104 L274.6858 752.8359 L216.4017 777.7222 L197.5933 787.48 L151.4809 815.6333" clip-path="url(#clipPath2)"/>
      <path d="M144.6529 819.8021 L157.5003 817.8164 L152.3344 815.1122 L152.2894 809.2814 Z" clip-path="url(#clipPath2)" stroke="none"/>
      <path fill="none" d="M554.2763 543.9332 L545.2465 643.5781" clip-path="url(#clipPath2)"/>
      <path d="M544.5245 651.5455 L550.587 640.0457 L545.3367 642.5822 L540.6279 639.1432 Z" clip-path="url(#clipPath2)" stroke="none"/>
      <path fill="none" d="M692.3961 517.82 L578.0156 645.583" clip-path="url(#clipPath2)"/>
      <path d="M572.6795 651.5434 L584.4089 645.9379 L578.6826 644.838 L576.9584 639.2678 Z" clip-path="url(#clipPath2)" stroke="none"/>
      <path fill="none" d="M558.4429 704.4274 L659.9968 810.759" clip-path="url(#clipPath2)"/>
      <path d="M665.5222 816.5444 L660.85 804.413 L659.3062 810.0359 L653.6183 811.3198 Z" clip-path="url(#clipPath2)" stroke="none"/>
      <path fill="none" d="M542.2794 720.6072 L544.6686 808.5484" clip-path="url(#clipPath2)"/>
      <path d="M544.8859 816.5455 L549.5582 804.4141 L544.6415 807.5488 L539.5618 804.6857 Z" clip-path="url(#clipPath2)" stroke="none"/>
      <path fill="none" d="M563.7286 699.1316 L660.5311 753.6324 L670.5658 758.5689 L681.0534 762.8531 L724.0256 777.4012 L734.2629 782.1982 L752.9955 792.5258 L791.5956 815.8137" clip-path="url(#clipPath2)"/>
      <path d="M798.4456 819.9463 L790.7535 809.4662 L790.7394 815.2971 L785.5878 818.0286 Z" clip-path="url(#clipPath2)" stroke="none"/>
      <path fill="none" d="M600.1994 509.1488 L826.2288 658.9244" clip-path="url(#clipPath2)"/>
      <path d="M832.8975 663.3434 L825.6562 652.5469 L825.3951 658.372 L820.1325 660.8829 Z" clip-path="url(#clipPath2)" stroke="none"/>
      <path fill="none" d="M751.8472 521.8068 L838.6108 644.9655" clip-path="url(#clipPath2)"/>
      <path d="M843.2181 651.5056 L840.3946 638.8159 L838.0349 644.148 L832.2195 644.5751 Z" clip-path="url(#clipPath2)" stroke="none"/>
      <path fill="none" d="M882.2266 543.4349 L872.1949 643.6028" clip-path="url(#clipPath2)"/>
      <path d="M871.3977 651.563 L877.5687 640.121 L872.2946 642.6078 L867.6185 639.1245 Z" clip-path="url(#clipPath2)" stroke="none"/>
      <path fill="none" d="M849.6282 703.2592 L731.7009 811.23" clip-path="url(#clipPath2)"/>
      <path d="M725.8004 816.6323 L738.0275 812.2166 L732.4384 810.5547 L731.2747 804.8411 Z" clip-path="url(#clipPath2)" stroke="none"/>
      <path fill="none" d="M883.0302 706.355 L962.308 810.1783" clip-path="url(#clipPath2)"/>
      <path d="M967.1631 816.5366 L963.8544 803.9647 L961.7011 809.3835 L955.9065 810.0336 Z" clip-path="url(#clipPath2)" stroke="none"/>
      <path fill="none" d="M862.9622 716.5574 L847.8303 808.6475" clip-path="url(#clipPath2)"/>
      <path d="M846.5332 816.5416 L853.4127 805.5111 L847.9924 807.6607 L843.545 803.8897 Z" clip-path="url(#clipPath2)" stroke="none"/>
      <path fill="none" d="M846.0392 699.6641 L761.447 750.4816 L750.9903 755.7909 L740.0422 760.761 L728.5022 764.5392 L716.708 767.089 L681.7183 772.3705 L669.8082 775.3069 L658.5856 779.9493 L596.5544 816.2592" clip-path="url(#clipPath2)"/>
      <path d="M589.6503 820.3005 L602.5323 818.5536 L597.4175 815.754 L597.4807 809.9234 Z" clip-path="url(#clipPath2)" stroke="none"/>
      <path fill="none" d="M588.1284 521.2586 L678.2632 645.0825" clip-path="url(#clipPath2)"/>
      <path d="M682.9713 651.5504 L679.9515 638.906 L677.6747 644.274 L671.8667 644.7911 Z" clip-path="url(#clipPath2)" stroke="none"/>
      <path fill="none" d="M856.9124 518.0692 L744.5563 645.5522" clip-path="url(#clipPath2)"/>
      <path d="M739.2667 651.5539 L750.9521 645.8573 L745.2175 644.8019 L743.45 639.2454 Z" clip-path="url(#clipPath2)" stroke="none"/>
      <path fill="none" d="M719.3125 544.7555 L711.7333 643.563" clip-path="url(#clipPath2)"/>
      <path d="M711.1214 651.5396 L717.0246 639.9572 L711.8098 642.5659 L707.0538 639.1923 Z" clip-path="url(#clipPath2)" stroke="none"/>
      <path fill="none" d="M690.7754 703.8433 L581.4739 810.9621" clip-path="url(#clipPath2)"/>
      <path d="M575.7603 816.5616 L587.8304 811.7333 L582.1882 810.2621 L580.8311 804.5913 Z" clip-path="url(#clipPath2)" stroke="none"/>
      <path fill="none" d="M730.7874 699.2094 L938.0718 816.7627" clip-path="url(#clipPath2)"/>
      <path d="M945.0307 820.7092 L937.059 810.4402 L937.202 816.2694 L932.1259 819.1387 Z" clip-path="url(#clipPath2)" stroke="none"/>
      <path fill="none" d="M705.4734 718.5823 L697.1545 808.539" clip-path="url(#clipPath2)"/>
      <path d="M696.4178 816.505 L702.5016 805.0164 L697.2466 807.5432 L692.5441 804.0956 Z" clip-path="url(#clipPath2)" stroke="none"/>
      <path fill="none" d="M724.3614 705.5956 L811.8956 810.3739" clip-path="url(#clipPath2)"/>
      <path d="M817.0246 816.5134 L813.1682 804.0985 L811.2545 809.6064 L805.4939 810.5098 Z" clip-path="url(#clipPath2)" stroke="none"/>
    </g>
  </g>
</svg>
