<?xml version="1.0" encoding="UTF-8"?><svg xmlns="http://www.w3.org/2000/svg" xmlns:xlink="http://www.w3.org/1999/xlink" fill-opacity="1" color-rendering="auto" color-interpolation="auto" text-rendering="auto" stroke="black" stroke-linecap="square" width="1123" stroke-miterlimit="10" shape-rendering="auto" stroke-opacity="1" fill="black" stroke-dasharray="none" font-weight="normal" stroke-width="1" height="935" font-family="'Dialog'" font-style="normal" stroke-linejoin="miter" font-size="12px" stroke-dashoffset="0" image-rendering="auto">
  <!--Generated by ySVG 2.6-->
  <defs id="genericDefs"/>
  <g>
    <defs id="defs1">
      <linearGradient x1="671.172" gradientUnits="userSpaceOnUse" x2="789.172" y1="845.7355" y2="904.7355" id="linearGradient1" spreadMethod="reflect">
        <stop stop-opacity="1" stop-color="rgb(232,238,247)" offset="0%"/>
        <stop stop-opacity="1" stop-color="rgb(183,201,227)" offset="100%"/>
      </linearGradient>
      <linearGradient x1="413.172" gradientUnits="userSpaceOnUse" x2="531.172" y1="845.7355" y2="904.7355" id="linearGradient2" spreadMethod="reflect">
        <stop stop-opacity="1" stop-color="rgb(232,238,247)" offset="0%"/>
        <stop stop-opacity="1" stop-color="rgb(183,201,227)" offset="100%"/>
      </linearGradient>
      <linearGradient x1="561.172" gradientUnits="userSpaceOnUse" x2="663.672" y1="713.2355" y2="790.7355" id="linearGradient3" spreadMethod="reflect">
        <stop stop-opacity="1" stop-color="rgb(232,238,247)" offset="0%"/>
        <stop stop-opacity="1" stop-color="rgb(183,201,227)" offset="100%"/>
      </linearGradient>
      <linearGradient x1="826.172" gradientUnits="userSpaceOnUse" x2="928.672" y1="713.2355" y2="790.7355" id="linearGradient4" spreadMethod="reflect">
        <stop stop-opacity="1" stop-color="rgb(232,238,247)" offset="0%"/>
        <stop stop-opacity="1" stop-color="rgb(183,201,227)" offset="100%"/>
      </linearGradient>
      <linearGradient x1="693.672" gradientUnits="userSpaceOnUse" x2="796.172" y1="713.2355" y2="790.7355" id="linearGradient5" spreadMethod="reflect">
        <stop stop-opacity="1" stop-color="rgb(232,238,247)" offset="0%"/>
        <stop stop-opacity="1" stop-color="rgb(183,201,227)" offset="100%"/>
      </linearGradient>
      <linearGradient x1="129.547" gradientUnits="userSpaceOnUse" x2="247.547" y1="845.7355" y2="904.7355" id="linearGradient6" spreadMethod="reflect">
        <stop stop-opacity="1" stop-color="rgb(232,238,247)" offset="0%"/>
        <stop stop-opacity="1" stop-color="rgb(183,201,227)" offset="100%"/>
      </linearGradient>
      <linearGradient x1="819.172" gradientUnits="userSpaceOnUse" x2="937.172" y1="845.7355" y2="904.7355" id="linearGradient7" spreadMethod="reflect">
        <stop stop-opacity="1" stop-color="rgb(232,238,247)" offset="0%"/>
        <stop stop-opacity="1" stop-color="rgb(183,201,227)" offset="100%"/>
      </linearGradient>
      <linearGradient x1="958.672" gradientUnits="userSpaceOnUse" x2="1076.672" y1="845.7355" y2="904.7355" id="linearGradient8" spreadMethod="reflect">
        <stop stop-opacity="1" stop-color="rgb(232,238,247)" offset="0%"/>
        <stop stop-opacity="1" stop-color="rgb(183,201,227)" offset="100%"/>
      </linearGradient>
      <linearGradient x1="15.672" gradientUnits="userSpaceOnUse" x2="118.172" y1="713.2355" y2="790.7355" id="linearGradient9" spreadMethod="reflect">
        <stop stop-opacity="1" stop-color="rgb(232,238,247)" offset="0%"/>
        <stop stop-opacity="1" stop-color="rgb(183,201,227)" offset="100%"/>
      </linearGradient>
      <linearGradient x1="280.672" gradientUnits="userSpaceOnUse" x2="383.172" y1="713.2355" y2="790.7355" id="linearGradient10" spreadMethod="reflect">
        <stop stop-opacity="1" stop-color="rgb(232,238,247)" offset="0%"/>
        <stop stop-opacity="1" stop-color="rgb(183,201,227)" offset="100%"/>
      </linearGradient>
      <linearGradient x1="148.172" gradientUnits="userSpaceOnUse" x2="250.672" y1="713.2355" y2="790.7355" id="linearGradient11" spreadMethod="reflect">
        <stop stop-opacity="1" stop-color="rgb(232,238,247)" offset="0%"/>
        <stop stop-opacity="1" stop-color="rgb(183,201,227)" offset="100%"/>
      </linearGradient>
      <clipPath clipPathUnits="userSpaceOnUse" id="clipPath1">
        <path d="M0 0 L1123 0 L1123 935 L0 935 L0 0 Z"/>
      </clipPath>
      <clipPath clipPathUnits="userSpaceOnUse" id="clipPath2">
        <path d="M-15 -15 L1108 -15 L1108 920 L-15 920 L-15 -15 Z"/>
      </clipPath>
    </defs>
    <g fill="white" text-rendering="geometricPrecision" shape-rendering="geometricPrecision" transform="translate(15,15)" stroke="white">
      <rect x="-15" width="1123" height="935" y="-15" clip-path="url(#clipPath2)" stroke="none"/>
    </g>
    <g fill="rgb(255,204,0)" text-rendering="geometricPrecision" shape-rendering="geometricPrecision" transform="matrix(1,0,0,1,15,15)" stroke="rgb(255,204,0)">
      <path d="M410.6081 67.1216 L477.7297 0 L544.8514 67.1216 L477.7297 134.2432 Z" fill-rule="evenodd" clip-path="url(#clipPath2)" stroke="none"/>
    </g>
    <g text-rendering="geometricPrecision" stroke-miterlimit="1.45" shape-rendering="geometricPrecision" transform="matrix(1,0,0,1,15,15)" stroke-linecap="butt">
      <path fill="none" d="M410.6081 67.1216 L477.7297 0 L544.8514 67.1216 L477.7297 134.2432 Z" fill-rule="evenodd" clip-path="url(#clipPath2)"/>
      <text x="432.0471" xml:space="preserve" y="71.8355" clip-path="url(#clipPath2)" font-family="sans-serif" stroke="none">Use case lifetime</text>
    </g>
    <g fill="rgb(255,204,0)" text-rendering="geometricPrecision" shape-rendering="geometricPrecision" transform="matrix(1,0,0,1,15,15)" stroke="rgb(255,204,0)">
      <path d="M656.973 274.7672 L724.0945 207.6455 L791.2161 274.7672 L724.0945 341.8887 Z" fill-rule="evenodd" clip-path="url(#clipPath2)" stroke="none"/>
    </g>
    <g text-rendering="geometricPrecision" stroke-miterlimit="1.45" shape-rendering="geometricPrecision" transform="matrix(1,0,0,1,15,15)" stroke-linecap="butt">
      <path fill="none" d="M656.973 274.7672 L724.0945 207.6455 L791.2161 274.7672 L724.0945 341.8887 Z" fill-rule="evenodd" clip-path="url(#clipPath2)"/>
      <text x="704.0848" xml:space="preserve" y="272.1304" clip-path="url(#clipPath2)" font-family="sans-serif" stroke="none">Type of</text>
      <text x="681.7343" xml:space="preserve" y="286.8316" clip-path="url(#clipPath2)" font-family="sans-serif" stroke="none">protocol in use?</text>
    </g>
    <g fill="rgb(255,204,0)" text-rendering="geometricPrecision" shape-rendering="geometricPrecision" transform="matrix(1,0,0,1,15,15)" stroke="rgb(255,204,0)">
      <path d="M827.6865 482.4127 L894.8081 415.2911 L961.9297 482.4127 L894.8081 549.5343 Z" fill-rule="evenodd" clip-path="url(#clipPath2)" stroke="none"/>
    </g>
    <g text-rendering="geometricPrecision" stroke-miterlimit="1.45" shape-rendering="geometricPrecision" transform="matrix(1,0,0,1,15,15)" stroke-linecap="butt">
      <path fill="none" d="M827.6865 482.4127 L894.8081 415.2911 L961.9297 482.4127 L894.8081 549.5343 Z" fill-rule="evenodd" clip-path="url(#clipPath2)"/>
      <text x="870.7964" xml:space="preserve" y="472.4254" clip-path="url(#clipPath2)" font-family="sans-serif" stroke="none">Requires</text>
      <text x="869.1294" xml:space="preserve" y="487.1266" clip-path="url(#clipPath2)" font-family="sans-serif" stroke="none">backward</text>
      <text x="858.4595" xml:space="preserve" y="501.8277" clip-path="url(#clipPath2)" font-family="sans-serif" stroke="none">compatibility?</text>
    </g>
    <g fill="rgb(255,204,0)" text-rendering="geometricPrecision" shape-rendering="geometricPrecision" transform="matrix(1,0,0,1,15,15)" stroke="rgb(255,204,0)">
      <path d="M656.973 482.4127 L724.0945 415.2911 L791.2161 482.4127 L724.0945 549.5343 Z" fill-rule="evenodd" clip-path="url(#clipPath2)" stroke="none"/>
    </g>
    <g text-rendering="geometricPrecision" stroke-miterlimit="1.45" shape-rendering="geometricPrecision" transform="matrix(1,0,0,1,15,15)" stroke-linecap="butt">
      <path fill="none" d="M656.973 482.4127 L724.0945 415.2911 L791.2161 482.4127 L724.0945 549.5343 Z" fill-rule="evenodd" clip-path="url(#clipPath2)"/>
      <text x="700.0829" xml:space="preserve" y="472.4254" clip-path="url(#clipPath2)" font-family="sans-serif" stroke="none">Requires</text>
      <text x="698.4159" xml:space="preserve" y="487.1266" clip-path="url(#clipPath2)" font-family="sans-serif" stroke="none">backward</text>
      <text x="687.746" xml:space="preserve" y="501.8277" clip-path="url(#clipPath2)" font-family="sans-serif" stroke="none">compatibility?</text>
    </g>
    <g fill="rgb(255,204,0)" text-rendering="geometricPrecision" shape-rendering="geometricPrecision" transform="matrix(1,0,0,1,15,15)" stroke="rgb(255,204,0)">
      <path d="M492.7298 482.4127 L559.8513 415.2911 L626.9729 482.4127 L559.8513 549.5343 Z" fill-rule="evenodd" clip-path="url(#clipPath2)" stroke="none"/>
    </g>
    <g text-rendering="geometricPrecision" stroke-miterlimit="1.45" shape-rendering="geometricPrecision" transform="matrix(1,0,0,1,15,15)" stroke-linecap="butt">
      <path fill="none" d="M492.7298 482.4127 L559.8513 415.2911 L626.9729 482.4127 L559.8513 549.5343 Z" fill-rule="evenodd" clip-path="url(#clipPath2)"/>
      <text x="535.8397" xml:space="preserve" y="472.4254" clip-path="url(#clipPath2)" font-family="sans-serif" stroke="none">Requires</text>
      <text x="534.1727" xml:space="preserve" y="487.1266" clip-path="url(#clipPath2)" font-family="sans-serif" stroke="none">backward</text>
      <text x="523.5027" xml:space="preserve" y="501.8277" clip-path="url(#clipPath2)" font-family="sans-serif" stroke="none">compatibility?</text>
    </g>
    <g fill="rgb(255,204,0)" text-rendering="geometricPrecision" shape-rendering="geometricPrecision" transform="matrix(1,0,0,1,15,15)" stroke="rgb(255,204,0)">
      <path d="M164.2432 274.7672 L231.3649 207.6455 L298.4865 274.7672 L231.3649 341.8887 Z" fill-rule="evenodd" clip-path="url(#clipPath2)" stroke="none"/>
    </g>
    <g text-rendering="geometricPrecision" stroke-miterlimit="1.45" shape-rendering="geometricPrecision" transform="matrix(1,0,0,1,15,15)" stroke-linecap="butt">
      <path fill="none" d="M164.2432 274.7672 L231.3649 207.6455 L298.4865 274.7672 L231.3649 341.8887 Z" fill-rule="evenodd" clip-path="url(#clipPath2)"/>
      <text x="211.3551" xml:space="preserve" y="272.1304" clip-path="url(#clipPath2)" font-family="sans-serif" stroke="none">Type of</text>
      <text x="189.0045" xml:space="preserve" y="286.8316" clip-path="url(#clipPath2)" font-family="sans-serif" stroke="none">protocol in use?</text>
    </g>
    <g fill="rgb(255,204,0)" text-rendering="geometricPrecision" shape-rendering="geometricPrecision" transform="matrix(1,0,0,1,15,15)" stroke="rgb(255,204,0)">
      <path d="M328.4865 482.4127 L395.6082 415.2911 L462.7297 482.4127 L395.6082 549.5343 Z" fill-rule="evenodd" clip-path="url(#clipPath2)" stroke="none"/>
    </g>
    <g text-rendering="geometricPrecision" stroke-miterlimit="1.45" shape-rendering="geometricPrecision" transform="matrix(1,0,0,1,15,15)" stroke-linecap="butt">
      <path fill="none" d="M328.4865 482.4127 L395.6082 415.2911 L462.7297 482.4127 L395.6082 549.5343 Z" fill-rule="evenodd" clip-path="url(#clipPath2)"/>
      <text x="371.5964" xml:space="preserve" y="472.4254" clip-path="url(#clipPath2)" font-family="sans-serif" stroke="none">Requires</text>
      <text x="369.9294" xml:space="preserve" y="487.1266" clip-path="url(#clipPath2)" font-family="sans-serif" stroke="none">backward</text>
      <text x="359.2595" xml:space="preserve" y="501.8277" clip-path="url(#clipPath2)" font-family="sans-serif" stroke="none">compatibility?</text>
    </g>
    <g fill="rgb(255,204,0)" text-rendering="geometricPrecision" shape-rendering="geometricPrecision" transform="matrix(1,0,0,1,15,15)" stroke="rgb(255,204,0)">
      <path d="M164.2433 482.4127 L231.3649 415.2911 L298.4865 482.4127 L231.3649 549.5343 Z" fill-rule="evenodd" clip-path="url(#clipPath2)" stroke="none"/>
    </g>
    <g text-rendering="geometricPrecision" stroke-miterlimit="1.45" shape-rendering="geometricPrecision" transform="matrix(1,0,0,1,15,15)" stroke-linecap="butt">
      <path fill="none" d="M164.2433 482.4127 L231.3649 415.2911 L298.4865 482.4127 L231.3649 549.5343 Z" fill-rule="evenodd" clip-path="url(#clipPath2)"/>
      <text x="207.3531" xml:space="preserve" y="472.4254" clip-path="url(#clipPath2)" font-family="sans-serif" stroke="none">Requires</text>
      <text x="205.6861" xml:space="preserve" y="487.1266" clip-path="url(#clipPath2)" font-family="sans-serif" stroke="none">backward</text>
      <text x="195.0162" xml:space="preserve" y="501.8277" clip-path="url(#clipPath2)" font-family="sans-serif" stroke="none">compatibility?</text>
    </g>
    <g fill="rgb(255,204,0)" text-rendering="geometricPrecision" shape-rendering="geometricPrecision" transform="matrix(1,0,0,1,15,15)" stroke="rgb(255,204,0)">
      <path d="M0 482.4127 L67.1216 415.2911 L134.2432 482.4127 L67.1216 549.5343 Z" fill-rule="evenodd" clip-path="url(#clipPath2)" stroke="none"/>
    </g>
    <g text-rendering="geometricPrecision" stroke-miterlimit="1.45" shape-rendering="geometricPrecision" transform="matrix(1,0,0,1,15,15)" stroke-linecap="butt">
      <path fill="none" d="M0 482.4127 L67.1216 415.2911 L134.2432 482.4127 L67.1216 549.5343 Z" fill-rule="evenodd" clip-path="url(#clipPath2)"/>
      <text x="43.1099" xml:space="preserve" y="472.4254" clip-path="url(#clipPath2)" font-family="sans-serif" stroke="none">Requires</text>
      <text x="41.4429" xml:space="preserve" y="487.1266" clip-path="url(#clipPath2)" font-family="sans-serif" stroke="none">backward</text>
      <text x="30.773" xml:space="preserve" y="501.8277" clip-path="url(#clipPath2)" font-family="sans-serif" stroke="none">compatibility?</text>
    </g>
    <g fill="url(#linearGradient1)" text-rendering="geometricPrecision" shape-rendering="geometricPrecision" transform="matrix(1,0,0,1,15,15)" stroke="url(#linearGradient1)">
      <rect x="671.172" y="845.7355" clip-path="url(#clipPath2)" width="118" rx="29.5" ry="29.5" height="59" stroke="none"/>
    </g>
    <g text-rendering="geometricPrecision" stroke-miterlimit="1.45" shape-rendering="geometricPrecision" transform="matrix(1,0,0,1,15,15)" stroke-linecap="butt">
      <rect x="671.172" y="845.7355" clip-path="url(#clipPath2)" fill="none" width="118" rx="29.5" ry="29.5" height="59"/>
      <text x="701.4933" xml:space="preserve" y="872.5988" clip-path="url(#clipPath2)" font-family="sans-serif" stroke="none">Composite</text>
      <text x="702.4894" xml:space="preserve" y="887.2999" clip-path="url(#clipPath2)" font-family="sans-serif" stroke="none">signatures</text>
    </g>
    <g fill="url(#linearGradient2)" text-rendering="geometricPrecision" shape-rendering="geometricPrecision" transform="matrix(1,0,0,1,15,15)" stroke="url(#linearGradient2)">
      <rect x="413.172" y="845.7355" clip-path="url(#clipPath2)" width="118" rx="29.5" ry="29.5" height="59" stroke="none"/>
    </g>
    <g text-rendering="geometricPrecision" stroke-miterlimit="1.45" shape-rendering="geometricPrecision" transform="matrix(1,0,0,1,15,15)" stroke-linecap="butt">
      <rect x="413.172" y="845.7355" clip-path="url(#clipPath2)" fill="none" width="118" rx="29.5" ry="29.5" height="59"/>
      <text x="451.8253" xml:space="preserve" y="872.5988" clip-path="url(#clipPath2)" font-family="sans-serif" stroke="none">Stateful</text>
      <text x="459.8351" xml:space="preserve" y="887.2999" clip-path="url(#clipPath2)" font-family="sans-serif" stroke="none">HBS</text>
    </g>
    <g fill="url(#linearGradient3)" text-rendering="geometricPrecision" shape-rendering="geometricPrecision" transform="matrix(1,0,0,1,15,15)" stroke="url(#linearGradient3)">
      <path d="M573.672 713.2355 L651.172 713.2355 L651.172 751.9855 L612.422 790.7355 L573.672 751.9855 Z" stroke="none" clip-path="url(#clipPath2)"/>
    </g>
    <g text-rendering="geometricPrecision" stroke-miterlimit="1.45" shape-rendering="geometricPrecision" transform="matrix(1,0,0,1,15,15)" stroke-linecap="butt">
      <path fill="none" d="M573.672 713.2355 L651.172 713.2355 L651.172 751.9855 L612.422 790.7355 L573.672 751.9855 Z" clip-path="url(#clipPath2)"/>
      <text x="584.0743" xml:space="preserve" y="756.6993" clip-path="url(#clipPath2)" font-family="sans-serif" stroke="none">Mandatory</text>
    </g>
    <g fill="url(#linearGradient4)" text-rendering="geometricPrecision" shape-rendering="geometricPrecision" transform="matrix(1,0,0,1,15,15)" stroke="url(#linearGradient4)">
      <path d="M838.672 713.2355 L916.172 713.2355 L916.172 751.9855 L877.422 790.7355 L838.672 751.9855 Z" stroke="none" clip-path="url(#clipPath2)"/>
    </g>
    <g text-rendering="geometricPrecision" stroke-miterlimit="1.45" shape-rendering="geometricPrecision" transform="matrix(1,0,0,1,15,15)" stroke-linecap="butt">
      <path fill="none" d="M838.672 713.2355 L916.172 713.2355 L916.172 751.9855 L877.422 790.7355 L838.672 751.9855 Z" clip-path="url(#clipPath2)"/>
      <text x="855.0743" xml:space="preserve" y="756.6993" clip-path="url(#clipPath2)" font-family="sans-serif" stroke="none">Optional</text>
    </g>
    <g fill="url(#linearGradient5)" text-rendering="geometricPrecision" shape-rendering="geometricPrecision" transform="matrix(1,0,0,1,15,15)" stroke="url(#linearGradient5)">
      <path d="M706.172 713.2355 L783.672 713.2355 L783.672 751.9855 L744.922 790.7355 L706.172 751.9855 Z" stroke="none" clip-path="url(#clipPath2)"/>
    </g>
    <g text-rendering="geometricPrecision" stroke-miterlimit="1.45" shape-rendering="geometricPrecision" transform="matrix(1,0,0,1,15,15)" stroke-linecap="butt">
      <path fill="none" d="M706.172 713.2355 L783.672 713.2355 L783.672 751.9855 L744.922 790.7355 L706.172 751.9855 Z" clip-path="url(#clipPath2)"/>
      <text x="725.5802" xml:space="preserve" y="756.6993" clip-path="url(#clipPath2)" font-family="sans-serif" stroke="none">Limited</text>
    </g>
    <g fill="url(#linearGradient6)" text-rendering="geometricPrecision" shape-rendering="geometricPrecision" transform="matrix(1,0,0,1,15,15)" stroke="url(#linearGradient6)">
      <rect x="129.547" y="845.7355" clip-path="url(#clipPath2)" width="118" rx="29.5" ry="29.5" height="59" stroke="none"/>
    </g>
    <g text-rendering="geometricPrecision" stroke-miterlimit="1.45" shape-rendering="geometricPrecision" transform="matrix(1,0,0,1,15,15)" stroke-linecap="butt">
      <rect x="129.547" y="845.7355" clip-path="url(#clipPath2)" fill="none" width="118" rx="29.5" ry="29.5" height="59"/>
      <text x="167.8722" xml:space="preserve" y="872.5988" clip-path="url(#clipPath2)" font-family="sans-serif" stroke="none">Multiple</text>
      <text x="160.8644" xml:space="preserve" y="887.2999" clip-path="url(#clipPath2)" font-family="sans-serif" stroke="none">signatures</text>
    </g>
    <g fill="url(#linearGradient7)" text-rendering="geometricPrecision" shape-rendering="geometricPrecision" transform="matrix(1,0,0,1,15,15)" stroke="url(#linearGradient7)">
      <rect x="819.172" y="845.7355" clip-path="url(#clipPath2)" width="118" rx="29.5" ry="29.5" height="59" stroke="none"/>
    </g>
    <g text-rendering="geometricPrecision" stroke-miterlimit="1.45" shape-rendering="geometricPrecision" transform="matrix(1,0,0,1,15,15)" stroke-linecap="butt">
      <rect x="819.172" y="845.7355" clip-path="url(#clipPath2)" fill="none" width="118" rx="29.5" ry="29.5" height="59"/>
      <text x="855.5021" xml:space="preserve" y="879.9493" clip-path="url(#clipPath2)" font-family="sans-serif" stroke="none">ML-DSA</text>
    </g>
    <g fill="url(#linearGradient8)" text-rendering="geometricPrecision" shape-rendering="geometricPrecision" transform="matrix(1,0,0,1,15,15)" stroke="url(#linearGradient8)">
      <rect x="958.672" y="845.7355" clip-path="url(#clipPath2)" width="118" rx="29.5" ry="29.5" height="59" stroke="none"/>
    </g>
    <g text-rendering="geometricPrecision" stroke-miterlimit="1.45" shape-rendering="geometricPrecision" transform="matrix(1,0,0,1,15,15)" stroke-linecap="butt">
      <rect x="958.672" y="845.7355" clip-path="url(#clipPath2)" fill="none" width="118" rx="29.5" ry="29.5" height="59"/>
      <text x="992.9923" xml:space="preserve" y="872.5988" clip-path="url(#clipPath2)" font-family="sans-serif" stroke="none">Stateless</text>
      <text x="1005.3351" xml:space="preserve" y="887.2999" clip-path="url(#clipPath2)" font-family="sans-serif" stroke="none">HBS</text>
    </g>
    <g fill="url(#linearGradient9)" text-rendering="geometricPrecision" shape-rendering="geometricPrecision" transform="matrix(1,0,0,1,15,15)" stroke="url(#linearGradient9)">
      <path d="M28.172 713.2355 L105.672 713.2355 L105.672 751.9855 L66.922 790.7355 L28.172 751.9855 Z" stroke="none" clip-path="url(#clipPath2)"/>
    </g>
    <g text-rendering="geometricPrecision" stroke-miterlimit="1.45" shape-rendering="geometricPrecision" transform="matrix(1,0,0,1,15,15)" stroke-linecap="butt">
      <path fill="none" d="M28.172 713.2355 L105.672 713.2355 L105.672 751.9855 L66.922 790.7355 L28.172 751.9855 Z" clip-path="url(#clipPath2)"/>
      <text x="38.5743" xml:space="preserve" y="756.6993" clip-path="url(#clipPath2)" font-family="sans-serif" stroke="none">Mandatory</text>
    </g>
    <g fill="url(#linearGradient10)" text-rendering="geometricPrecision" shape-rendering="geometricPrecision" transform="matrix(1,0,0,1,15,15)" stroke="url(#linearGradient10)">
      <path d="M293.172 713.2355 L370.672 713.2355 L370.672 751.9855 L331.922 790.7355 L293.172 751.9855 Z" stroke="none" clip-path="url(#clipPath2)"/>
    </g>
    <g text-rendering="geometricPrecision" stroke-miterlimit="1.45" shape-rendering="geometricPrecision" transform="matrix(1,0,0,1,15,15)" stroke-linecap="butt">
      <path fill="none" d="M293.172 713.2355 L370.672 713.2355 L370.672 751.9855 L331.922 790.7355 L293.172 751.9855 Z" clip-path="url(#clipPath2)"/>
      <text x="309.5743" xml:space="preserve" y="756.6993" clip-path="url(#clipPath2)" font-family="sans-serif" stroke="none">Optional</text>
    </g>
    <g fill="url(#linearGradient11)" text-rendering="geometricPrecision" shape-rendering="geometricPrecision" transform="matrix(1,0,0,1,15,15)" stroke="url(#linearGradient11)">
      <path d="M160.672 713.2355 L238.172 713.2355 L238.172 751.9855 L199.422 790.7355 L160.672 751.9855 Z" stroke="none" clip-path="url(#clipPath2)"/>
    </g>
    <g text-rendering="geometricPrecision" stroke-miterlimit="1.45" shape-rendering="geometricPrecision" transform="matrix(1,0,0,1,15,15)" stroke-linecap="butt">
      <path fill="none" d="M160.672 713.2355 L238.172 713.2355 L238.172 751.9855 L199.422 790.7355 L160.672 751.9855 Z" clip-path="url(#clipPath2)"/>
      <text x="180.0802" xml:space="preserve" y="756.6993" clip-path="url(#clipPath2)" font-family="sans-serif" stroke="none">Limited</text>
    </g>
    <g text-rendering="geometricPrecision" stroke-miterlimit="1.45" shape-rendering="geometricPrecision" transform="matrix(1,0,0,1,15,15)" stroke-linecap="butt">
      <path fill="none" d="M511.2905 100.712 L511.2905 144.2432 L724.0946 144.2432 L724.0946 199.6455" clip-path="url(#clipPath2)"/>
      <path d="M724.0946 207.6455 L729.0946 195.6455 L724.0946 198.6455 L719.0946 195.6455 Z" clip-path="url(#clipPath2)" stroke="none"/>
      <text x="709.7538" xml:space="preserve" y="178.3076" clip-path="url(#clipPath2)" font-family="sans-serif" stroke="none">Short</text>
      <text x="711.7548" xml:space="preserve" y="193.0088" clip-path="url(#clipPath2)" font-family="sans-serif" stroke="none">lived</text>
      <path fill="none" d="M768.8423 297.17 L768.8423 351.8887 L894.8081 351.8887 L894.8081 407.2601" clip-path="url(#clipPath2)"/>
      <path d="M894.8081 415.2601 L899.8081 403.2601 L894.8081 406.2601 L889.8081 403.2601 Z" clip-path="url(#clipPath2)" stroke="none"/>
      <text x="873.7993" xml:space="preserve" y="385.9532" clip-path="url(#clipPath2)" font-family="sans-serif" stroke="none">Passive</text>
      <text x="865.4497" xml:space="preserve" y="400.6544" clip-path="url(#clipPath2)" font-family="sans-serif" stroke="none">negotiation</text>
      <path fill="none" d="M724.0946 341.8887 L724.0946 407.2911" clip-path="url(#clipPath2)"/>
      <path d="M724.0946 415.2911 L729.0946 403.2911 L724.0946 406.2911 L719.0946 403.2911 Z" clip-path="url(#clipPath2)" stroke="none"/>
      <text x="698.413" xml:space="preserve" y="393.3038" clip-path="url(#clipPath2)" font-family="sans-serif" stroke="none">Non-agile</text>
      <path fill="none" d="M679.3469 297.17 L679.3469 351.8887 L559.8514 351.8887 L559.8514 407.2911" clip-path="url(#clipPath2)"/>
      <path d="M559.8514 415.2911 L564.8514 403.2911 L559.8514 406.2911 L554.8514 403.2911 Z" clip-path="url(#clipPath2)" stroke="none"/>
      <text x="543.5125" xml:space="preserve" y="385.9532" clip-path="url(#clipPath2)" font-family="sans-serif" stroke="none">Active</text>
      <text x="530.493" xml:space="preserve" y="400.6544" clip-path="url(#clipPath2)" font-family="sans-serif" stroke="none">negotiation</text>
      <path fill="none" d="M444.1689 100.712 L444.1689 144.2432 L231.3649 144.2432 L231.3649 199.6455" clip-path="url(#clipPath2)"/>
      <path d="M231.3649 207.6455 L236.3649 195.6455 L231.3649 198.6455 L226.3649 195.6455 Z" clip-path="url(#clipPath2)" stroke="none"/>
      <text x="218.0172" xml:space="preserve" y="178.3076" clip-path="url(#clipPath2)" font-family="sans-serif" stroke="none">Long</text>
      <text x="219.025" xml:space="preserve" y="193.0088" clip-path="url(#clipPath2)" font-family="sans-serif" stroke="none">lived</text>
      <path fill="none" d="M276.1126 297.17 L276.1126 351.8887 L395.6081 351.8887 L395.6081 407.2911" clip-path="url(#clipPath2)"/>
      <path d="M395.6081 415.2911 L400.6081 403.2911 L395.6081 406.2911 L390.6081 403.2911 Z" clip-path="url(#clipPath2)" stroke="none"/>
      <text x="374.5993" xml:space="preserve" y="385.9532" clip-path="url(#clipPath2)" font-family="sans-serif" stroke="none">Passive</text>
      <text x="366.2497" xml:space="preserve" y="400.6544" clip-path="url(#clipPath2)" font-family="sans-serif" stroke="none">negotiation</text>
      <path fill="none" d="M231.3649 341.8887 L231.3649 407.2552" clip-path="url(#clipPath2)"/>
      <path d="M231.3649 415.2552 L236.3649 403.2552 L231.3649 406.2552 L226.3649 403.2552 Z" clip-path="url(#clipPath2)" stroke="none"/>
      <text x="205.6832" xml:space="preserve" y="393.3038" clip-path="url(#clipPath2)" font-family="sans-serif" stroke="none">Non-agile</text>
      <path fill="none" d="M186.6171 297.17 L186.6171 351.8887 L67.1216 351.8887 L67.1216 407.2601" clip-path="url(#clipPath2)"/>
      <path d="M67.1216 415.2601 L72.1216 403.2601 L67.1216 406.2601 L62.1216 403.2601 Z" clip-path="url(#clipPath2)" stroke="none"/>
      <text x="50.7827" xml:space="preserve" y="385.9532" clip-path="url(#clipPath2)" font-family="sans-serif" stroke="none">Active</text>
      <text x="37.7632" xml:space="preserve" y="400.6544" clip-path="url(#clipPath2)" font-family="sans-serif" stroke="none">negotiation</text>
      <path fill="none" d="M281.7061 499.22 L281.7061 559.5343 L284.7787 559.5343 L284.7787 618.2355 L442.672 618.2355 L442.672 837.7077" clip-path="url(#clipPath2)"/>
      <path d="M442.672 845.7077 L447.672 833.7077 L442.672 836.7077 L437.672 833.7077 Z" clip-path="url(#clipPath2)" stroke="none"/>
      <text x="241.4223" xml:space="preserve" y="603.5988" clip-path="url(#clipPath2)" font-family="sans-serif" stroke="none">Optional/Limited</text>
      <path fill="none" d="M445.9493 499.22 L445.9493 559.5343 L474.4946 559.5343 L474.4946 618.2355 L501.672 618.2355 L501.672 837.7077" clip-path="url(#clipPath2)"/>
      <path d="M501.672 845.7077 L506.672 833.7077 L501.672 836.7077 L496.672 833.7077 Z" clip-path="url(#clipPath2)" stroke="none"/>
      <text x="431.1382" xml:space="preserve" y="603.5988" clip-path="url(#clipPath2)" font-family="sans-serif" stroke="none">Optional/Limited</text>
      <path fill="none" d="M673.7534 499.22 L673.7534 559.5343 L624.599 559.5343 L624.599 678.2355 L612.422 678.2355 L612.422 705.2355" clip-path="url(#clipPath2)"/>
      <path d="M612.422 713.2355 L617.422 701.2355 L612.422 704.2355 L607.422 701.2355 Z" clip-path="url(#clipPath2)" stroke="none"/>
      <path fill="none" d="M844.4669 499.22 L844.4669 559.5343 L858.0275 559.5343 L858.0275 628.2355 L646.5887 628.2355 L646.5887 705.2355" clip-path="url(#clipPath2)"/>
      <path d="M646.5887 713.2355 L651.5887 701.2355 L646.5887 704.2355 L641.5887 701.2355 Z" clip-path="url(#clipPath2)" stroke="none"/>
      <path fill="none" d="M515.1036 504.8156 L515.1036 559.5343 L539.8514 559.5343 L539.8514 698.2355 L578.2553 698.2355 L578.2553 705.2355" clip-path="url(#clipPath2)"/>
      <path d="M578.2553 713.2355 L583.2553 701.2355 L578.2553 704.2355 L573.2553 701.2355 Z" clip-path="url(#clipPath2)" stroke="none"/>
      <path fill="none" d="M740.875 532.7792 L740.875 559.5343 L727.3141 559.5343 L727.3141 648.2355 L877.422 648.2355 L877.422 705.2355" clip-path="url(#clipPath2)"/>
      <path d="M877.422 713.2355 L882.422 701.2355 L877.422 704.2355 L872.422 701.2355 Z" clip-path="url(#clipPath2)" stroke="none"/>
      <path fill="none" d="M911.5885 532.7971 L911.5887 705.2355" clip-path="url(#clipPath2)"/>
      <path d="M911.5887 713.2355 L916.5887 701.2355 L911.5887 704.2355 L906.5887 701.2355 Z" clip-path="url(#clipPath2)" stroke="none"/>
      <path fill="none" d="M604.5991 504.8156 L604.599 668.2355 L843.2553 668.2355 L843.2553 705.2355" clip-path="url(#clipPath2)"/>
      <path d="M843.2553 713.2355 L848.2553 701.2355 L843.2553 704.2355 L838.2553 701.2355 Z" clip-path="url(#clipPath2)" stroke="none"/>
      <path fill="none" d="M851.797 765.1417 L851.797 800.7355 L774.422 800.7355 L774.422 841.6564" clip-path="url(#clipPath2)"/>
      <path d="M774.422 849.6564 L779.422 837.6564 L774.422 840.6564 L769.422 837.6564 Z" clip-path="url(#clipPath2)" stroke="none"/>
      <path fill="none" d="M707.3143 532.7837 L707.3141 658.2355 L744.922 658.2355 L744.922 705.2355" clip-path="url(#clipPath2)"/>
      <path d="M744.922 713.2355 L749.922 701.2355 L744.922 704.2355 L739.922 701.2355 Z" clip-path="url(#clipPath2)" stroke="none"/>
      <path fill="none" d="M559.8514 549.5343 L559.8514 688.2355 L710.7553 688.2355 L710.7553 705.2355" clip-path="url(#clipPath2)"/>
      <path d="M710.7553 713.2355 L715.7553 701.2355 L710.7553 704.2355 L705.7553 701.2355 Z" clip-path="url(#clipPath2)" stroke="none"/>
      <path fill="none" d="M878.0277 532.7788 L878.0275 638.2355 L779.0887 638.2355 L779.0887 705.2355" clip-path="url(#clipPath2)"/>
      <path d="M779.0887 713.2355 L784.0887 701.2355 L779.0887 704.2355 L774.0887 701.2355 Z" clip-path="url(#clipPath2)" stroke="none"/>
      <path fill="none" d="M744.922 790.7623 L744.922 837.7086" clip-path="url(#clipPath2)"/>
      <path d="M744.922 845.7086 L749.922 833.7086 L744.922 836.7086 L739.922 833.7086 Z" clip-path="url(#clipPath2)" stroke="none"/>
      <path fill="none" d="M612.422 790.7745 L612.422 800.7355 L203.297 800.7355 L203.297 837.6915" clip-path="url(#clipPath2)"/>
      <path d="M203.297 845.6915 L208.297 833.6915 L203.297 836.6915 L198.297 833.6915 Z" clip-path="url(#clipPath2)" stroke="none"/>
      <path fill="none" d="M710.7553 756.5792 L710.7553 830.7355 L232.797 830.7355 L232.797 841.6672" clip-path="url(#clipPath2)"/>
      <path d="M232.797 849.6672 L237.797 837.6672 L232.797 840.6672 L227.797 837.6672 Z" clip-path="url(#clipPath2)" stroke="none"/>
      <path fill="none" d="M779.0887 756.5792 L779.0887 810.7355 L848.672 810.7355 L848.672 837.7013" clip-path="url(#clipPath2)"/>
      <path d="M848.672 845.7013 L853.672 833.7013 L848.672 836.7013 L843.672 833.7013 Z" clip-path="url(#clipPath2)" stroke="none"/>
      <path fill="none" d="M903.047 765.1417 L903.047 800.7355 L907.672 800.7355 L907.672 837.6915" clip-path="url(#clipPath2)"/>
      <path d="M907.672 845.6915 L912.672 833.6915 L907.672 836.6915 L902.672 833.6915 Z" clip-path="url(#clipPath2)" stroke="none"/>
      <path fill="none" d="M774.4358 499.22 L774.4358 559.5343 L792.6708 559.5343 L792.6708 618.2355 L988.172 618.2355 L988.172 837.7077" clip-path="url(#clipPath2)"/>
      <path d="M988.172 845.7077 L993.172 833.7077 L988.172 836.7077 L983.172 833.7077 Z" clip-path="url(#clipPath2)" stroke="none"/>
      <text x="749.3143" xml:space="preserve" y="603.5988" clip-path="url(#clipPath2)" font-family="sans-serif" stroke="none">Optional/Limited</text>
      <path fill="none" d="M945.1493 499.22 L945.1493 559.5343 L1047.172 559.5343 L1047.172 837.7005" clip-path="url(#clipPath2)"/>
      <path d="M1047.172 845.7005 L1052.172 833.7005 L1047.172 836.7005 L1042.172 833.7005 Z" clip-path="url(#clipPath2)" stroke="none"/>
      <text x="1003.8156" xml:space="preserve" y="636.2363" clip-path="url(#clipPath2)" font-family="sans-serif" stroke="none">Optional/Limited</text>
      <path fill="none" d="M181.0237 499.22 L181.0237 559.5343 L131.8692 559.5343 L131.8692 658.2355 L66.922 658.2355 L66.922 705.2355" clip-path="url(#clipPath2)"/>
      <path d="M66.922 713.2355 L71.922 701.2355 L66.922 704.2355 L61.922 701.2355 Z" clip-path="url(#clipPath2)" stroke="none"/>
      <path fill="none" d="M345.2669 499.22 L345.2669 559.5343 L350.1355 559.5343 L350.1355 668.2355 L101.0887 668.2355 L101.0887 705.2355" clip-path="url(#clipPath2)"/>
      <path d="M101.0887 713.2355 L106.0887 701.2355 L101.0887 704.2355 L96.0887 701.2355 Z" clip-path="url(#clipPath2)" stroke="none"/>
      <path fill="none" d="M22.3739 504.8156 L22.3739 559.5343 L32.7553 559.5343 L32.7553 705.2355" clip-path="url(#clipPath2)"/>
      <path d="M32.7553 713.2355 L37.7553 701.2355 L32.7553 704.2355 L27.7553 701.2355 Z" clip-path="url(#clipPath2)" stroke="none"/>
      <path fill="none" d="M66.922 790.7745 L66.922 800.7355 L144.297 800.7355 L144.297 841.6564" clip-path="url(#clipPath2)"/>
      <path d="M144.297 849.6564 L149.297 837.6564 L144.297 840.6564 L139.297 837.6564 Z" clip-path="url(#clipPath2)" stroke="none"/>
      <path fill="none" d="M248.1452 532.7889 L248.1452 569.5343 L219.422 569.5343 L219.422 628.2355 L331.922 628.2355 L331.922 705.2355" clip-path="url(#clipPath2)"/>
      <path d="M331.922 713.2355 L336.922 701.2355 L331.922 704.2355 L326.922 701.2355 Z" clip-path="url(#clipPath2)" stroke="none"/>
      <path fill="none" d="M412.3885 532.7792 L412.3885 559.5343 L409.1379 559.5343 L409.1379 688.2355 L366.0887 688.2355 L366.0887 705.2355" clip-path="url(#clipPath2)"/>
      <path d="M366.0887 713.2355 L371.0887 701.2355 L366.0887 704.2355 L361.0887 701.2355 Z" clip-path="url(#clipPath2)" stroke="none"/>
      <path fill="none" d="M111.8694 504.8156 L111.8692 638.2355 L297.7553 638.2355 L297.7553 705.2355" clip-path="url(#clipPath2)"/>
      <path d="M297.7553 713.2355 L302.7553 701.2355 L297.7553 704.2355 L292.7553 701.2355 Z" clip-path="url(#clipPath2)" stroke="none"/>
      <path fill="none" d="M331.922 790.7745 L331.922 810.7355 L715.422 810.7355 L715.422 837.7013" clip-path="url(#clipPath2)"/>
      <path d="M715.422 845.7013 L720.422 833.7013 L715.422 836.7013 L710.422 833.7013 Z" clip-path="url(#clipPath2)" stroke="none"/>
      <path fill="none" d="M214.5845 532.7792 L214.5845 559.5343 L199.422 559.5343 L199.422 705.2355" clip-path="url(#clipPath2)"/>
      <path d="M199.422 713.2355 L204.422 701.2355 L199.422 704.2355 L194.422 701.2355 Z" clip-path="url(#clipPath2)" stroke="none"/>
      <path fill="none" d="M378.8277 532.7886 L378.8275 678.2355 L233.5887 678.2355 L233.5887 705.2355" clip-path="url(#clipPath2)"/>
      <path d="M233.5887 713.2355 L238.5887 701.2355 L233.5887 704.2355 L228.5887 701.2355 Z" clip-path="url(#clipPath2)" stroke="none"/>
      <path fill="none" d="M67.1216 549.5825 L67.1216 648.2355 L165.2553 648.2355 L165.2553 705.2355" clip-path="url(#clipPath2)"/>
      <path d="M165.2553 713.2355 L170.2553 701.2355 L165.2553 704.2355 L160.2553 701.2355 Z" clip-path="url(#clipPath2)" stroke="none"/>
      <path fill="none" d="M173.797 765.1417 L173.797 837.6961" clip-path="url(#clipPath2)"/>
      <path d="M173.797 845.6961 L178.797 833.6961 L173.797 836.6961 L168.797 833.6961 Z" clip-path="url(#clipPath2)" stroke="none"/>
      <path fill="none" d="M225.047 765.1417 L225.047 820.7355 L685.922 820.7355 L685.922 841.6759" clip-path="url(#clipPath2)"/>
      <path d="M685.922 849.6759 L690.922 837.6759 L685.922 840.6759 L680.922 837.6759 Z" clip-path="url(#clipPath2)" stroke="none"/>
    </g>
  </g>
</svg>
