<?xml version="1.0" encoding="UTF-8"?><svg xmlns="http://www.w3.org/2000/svg" xmlns:xlink="http://www.w3.org/1999/xlink" fill-opacity="1" color-rendering="auto" color-interpolation="auto" text-rendering="auto" stroke="black" stroke-linecap="square" width="986" stroke-miterlimit="10" shape-rendering="auto" stroke-opacity="1" fill="black" stroke-dasharray="none" font-weight="normal" stroke-width="1" height="847" font-family="'Dialog'" font-style="normal" stroke-linejoin="miter" font-size="12px" stroke-dashoffset="0" image-rendering="auto">
  <!--Generated by ySVG 2.6-->
  <defs id="genericDefs"/>
  <g>
    <defs id="defs1">
      <linearGradient x1="360.2297" gradientUnits="userSpaceOnUse" x2="462.7297" y1="624.5343" y2="702.0343" id="linearGradient1" spreadMethod="reflect">
        <stop stop-opacity="1" stop-color="rgb(232,238,247)" offset="0%"/>
        <stop stop-opacity="1" stop-color="rgb(183,201,227)" offset="100%"/>
      </linearGradient>
      <linearGradient x1="95.2297" gradientUnits="userSpaceOnUse" x2="197.7297" y1="624.5343" y2="702.0343" id="linearGradient2" spreadMethod="reflect">
        <stop stop-opacity="1" stop-color="rgb(232,238,247)" offset="0%"/>
        <stop stop-opacity="1" stop-color="rgb(183,201,227)" offset="100%"/>
      </linearGradient>
      <linearGradient x1="227.7297" gradientUnits="userSpaceOnUse" x2="330.2297" y1="624.5343" y2="702.0343" id="linearGradient3" spreadMethod="reflect">
        <stop stop-opacity="1" stop-color="rgb(232,238,247)" offset="0%"/>
        <stop stop-opacity="1" stop-color="rgb(183,201,227)" offset="100%"/>
      </linearGradient>
      <linearGradient x1="705.7297" gradientUnits="userSpaceOnUse" x2="823.7297" y1="757.0343" y2="816.0343" id="linearGradient4" spreadMethod="reflect">
        <stop stop-opacity="1" stop-color="rgb(232,238,247)" offset="0%"/>
        <stop stop-opacity="1" stop-color="rgb(183,201,227)" offset="100%"/>
      </linearGradient>
      <linearGradient x1="209.1047" gradientUnits="userSpaceOnUse" x2="327.1047" y1="757.0343" y2="816.0343" id="linearGradient5" spreadMethod="reflect">
        <stop stop-opacity="1" stop-color="rgb(232,238,247)" offset="0%"/>
        <stop stop-opacity="1" stop-color="rgb(183,201,227)" offset="100%"/>
      </linearGradient>
      <linearGradient x1="757.7297" gradientUnits="userSpaceOnUse" x2="860.2297" y1="624.5343" y2="702.0343" id="linearGradient6" spreadMethod="reflect">
        <stop stop-opacity="1" stop-color="rgb(232,238,247)" offset="0%"/>
        <stop stop-opacity="1" stop-color="rgb(183,201,227)" offset="100%"/>
      </linearGradient>
      <linearGradient x1="492.7297" gradientUnits="userSpaceOnUse" x2="595.2297" y1="624.5343" y2="702.0343" id="linearGradient7" spreadMethod="reflect">
        <stop stop-opacity="1" stop-color="rgb(232,238,247)" offset="0%"/>
        <stop stop-opacity="1" stop-color="rgb(183,201,227)" offset="100%"/>
      </linearGradient>
      <linearGradient x1="625.2297" gradientUnits="userSpaceOnUse" x2="727.7297" y1="624.5343" y2="702.0343" id="linearGradient8" spreadMethod="reflect">
        <stop stop-opacity="1" stop-color="rgb(232,238,247)" offset="0%"/>
        <stop stop-opacity="1" stop-color="rgb(183,201,227)" offset="100%"/>
      </linearGradient>
      <clipPath clipPathUnits="userSpaceOnUse" id="clipPath1">
        <path d="M0 0 L986 0 L986 847 L0 847 L0 0 Z"/>
      </clipPath>
      <clipPath clipPathUnits="userSpaceOnUse" id="clipPath2">
        <path d="M-15 -15 L971 -15 L971 832 L-15 832 L-15 -15 Z"/>
      </clipPath>
    </defs>
    <g fill="white" text-rendering="geometricPrecision" shape-rendering="geometricPrecision" transform="translate(15,15)" stroke="white">
      <rect x="-15" width="986" height="847" y="-15" clip-path="url(#clipPath2)" stroke="none"/>
    </g>
    <g fill="rgb(255,204,0)" text-rendering="geometricPrecision" shape-rendering="geometricPrecision" transform="matrix(1,0,0,1,15,15)" stroke="rgb(255,204,0)">
      <path d="M410.6081 67.1216 L477.7297 0 L544.8514 67.1216 L477.7297 134.2432 Z" fill-rule="evenodd" clip-path="url(#clipPath2)" stroke="none"/>
    </g>
    <g text-rendering="geometricPrecision" stroke-miterlimit="1.45" shape-rendering="geometricPrecision" transform="matrix(1,0,0,1,15,15)" stroke-linecap="butt">
      <path fill="none" d="M410.6081 67.1216 L477.7297 0 L544.8514 67.1216 L477.7297 134.2432 Z" fill-rule="evenodd" clip-path="url(#clipPath2)"/>
      <text x="432.0471" xml:space="preserve" y="71.8355" clip-path="url(#clipPath2)" font-family="sans-serif" stroke="none">Use case lifetime</text>
    </g>
    <g fill="rgb(255,204,0)" text-rendering="geometricPrecision" shape-rendering="geometricPrecision" transform="matrix(1,0,0,1,15,15)" stroke="rgb(255,204,0)">
      <path d="M164.2433 274.7672 L231.3648 207.6455 L298.4865 274.7672 L231.3648 341.8887 Z" fill-rule="evenodd" clip-path="url(#clipPath2)" stroke="none"/>
    </g>
    <g text-rendering="geometricPrecision" stroke-miterlimit="1.45" shape-rendering="geometricPrecision" transform="matrix(1,0,0,1,15,15)" stroke-linecap="butt">
      <path fill="none" d="M164.2433 274.7672 L231.3648 207.6455 L298.4865 274.7672 L231.3648 341.8887 Z" fill-rule="evenodd" clip-path="url(#clipPath2)"/>
      <text x="211.3551" xml:space="preserve" y="272.1304" clip-path="url(#clipPath2)" font-family="sans-serif" stroke="none">Type of</text>
      <text x="189.0045" xml:space="preserve" y="286.8316" clip-path="url(#clipPath2)" font-family="sans-serif" stroke="none">protocol in use?</text>
    </g>
    <g fill="rgb(255,204,0)" text-rendering="geometricPrecision" shape-rendering="geometricPrecision" transform="matrix(1,0,0,1,15,15)" stroke="rgb(255,204,0)">
      <path d="M328.4865 482.4127 L395.6081 415.2911 L462.7298 482.4127 L395.6081 549.5342 Z" fill-rule="evenodd" clip-path="url(#clipPath2)" stroke="none"/>
    </g>
    <g text-rendering="geometricPrecision" stroke-miterlimit="1.45" shape-rendering="geometricPrecision" transform="matrix(1,0,0,1,15,15)" stroke-linecap="butt">
      <path fill="none" d="M328.4865 482.4127 L395.6081 415.2911 L462.7298 482.4127 L395.6081 549.5342 Z" fill-rule="evenodd" clip-path="url(#clipPath2)"/>
      <text x="371.5964" xml:space="preserve" y="472.4254" clip-path="url(#clipPath2)" font-family="sans-serif" stroke="none">Requires</text>
      <text x="369.9294" xml:space="preserve" y="487.1266" clip-path="url(#clipPath2)" font-family="sans-serif" stroke="none">backward</text>
      <text x="359.2595" xml:space="preserve" y="501.8277" clip-path="url(#clipPath2)" font-family="sans-serif" stroke="none">compatibility?</text>
    </g>
    <g fill="rgb(255,204,0)" text-rendering="geometricPrecision" shape-rendering="geometricPrecision" transform="matrix(1,0,0,1,15,15)" stroke="rgb(255,204,0)">
      <path d="M164.2433 482.4127 L231.3648 415.2911 L298.4865 482.4127 L231.3648 549.5342 Z" fill-rule="evenodd" clip-path="url(#clipPath2)" stroke="none"/>
    </g>
    <g text-rendering="geometricPrecision" stroke-miterlimit="1.45" shape-rendering="geometricPrecision" transform="matrix(1,0,0,1,15,15)" stroke-linecap="butt">
      <path fill="none" d="M164.2433 482.4127 L231.3648 415.2911 L298.4865 482.4127 L231.3648 549.5342 Z" fill-rule="evenodd" clip-path="url(#clipPath2)"/>
      <text x="207.3531" xml:space="preserve" y="472.4254" clip-path="url(#clipPath2)" font-family="sans-serif" stroke="none">Requires</text>
      <text x="205.6861" xml:space="preserve" y="487.1266" clip-path="url(#clipPath2)" font-family="sans-serif" stroke="none">backward</text>
      <text x="195.0162" xml:space="preserve" y="501.8277" clip-path="url(#clipPath2)" font-family="sans-serif" stroke="none">compatibility?</text>
    </g>
    <g fill="rgb(255,204,0)" text-rendering="geometricPrecision" shape-rendering="geometricPrecision" transform="matrix(1,0,0,1,15,15)" stroke="rgb(255,204,0)">
      <path d="M-0 482.4127 L67.1216 415.2911 L134.2432 482.4127 L67.1216 549.5342 Z" fill-rule="evenodd" clip-path="url(#clipPath2)" stroke="none"/>
    </g>
    <g text-rendering="geometricPrecision" stroke-miterlimit="1.45" shape-rendering="geometricPrecision" transform="matrix(1,0,0,1,15,15)" stroke-linecap="butt">
      <path fill="none" d="M-0 482.4127 L67.1216 415.2911 L134.2432 482.4127 L67.1216 549.5342 Z" fill-rule="evenodd" clip-path="url(#clipPath2)"/>
      <text x="43.1099" xml:space="preserve" y="472.4254" clip-path="url(#clipPath2)" font-family="sans-serif" stroke="none">Requires</text>
      <text x="41.4429" xml:space="preserve" y="487.1266" clip-path="url(#clipPath2)" font-family="sans-serif" stroke="none">backward</text>
      <text x="30.773" xml:space="preserve" y="501.8277" clip-path="url(#clipPath2)" font-family="sans-serif" stroke="none">compatibility?</text>
    </g>
    <g fill="rgb(255,204,0)" text-rendering="geometricPrecision" shape-rendering="geometricPrecision" transform="matrix(1,0,0,1,15,15)" stroke="rgb(255,204,0)">
      <path d="M656.973 274.7672 L724.0947 207.6455 L791.2162 274.7672 L724.0947 341.8887 Z" fill-rule="evenodd" clip-path="url(#clipPath2)" stroke="none"/>
    </g>
    <g text-rendering="geometricPrecision" stroke-miterlimit="1.45" shape-rendering="geometricPrecision" transform="matrix(1,0,0,1,15,15)" stroke-linecap="butt">
      <path fill="none" d="M656.973 274.7672 L724.0947 207.6455 L791.2162 274.7672 L724.0947 341.8887 Z" fill-rule="evenodd" clip-path="url(#clipPath2)"/>
      <text x="704.0848" xml:space="preserve" y="272.1304" clip-path="url(#clipPath2)" font-family="sans-serif" stroke="none">Type of</text>
      <text x="681.7343" xml:space="preserve" y="286.8316" clip-path="url(#clipPath2)" font-family="sans-serif" stroke="none">protocol in use?</text>
    </g>
    <g fill="rgb(255,204,0)" text-rendering="geometricPrecision" shape-rendering="geometricPrecision" transform="matrix(1,0,0,1,15,15)" stroke="rgb(255,204,0)">
      <path d="M821.2162 482.4127 L888.3379 415.2911 L955.4595 482.4127 L888.3379 549.5342 Z" fill-rule="evenodd" clip-path="url(#clipPath2)" stroke="none"/>
    </g>
    <g text-rendering="geometricPrecision" stroke-miterlimit="1.45" shape-rendering="geometricPrecision" transform="matrix(1,0,0,1,15,15)" stroke-linecap="butt">
      <path fill="none" d="M821.2162 482.4127 L888.3379 415.2911 L955.4595 482.4127 L888.3379 549.5342 Z" fill-rule="evenodd" clip-path="url(#clipPath2)"/>
      <text x="864.3262" xml:space="preserve" y="472.4254" clip-path="url(#clipPath2)" font-family="sans-serif" stroke="none">Requires</text>
      <text x="862.6592" xml:space="preserve" y="487.1266" clip-path="url(#clipPath2)" font-family="sans-serif" stroke="none">backward</text>
      <text x="851.9893" xml:space="preserve" y="501.8277" clip-path="url(#clipPath2)" font-family="sans-serif" stroke="none">compatibility?</text>
    </g>
    <g fill="rgb(255,204,0)" text-rendering="geometricPrecision" shape-rendering="geometricPrecision" transform="matrix(1,0,0,1,15,15)" stroke="rgb(255,204,0)">
      <path d="M492.7298 482.4127 L559.8514 415.2911 L626.9731 482.4127 L559.8514 549.5342 Z" fill-rule="evenodd" clip-path="url(#clipPath2)" stroke="none"/>
    </g>
    <g text-rendering="geometricPrecision" stroke-miterlimit="1.45" shape-rendering="geometricPrecision" transform="matrix(1,0,0,1,15,15)" stroke-linecap="butt">
      <path fill="none" d="M492.7298 482.4127 L559.8514 415.2911 L626.9731 482.4127 L559.8514 549.5342 Z" fill-rule="evenodd" clip-path="url(#clipPath2)"/>
      <text x="535.8397" xml:space="preserve" y="472.4254" clip-path="url(#clipPath2)" font-family="sans-serif" stroke="none">Requires</text>
      <text x="534.1727" xml:space="preserve" y="487.1266" clip-path="url(#clipPath2)" font-family="sans-serif" stroke="none">backward</text>
      <text x="523.5027" xml:space="preserve" y="501.8277" clip-path="url(#clipPath2)" font-family="sans-serif" stroke="none">compatibility?</text>
    </g>
    <g fill="rgb(255,204,0)" text-rendering="geometricPrecision" shape-rendering="geometricPrecision" transform="matrix(1,0,0,1,15,15)" stroke="rgb(255,204,0)">
      <path d="M656.973 482.4127 L724.0946 415.2911 L791.2162 482.4127 L724.0946 549.5342 Z" fill-rule="evenodd" clip-path="url(#clipPath2)" stroke="none"/>
    </g>
    <g text-rendering="geometricPrecision" stroke-miterlimit="1.45" shape-rendering="geometricPrecision" transform="matrix(1,0,0,1,15,15)" stroke-linecap="butt">
      <path fill="none" d="M656.973 482.4127 L724.0946 415.2911 L791.2162 482.4127 L724.0946 549.5342 Z" fill-rule="evenodd" clip-path="url(#clipPath2)"/>
      <text x="700.0829" xml:space="preserve" y="472.4254" clip-path="url(#clipPath2)" font-family="sans-serif" stroke="none">Requires</text>
      <text x="698.4159" xml:space="preserve" y="487.1266" clip-path="url(#clipPath2)" font-family="sans-serif" stroke="none">backward</text>
      <text x="687.746" xml:space="preserve" y="501.8277" clip-path="url(#clipPath2)" font-family="sans-serif" stroke="none">compatibility?</text>
    </g>
    <g fill="url(#linearGradient1)" text-rendering="geometricPrecision" shape-rendering="geometricPrecision" transform="matrix(1,0,0,1,15,15)" stroke="url(#linearGradient1)">
      <path d="M372.7297 624.5343 L450.2297 624.5343 L450.2297 663.2843 L411.4797 702.0343 L372.7297 663.2843 Z" stroke="none" clip-path="url(#clipPath2)"/>
    </g>
    <g text-rendering="geometricPrecision" stroke-miterlimit="1.45" shape-rendering="geometricPrecision" transform="matrix(1,0,0,1,15,15)" stroke-linecap="butt">
      <path fill="none" d="M372.7297 624.5343 L450.2297 624.5343 L450.2297 663.2843 L411.4797 702.0343 L372.7297 663.2843 Z" clip-path="url(#clipPath2)"/>
      <text x="383.1321" xml:space="preserve" y="667.9982" clip-path="url(#clipPath2)" font-family="sans-serif" stroke="none">Mandatory</text>
    </g>
    <g fill="url(#linearGradient2)" text-rendering="geometricPrecision" shape-rendering="geometricPrecision" transform="matrix(1,0,0,1,15,15)" stroke="url(#linearGradient2)">
      <path d="M107.7297 624.5343 L185.2297 624.5343 L185.2297 663.2843 L146.4797 702.0343 L107.7297 663.2843 Z" stroke="none" clip-path="url(#clipPath2)"/>
    </g>
    <g text-rendering="geometricPrecision" stroke-miterlimit="1.45" shape-rendering="geometricPrecision" transform="matrix(1,0,0,1,15,15)" stroke-linecap="butt">
      <path fill="none" d="M107.7297 624.5343 L185.2297 624.5343 L185.2297 663.2843 L146.4797 702.0343 L107.7297 663.2843 Z" clip-path="url(#clipPath2)"/>
      <text x="124.1321" xml:space="preserve" y="667.9982" clip-path="url(#clipPath2)" font-family="sans-serif" stroke="none">Optional</text>
    </g>
    <g fill="url(#linearGradient3)" text-rendering="geometricPrecision" shape-rendering="geometricPrecision" transform="matrix(1,0,0,1,15,15)" stroke="url(#linearGradient3)">
      <path d="M240.2297 624.5343 L317.7297 624.5343 L317.7297 663.2843 L278.9797 702.0343 L240.2297 663.2843 Z" stroke="none" clip-path="url(#clipPath2)"/>
    </g>
    <g text-rendering="geometricPrecision" stroke-miterlimit="1.45" shape-rendering="geometricPrecision" transform="matrix(1,0,0,1,15,15)" stroke-linecap="butt">
      <path fill="none" d="M240.2297 624.5343 L317.7297 624.5343 L317.7297 663.2843 L278.9797 702.0343 L240.2297 663.2843 Z" clip-path="url(#clipPath2)"/>
      <text x="259.6379" xml:space="preserve" y="667.9982" clip-path="url(#clipPath2)" font-family="sans-serif" stroke="none">Limited</text>
    </g>
    <g fill="url(#linearGradient4)" text-rendering="geometricPrecision" shape-rendering="geometricPrecision" transform="matrix(1,0,0,1,15,15)" stroke="url(#linearGradient4)">
      <rect x="705.7297" y="757.0343" clip-path="url(#clipPath2)" width="118" rx="29.5" ry="29.5" height="59" stroke="none"/>
    </g>
    <g text-rendering="geometricPrecision" stroke-miterlimit="1.45" shape-rendering="geometricPrecision" transform="matrix(1,0,0,1,15,15)" stroke-linecap="butt">
      <rect x="705.7297" y="757.0343" clip-path="url(#clipPath2)" fill="none" width="118" rx="29.5" ry="29.5" height="59"/>
      <text x="744.0549" xml:space="preserve" y="783.8976" clip-path="url(#clipPath2)" font-family="sans-serif" stroke="none">Multiple</text>
      <text x="737.0471" xml:space="preserve" y="798.5988" clip-path="url(#clipPath2)" font-family="sans-serif" stroke="none">signatures</text>
    </g>
    <g fill="url(#linearGradient5)" text-rendering="geometricPrecision" shape-rendering="geometricPrecision" transform="matrix(1,0,0,1,15,15)" stroke="url(#linearGradient5)">
      <rect x="209.1047" y="757.0343" clip-path="url(#clipPath2)" width="118" rx="29.5" ry="29.5" height="59" stroke="none"/>
    </g>
    <g text-rendering="geometricPrecision" stroke-miterlimit="1.45" shape-rendering="geometricPrecision" transform="matrix(1,0,0,1,15,15)" stroke-linecap="butt">
      <rect x="209.1047" y="757.0343" clip-path="url(#clipPath2)" fill="none" width="118" rx="29.5" ry="29.5" height="59"/>
      <text x="245.4348" xml:space="preserve" y="791.2482" clip-path="url(#clipPath2)" font-family="sans-serif" stroke="none">ML-DSA</text>
    </g>
    <g fill="url(#linearGradient6)" text-rendering="geometricPrecision" shape-rendering="geometricPrecision" transform="matrix(1,0,0,1,15,15)" stroke="url(#linearGradient6)">
      <path d="M770.2297 624.5343 L847.7297 624.5343 L847.7297 663.2843 L808.9797 702.0343 L770.2297 663.2843 Z" stroke="none" clip-path="url(#clipPath2)"/>
    </g>
    <g text-rendering="geometricPrecision" stroke-miterlimit="1.45" shape-rendering="geometricPrecision" transform="matrix(1,0,0,1,15,15)" stroke-linecap="butt">
      <path fill="none" d="M770.2297 624.5343 L847.7297 624.5343 L847.7297 663.2843 L808.9797 702.0343 L770.2297 663.2843 Z" clip-path="url(#clipPath2)"/>
      <text x="780.6321" xml:space="preserve" y="667.9982" clip-path="url(#clipPath2)" font-family="sans-serif" stroke="none">Mandatory</text>
    </g>
    <g fill="url(#linearGradient7)" text-rendering="geometricPrecision" shape-rendering="geometricPrecision" transform="matrix(1,0,0,1,15,15)" stroke="url(#linearGradient7)">
      <path d="M505.2297 624.5343 L582.7297 624.5343 L582.7297 663.2843 L543.9797 702.0343 L505.2297 663.2843 Z" stroke="none" clip-path="url(#clipPath2)"/>
    </g>
    <g text-rendering="geometricPrecision" stroke-miterlimit="1.45" shape-rendering="geometricPrecision" transform="matrix(1,0,0,1,15,15)" stroke-linecap="butt">
      <path fill="none" d="M505.2297 624.5343 L582.7297 624.5343 L582.7297 663.2843 L543.9797 702.0343 L505.2297 663.2843 Z" clip-path="url(#clipPath2)"/>
      <text x="521.6321" xml:space="preserve" y="667.9982" clip-path="url(#clipPath2)" font-family="sans-serif" stroke="none">Optional</text>
    </g>
    <g fill="url(#linearGradient8)" text-rendering="geometricPrecision" shape-rendering="geometricPrecision" transform="matrix(1,0,0,1,15,15)" stroke="url(#linearGradient8)">
      <path d="M637.7297 624.5343 L715.2297 624.5343 L715.2297 663.2843 L676.4797 702.0343 L637.7297 663.2843 Z" stroke="none" clip-path="url(#clipPath2)"/>
    </g>
    <g text-rendering="geometricPrecision" stroke-miterlimit="1.45" shape-rendering="geometricPrecision" transform="matrix(1,0,0,1,15,15)" stroke-linecap="butt">
      <path fill="none" d="M637.7297 624.5343 L715.2297 624.5343 L715.2297 663.2843 L676.4797 702.0343 L637.7297 663.2843 Z" clip-path="url(#clipPath2)"/>
      <text x="657.1379" xml:space="preserve" y="667.9982" clip-path="url(#clipPath2)" font-family="sans-serif" stroke="none">Limited</text>
    </g>
    <g text-rendering="geometricPrecision" stroke-miterlimit="1.45" shape-rendering="geometricPrecision" transform="matrix(1,0,0,1,15,15)" stroke-linecap="butt">
      <path fill="none" d="M444.1689 100.712 L444.1689 144.2432 L231.3649 144.2432 L231.3649 199.6455" clip-path="url(#clipPath2)"/>
      <path d="M231.3649 207.6455 L236.3649 195.6455 L231.3649 198.6455 L226.3649 195.6455 Z" clip-path="url(#clipPath2)" stroke="none"/>
      <text x="217.024" xml:space="preserve" y="178.3076" clip-path="url(#clipPath2)" font-family="sans-serif" stroke="none">Short</text>
      <text x="219.025" xml:space="preserve" y="193.0088" clip-path="url(#clipPath2)" font-family="sans-serif" stroke="none">lived</text>
      <path fill="none" d="M276.1126 297.17 L276.1126 351.8887 L395.6081 351.8887 L395.6081 407.2911" clip-path="url(#clipPath2)"/>
      <path d="M395.6081 415.2911 L400.6081 403.2911 L395.6081 406.2911 L390.6081 403.2911 Z" clip-path="url(#clipPath2)" stroke="none"/>
      <text x="374.5993" xml:space="preserve" y="385.9532" clip-path="url(#clipPath2)" font-family="sans-serif" stroke="none">Passive</text>
      <text x="366.2497" xml:space="preserve" y="400.6544" clip-path="url(#clipPath2)" font-family="sans-serif" stroke="none">negotiation</text>
      <path fill="none" d="M231.3649 341.8887 L231.3649 407.2911" clip-path="url(#clipPath2)"/>
      <path d="M231.3649 415.2911 L236.3649 403.2911 L231.3649 406.2911 L226.3649 403.2911 Z" clip-path="url(#clipPath2)" stroke="none"/>
      <text x="205.6832" xml:space="preserve" y="393.3038" clip-path="url(#clipPath2)" font-family="sans-serif" stroke="none">Non-agile</text>
      <path fill="none" d="M186.6171 297.17 L186.6171 351.8887 L67.1216 351.8887 L67.1216 407.2911" clip-path="url(#clipPath2)"/>
      <path d="M67.1216 415.2911 L72.1216 403.2911 L67.1216 406.2911 L62.1216 403.2911 Z" clip-path="url(#clipPath2)" stroke="none"/>
      <text x="50.7827" xml:space="preserve" y="385.9532" clip-path="url(#clipPath2)" font-family="sans-serif" stroke="none">Active</text>
      <text x="37.7632" xml:space="preserve" y="400.6544" clip-path="url(#clipPath2)" font-family="sans-serif" stroke="none">negotiation</text>
      <path fill="none" d="M511.2905 100.712 L511.2905 144.2432 L724.0946 144.2432 L724.0946 199.6455" clip-path="url(#clipPath2)"/>
      <path d="M724.0946 207.6455 L729.0946 195.6455 L724.0946 198.6455 L719.0946 195.6455 Z" clip-path="url(#clipPath2)" stroke="none"/>
      <text x="710.7469" xml:space="preserve" y="178.3076" clip-path="url(#clipPath2)" font-family="sans-serif" stroke="none">Long</text>
      <text x="711.7548" xml:space="preserve" y="193.0088" clip-path="url(#clipPath2)" font-family="sans-serif" stroke="none">lived</text>
      <path fill="none" d="M768.8423 297.17 L768.8423 351.8887 L888.3379 351.8887 L888.3379 407.2911" clip-path="url(#clipPath2)"/>
      <path d="M888.3379 415.2911 L893.3379 403.2911 L888.3379 406.2911 L883.3379 403.2911 Z" clip-path="url(#clipPath2)" stroke="none"/>
      <text x="867.3291" xml:space="preserve" y="385.9532" clip-path="url(#clipPath2)" font-family="sans-serif" stroke="none">Passive</text>
      <text x="858.9795" xml:space="preserve" y="400.6544" clip-path="url(#clipPath2)" font-family="sans-serif" stroke="none">negotiation</text>
      <path fill="none" d="M679.3469 297.17 L679.3469 351.8887 L559.8514 351.8887 L559.8514 407.2911" clip-path="url(#clipPath2)"/>
      <path d="M559.8514 415.2911 L564.8514 403.2911 L559.8514 406.2911 L554.8514 403.2911 Z" clip-path="url(#clipPath2)" stroke="none"/>
      <text x="534.1697" xml:space="preserve" y="393.3038" clip-path="url(#clipPath2)" font-family="sans-serif" stroke="none">Non-agile</text>
      <path fill="none" d="M724.0946 341.8887 L724.0946 407.2911" clip-path="url(#clipPath2)"/>
      <path d="M724.0946 415.2911 L729.0946 403.2911 L724.0946 406.2911 L719.0946 403.2911 Z" clip-path="url(#clipPath2)" stroke="none"/>
      <text x="707.7557" xml:space="preserve" y="385.9532" clip-path="url(#clipPath2)" font-family="sans-serif" stroke="none">Active</text>
      <text x="694.7362" xml:space="preserve" y="400.6544" clip-path="url(#clipPath2)" font-family="sans-serif" stroke="none">negotiation</text>
      <path fill="none" d="M276.1126 504.8156 L276.1126 559.5343 L411.4797 559.5343 L411.4797 616.5343" clip-path="url(#clipPath2)"/>
      <path d="M411.4797 624.5343 L416.4797 612.5343 L411.4797 615.5343 L406.4797 612.5343 Z" clip-path="url(#clipPath2)" stroke="none"/>
      <path fill="none" d="M440.3558 504.8156 L440.3558 559.5343 L445.6464 559.5343 L445.6464 616.5343" clip-path="url(#clipPath2)"/>
      <path d="M445.6464 624.5343 L450.6464 612.5343 L445.6464 615.5343 L440.6464 612.5343 Z" clip-path="url(#clipPath2)" stroke="none"/>
      <path fill="none" d="M111.8693 504.8156 L111.8693 579.5343 L377.3131 579.5343 L377.3131 616.5343" clip-path="url(#clipPath2)"/>
      <path d="M377.3131 624.5343 L382.3131 612.5343 L377.3131 615.5343 L372.3131 612.5343 Z" clip-path="url(#clipPath2)" stroke="none"/>
      <path fill="none" d="M350.8604 504.8156 L350.8604 589.5343 L180.6464 589.5343 L180.6464 616.5343" clip-path="url(#clipPath2)"/>
      <path d="M180.6464 624.5343 L185.6464 612.5343 L180.6464 615.5343 L175.6464 612.5343 Z" clip-path="url(#clipPath2)" stroke="none"/>
      <path fill="none" d="M186.6171 504.8156 L186.6171 559.5343 L146.4797 559.5343 L146.4797 616.5343" clip-path="url(#clipPath2)"/>
      <path d="M146.4797 624.5343 L151.4797 612.5343 L146.4797 615.5343 L141.4797 612.5343 Z" clip-path="url(#clipPath2)" stroke="none"/>
      <path fill="none" d="M22.3739 504.8156 L22.3739 609.5343 L112.3131 609.5343 L112.3131 616.5343" clip-path="url(#clipPath2)"/>
      <path d="M112.3131 624.5343 L117.3131 612.5343 L112.3131 615.5343 L107.3131 612.5343 Z" clip-path="url(#clipPath2)" stroke="none"/>
      <path fill="none" d="M67.1216 549.5343 L67.1216 599.5343 L244.8131 599.5343 L244.8131 616.5343" clip-path="url(#clipPath2)"/>
      <path d="M244.8131 624.5343 L249.8131 612.5343 L244.8131 615.5343 L239.8131 612.5343 Z" clip-path="url(#clipPath2)" stroke="none"/>
      <path fill="none" d="M395.6081 549.5343 L395.6081 599.5343 L313.1464 599.5343 L313.1464 616.5343" clip-path="url(#clipPath2)"/>
      <path d="M313.1464 624.5343 L318.1464 612.5343 L313.1464 615.5343 L308.1464 612.5343 Z" clip-path="url(#clipPath2)" stroke="none"/>
      <path fill="none" d="M231.3649 549.5343 L231.3649 569.5343 L278.9797 569.5343 L278.9797 616.5343" clip-path="url(#clipPath2)"/>
      <path d="M278.9797 624.5343 L283.9797 612.5343 L278.9797 615.5343 L273.9797 612.5343 Z" clip-path="url(#clipPath2)" stroke="none"/>
      <path fill="none" d="M411.4797 702.0734 L411.4797 722.0343 L749.9797 722.0343 L749.9797 749.0001" clip-path="url(#clipPath2)"/>
      <path d="M749.9797 757.0001 L754.9797 745.0001 L749.9797 748.0001 L744.9797 745.0001 Z" clip-path="url(#clipPath2)" stroke="none"/>
      <path fill="none" d="M304.6047 676.4406 L304.6047 732.0343 L720.4797 732.0343 L720.4797 752.9747" clip-path="url(#clipPath2)"/>
      <path d="M720.4797 760.9747 L725.4797 748.9747 L720.4797 751.9747 L715.4797 748.9747 Z" clip-path="url(#clipPath2)" stroke="none"/>
      <path fill="none" d="M146.4797 702.0734 L146.4797 712.0343 L223.8547 712.0343 L223.8547 752.9552" clip-path="url(#clipPath2)"/>
      <path d="M223.8547 760.9552 L228.8547 748.9552 L223.8547 751.9552 L218.8547 748.9552 Z" clip-path="url(#clipPath2)" stroke="none"/>
      <path fill="none" d="M253.3547 676.4406 L253.3547 748.9949" clip-path="url(#clipPath2)"/>
      <path d="M253.3547 756.9949 L258.3547 744.9949 L253.3547 747.9949 L248.3547 744.9949 Z" clip-path="url(#clipPath2)" stroke="none"/>
      <path fill="none" d="M768.8423 504.8156 L768.8423 559.5343 L808.9797 559.5343 L808.9797 616.5343" clip-path="url(#clipPath2)"/>
      <path d="M808.9797 624.5343 L813.9797 612.5343 L808.9797 615.5343 L803.9797 612.5343 Z" clip-path="url(#clipPath2)" stroke="none"/>
      <path fill="none" d="M604.5991 504.8156 L604.5991 589.5343 L774.813 589.5343 L774.813 616.5343" clip-path="url(#clipPath2)"/>
      <path d="M774.813 624.5343 L779.813 612.5343 L774.813 615.5343 L769.813 612.5343 Z" clip-path="url(#clipPath2)" stroke="none"/>
      <path fill="none" d="M933.0856 504.8156 L933.0856 609.5343 L843.1464 609.5343 L843.1464 616.5343" clip-path="url(#clipPath2)"/>
      <path d="M843.1464 624.5343 L848.1464 612.5343 L843.1464 615.5343 L838.1464 612.5343 Z" clip-path="url(#clipPath2)" stroke="none"/>
      <path fill="none" d="M808.9797 702.0631 L808.9797 752.9742" clip-path="url(#clipPath2)"/>
      <path d="M808.9797 760.9742 L813.9797 748.9742 L808.9797 751.9742 L803.9797 748.9742 Z" clip-path="url(#clipPath2)" stroke="none"/>
      <path fill="none" d="M515.1036 504.8156 L515.1036 559.5343 L509.8131 559.5343 L509.8131 616.5343" clip-path="url(#clipPath2)"/>
      <path d="M509.8131 624.5343 L514.8131 612.5343 L509.8131 615.5343 L504.8131 612.5343 Z" clip-path="url(#clipPath2)" stroke="none"/>
      <path fill="none" d="M843.5901 504.8156 L843.5901 579.5343 L578.1464 579.5343 L578.1464 616.5343" clip-path="url(#clipPath2)"/>
      <path d="M578.1464 624.5343 L583.1464 612.5343 L578.1464 615.5343 L573.1464 612.5343 Z" clip-path="url(#clipPath2)" stroke="none"/>
      <path fill="none" d="M679.3469 504.8156 L679.3469 559.5343 L543.9797 559.5343 L543.9797 616.5343" clip-path="url(#clipPath2)"/>
      <path d="M543.9797 624.5343 L548.9797 612.5343 L543.9797 615.5343 L538.9797 612.5343 Z" clip-path="url(#clipPath2)" stroke="none"/>
      <path fill="none" d="M543.9797 702.0734 L543.9797 712.0343 L282.8547 712.0343 L282.8547 748.9904" clip-path="url(#clipPath2)"/>
      <path d="M282.8547 756.9904 L287.8547 744.9904 L282.8547 747.9904 L277.8547 744.9904 Z" clip-path="url(#clipPath2)" stroke="none"/>
      <path fill="none" d="M888.3379 549.5343 L888.3379 599.5343 L710.6464 599.5343 L710.6464 616.5343" clip-path="url(#clipPath2)"/>
      <path d="M710.6464 624.5343 L715.6464 612.5343 L710.6464 615.5343 L705.6464 612.5343 Z" clip-path="url(#clipPath2)" stroke="none"/>
      <path fill="none" d="M559.8514 549.5343 L559.8514 599.5343 L642.313 599.5343 L642.313 616.5343" clip-path="url(#clipPath2)"/>
      <path d="M642.313 624.5343 L647.313 612.5343 L642.313 615.5343 L637.313 612.5343 Z" clip-path="url(#clipPath2)" stroke="none"/>
      <path fill="none" d="M724.0946 549.5343 L724.0946 569.5343 L676.4797 569.5343 L676.4797 616.5343" clip-path="url(#clipPath2)"/>
      <path d="M676.4797 624.5343 L681.4797 612.5343 L676.4797 615.5343 L671.4797 612.5343 Z" clip-path="url(#clipPath2)" stroke="none"/>
      <path fill="none" d="M702.1047 676.4406 L702.1047 712.0343 L779.4797 712.0343 L779.4797 748.9904" clip-path="url(#clipPath2)"/>
      <path d="M779.4797 756.9904 L784.4797 744.9904 L779.4797 747.9904 L774.4797 744.9904 Z" clip-path="url(#clipPath2)" stroke="none"/>
      <path fill="none" d="M650.8547 676.4101 L650.8547 742.0343 L312.3547 742.0343 L312.3547 752.966" clip-path="url(#clipPath2)"/>
      <path d="M312.3547 760.966 L317.3547 748.966 L312.3547 751.966 L307.3547 748.966 Z" clip-path="url(#clipPath2)" stroke="none"/>
    </g>
  </g>
</svg>
